# This file uses centimeters as units for non-parametric coordinates.

mtllib ventana_despacho1.mtl
g default
v 533.731008 743.707735 -2752.818142
v 530.496327 743.707735 -2754.960068
v 530.496327 708.877717 -2754.960068
v 533.731008 708.877717 -2752.818142
v 543.436269 743.707735 -2754.960068
v 540.201589 743.707735 -2752.818142
v 540.201589 708.877717 -2752.818142
v 543.436269 708.877717 -2754.960068
v 533.731008 708.877717 -2761.386815
v 530.496327 708.877717 -2759.244889
v 530.496327 743.707735 -2759.244889
v 533.731008 743.707735 -2761.386815
v 543.436269 708.877717 -2759.244889
v 540.201589 708.877717 -2761.386815
v 540.201589 743.707735 -2761.386815
v 543.436269 743.707735 -2759.244889
v 533.731008 743.707735 -2812.282327
v 530.496327 743.707735 -2814.424577
v 530.496327 708.877717 -2814.424577
v 533.731008 708.877717 -2812.282327
v 543.436269 743.707735 -2814.424577
v 540.201589 743.707735 -2812.282327
v 540.201589 708.877717 -2812.282327
v 543.436269 708.877717 -2814.424577
v 533.731008 708.877717 -2820.851001
v 530.496327 708.877717 -2818.709236
v 530.496327 743.707735 -2818.709236
v 533.731008 743.707735 -2820.851001
v 543.436269 708.877717 -2818.709236
v 540.201589 708.877717 -2820.851001
v 540.201589 743.707735 -2820.851001
v 543.436269 743.707735 -2818.709236
v 543.610097 704.696281 -2691.483469
v 543.610097 704.696281 -2942.598521
v 543.610097 749.651664 -2709.544096
v 543.610097 731.591038 -2691.483469
v 543.610097 749.651664 -2924.537894
v 543.610097 731.591038 -2942.598521
v 528.737722 743.036413 -2712.284189
v 528.737722 728.850944 -2698.098720
v 528.737722 743.036413 -2921.797801
v 528.737722 728.850944 -2935.983270
v 528.737722 711.311532 -2935.983270
v 528.737722 711.311532 -2698.098720
v 543.610097 743.036413 -2921.797801
v 543.610097 728.850944 -2935.983270
v 543.610097 743.036413 -2712.284189
v 543.610097 728.850944 -2698.098720
v 543.610097 711.311532 -2698.098720
v 543.610097 711.311532 -2935.983270
v 543.610097 704.696281 -2817.040995
v 543.610097 711.311532 -2817.040995
v 528.737722 711.311532 -2817.040995
v 543.610097 704.696281 -2879.819677
v 543.610097 711.311532 -2876.512132
v 528.737722 711.311532 -2876.512132
v 543.610097 704.696281 -2754.262313
v 543.610097 711.311532 -2757.569858
v 528.737722 711.311532 -2757.569858
v 541.010121 731.591038 -2691.483469
v 531.337697 731.591038 -2691.483469
v 531.337697 704.696281 -2691.483469
v 541.010121 704.696281 -2691.483469
v 531.337697 704.696281 -2754.262313
v 541.010121 704.696281 -2754.262313
v 541.010121 704.696281 -2942.598521
v 531.337697 704.696281 -2942.598521
v 531.337697 731.591038 -2942.598521
v 541.010121 731.591038 -2942.598521
v 541.010121 749.651664 -2924.537894
v 531.337697 749.651664 -2924.537894
v 531.337697 749.651664 -2709.544096
v 541.010121 749.651664 -2709.544096
v 531.337697 704.696281 -2817.040995
v 541.010121 704.696281 -2817.040995
v 531.337697 704.696281 -2879.819677
v 541.010121 704.696281 -2879.819677
v 542.263722 732.907573 -2688.304935
v 530.084096 732.907573 -2688.304935
v 530.084096 701.517747 -2688.304935
v 542.263722 701.517747 -2688.304935
v 530.084096 701.517747 -2754.262313
v 542.263722 701.517747 -2754.262313
v 542.263722 701.517747 -2945.777055
v 530.084096 701.517747 -2945.777055
v 530.084096 732.907573 -2945.777055
v 542.263722 732.907573 -2945.777055
v 542.263722 752.830198 -2925.854349
v 530.084096 752.830198 -2925.854349
v 530.084096 752.830198 -2708.227641
v 542.263722 752.830198 -2708.227641
v 530.084096 701.517747 -2817.040995
v 542.263722 701.517747 -2817.040995
v 530.084096 701.517747 -2879.819677
v 542.263722 701.517747 -2879.819677
v 528.737722 705.839509 -2692.626616
v 529.243398 705.031094 -2691.818282
v 530.464162 704.696281 -2691.483469
v 528.737722 705.774115 -2754.801149
v 529.270742 705.011936 -2754.420100
v 530.557546 704.696281 -2754.262313
v 528.737722 705.839509 -2941.455373
v 529.243398 705.031094 -2942.263708
v 530.464162 704.696281 -2942.598521
v 528.737722 731.117515 -2941.455373
v 529.243398 731.452327 -2942.263708
v 530.464162 731.591038 -2942.598521
v 528.737722 731.117515 -2692.626616
v 529.243398 731.452327 -2691.818282
v 530.464162 731.591038 -2691.483469
v 528.737722 748.508436 -2710.017618
v 529.243398 749.316852 -2709.682806
v 530.464162 749.651664 -2709.544096
v 528.737722 748.508436 -2924.064372
v 529.243398 749.316852 -2924.399184
v 530.464162 749.651664 -2924.537894
v 528.737722 705.839509 -2817.040995
v 529.243398 705.031094 -2817.040995
v 530.464162 704.696281 -2817.040995
v 528.737722 705.774115 -2879.280841
v 529.270742 705.011936 -2879.661890
v 530.557546 704.696281 -2879.819677
v 533.731008 743.707735 -2872.316066
v 530.496327 743.707735 -2874.457992
v 530.496327 708.877717 -2874.457992
v 533.731008 708.877717 -2872.316066
v 543.436269 743.707735 -2874.457992
v 540.201589 743.707735 -2872.316066
v 540.201589 708.877717 -2872.316066
v 543.436269 708.877717 -2874.457992
v 533.731008 708.877717 -2880.884739
v 530.496327 708.877717 -2878.742813
v 530.496327 743.707735 -2878.742813
v 533.731008 743.707735 -2880.884739
v 543.436269 708.877717 -2878.742813
v 540.201589 708.877717 -2880.884739
v 540.201589 743.707735 -2880.884739
v 543.436269 743.707735 -2878.742813
v 528.737660 702.032494 -2688.698271
v 543.610036 702.032494 -2688.698271
v 528.737660 702.032494 -2945.382588
v 543.610036 702.032494 -2945.382588
v 528.737599 686.461378 -2707.158053
v 528.737660 688.952828 -2688.698271
v 543.610036 686.461378 -2707.158053
v 543.610036 688.952828 -2688.698271
v 528.737599 686.461378 -2926.921512
v 528.737660 688.952828 -2945.382588
v 543.610036 686.461378 -2926.921512
v 543.610036 688.952828 -2945.382588
v 528.737599 589.394262 -2926.921512
v 543.610036 589.394262 -2926.921512
v 543.610036 589.394262 -2707.158053
v 528.737599 589.394262 -2707.158053
v 528.737599 689.706357 -2926.700999
v 528.737660 691.788871 -2942.135345
v 528.737599 689.706357 -2707.375495
v 528.737660 691.788871 -2691.941148
v 528.737660 698.788000 -2691.941148
v 528.737660 698.788000 -2942.135345
v 526.737599 690.368545 -2926.656540
v 527.030385 689.900358 -2926.690167
v 527.737172 689.706357 -2926.700999
v 527.737233 691.788871 -2942.135345
v 527.030446 691.958459 -2941.941506
v 526.737660 692.367477 -2941.475743
v 526.737599 690.368788 -2707.416396
v 527.030446 689.900358 -2707.389075
v 527.737477 689.706357 -2707.375495
v 526.737660 692.367477 -2692.603336
v 527.030446 691.958459 -2692.134987
v 527.737233 691.788871 -2691.941148
v 526.737660 698.125974 -2692.603336
v 527.030446 698.593999 -2692.134987
v 527.737233 698.788000 -2691.941148
v 526.737660 698.125974 -2941.475743
v 527.030446 698.593999 -2941.941506
v 527.737233 698.788000 -2942.135345
v 528.737599 568.032719 -2926.921512
v 543.610036 568.032719 -2926.921512
v 543.610036 568.032719 -2707.158053
v 528.737599 568.032719 -2707.158053
v 543.610036 589.394262 -2941.323453
v 528.737599 589.394262 -2941.323453
v 528.737599 589.394262 -2692.754010
v 543.610036 589.394262 -2692.754010
v 528.737599 679.260407 -2941.323453
v 528.737599 686.461378 -2934.123291
v 528.737599 685.913569 -2936.879551
v 528.737599 684.352271 -2939.214346
v 528.737599 682.016344 -2940.776695
v 543.610036 679.260407 -2941.323453
v 543.610036 682.016344 -2940.776695
v 543.610036 684.352271 -2939.214346
v 543.610036 685.913569 -2936.879551
v 543.610036 686.461378 -2934.123291
v 543.610036 679.260407 -2692.754010
v 543.610036 686.461378 -2699.956435
v 543.610036 685.913569 -2697.200822
v 543.610036 684.352271 -2694.863117
v 543.610036 682.016344 -2693.303678
v 528.737599 679.260407 -2692.754010
v 528.737599 682.016344 -2693.303678
v 528.737599 684.352271 -2694.863117
v 528.737599 685.913569 -2697.200822
v 528.737599 686.461378 -2699.956435
v 543.610036 589.394262 -2817.038893
v 543.610036 568.032719 -2817.038893
v 528.737599 568.032719 -2817.038893
v 528.737599 589.394262 -2817.038893
v 543.610036 589.394262 -2762.098311
v 543.610036 568.032719 -2762.098311
v 528.737599 568.032719 -2762.098311
v 528.737599 589.394262 -2762.098311
v 543.610036 589.394262 -2871.979475
v 543.610036 568.032719 -2871.979475
v 528.737599 568.032719 -2871.979475
v 528.737599 589.394262 -2871.979475
v 528.737599 571.145172 -2871.979475
v 528.737599 586.282051 -2871.979475
v 528.737599 586.282051 -2923.809100
v 528.737599 571.145172 -2923.809100
v 528.737599 571.145172 -2762.098311
v 528.737599 586.282051 -2762.098311
v 528.737599 586.282051 -2817.038893
v 528.737599 571.145172 -2817.038893
v 528.737599 586.282051 -2710.270465
v 528.737599 571.145172 -2710.270465
v 530.337575 571.145172 -2871.979475
v 530.337575 586.282051 -2871.979475
v 530.337575 586.282051 -2923.809100
v 530.337575 571.145172 -2923.809100
v 530.337575 571.145172 -2762.098311
v 530.337575 586.282051 -2762.098311
v 530.337575 586.282051 -2817.038893
v 530.337575 571.145172 -2817.038893
v 530.337575 586.282051 -2710.270465
v 530.337575 571.145172 -2710.270465
v 528.737599 679.039085 -2939.072079
v 528.737599 591.645798 -2939.072079
v 528.737599 591.645798 -2929.172887
v 528.737599 684.209923 -2929.172887
v 528.737599 684.209923 -2933.901322
v 528.737599 683.792741 -2936.000891
v 528.737599 682.729296 -2937.591371
v 528.737599 681.137846 -2938.655463
v 528.737599 684.209923 -2704.906678
v 528.737599 591.645798 -2704.906678
v 528.737599 591.645798 -2695.005384
v 528.737599 679.038196 -2695.005384
v 528.737599 681.137846 -2695.423940
v 528.737599 682.729296 -2696.486577
v 528.737599 683.792660 -2698.078997
v 528.737599 684.209923 -2700.177758
v 526.837575 678.882915 -2937.483054
v 526.837575 593.235065 -2937.483054
v 526.837575 593.235065 -2930.762073
v 526.837575 682.620736 -2930.762073
v 526.837575 682.620736 -2933.744990
v 526.837575 682.295705 -2935.380737
v 526.837575 681.583481 -2936.445799
v 526.837575 680.517772 -2937.158265
v 526.837575 682.620736 -2703.317492
v 526.837575 593.235065 -2703.317492
v 526.837575 593.235065 -2696.594571
v 526.837575 678.881298 -2696.594571
v 526.837575 680.517692 -2696.920815
v 526.837575 681.583400 -2697.632634
v 526.837575 682.295624 -2698.698828
v 526.837575 682.620736 -2700.334251
v 534.328359 688.465725 -2706.109804
v 534.328359 585.988100 -2706.109804
v 534.328359 585.988100 -2928.038308
v 534.328359 688.465725 -2928.038308
v 531.654592 641.937161 -2928.676569
v 537.184377 641.937161 -2928.676569
v 531.654592 641.937161 -2705.240521
v 537.184377 641.937161 -2705.240521
v 531.654592 638.275404 -2705.240521
v 537.184377 638.275404 -2705.240521
v 531.654592 638.275404 -2928.676569
v 537.184377 638.275404 -2928.676569
v 531.654592 689.563606 -2760.175283
v 537.184377 689.563606 -2760.175283
v 531.654592 588.135684 -2760.175283
v 537.184377 588.135684 -2760.175283
v 531.654592 588.135684 -2763.837040
v 537.184377 588.135684 -2763.837040
v 531.654592 689.563606 -2763.837040
v 537.184377 689.563606 -2763.837040
v 531.654592 689.563606 -2815.127666
v 537.184377 689.563606 -2815.127666
v 531.654592 588.135684 -2815.127666
v 537.184377 588.135684 -2815.127666
v 531.654592 588.135684 -2818.789423
v 537.184377 588.135684 -2818.789423
v 531.654592 689.563606 -2818.789423
v 537.184377 689.563606 -2818.789423
v 531.654592 689.563606 -2870.080050
v 537.184377 689.563606 -2870.080050
v 531.654592 588.135684 -2870.080050
v 537.184377 588.135684 -2870.080050
v 531.654592 588.135684 -2873.741807
v 537.184377 588.135684 -2873.741807
v 531.654592 689.563606 -2873.741807
v 537.184377 689.563606 -2873.741807
v 534.328359 744.009487 -2880.411863
v 534.328359 710.354383 -2880.411863
v 534.328359 707.850566 -2938.077504
v 534.328359 743.540814 -2935.014399
v 534.328359 743.537500 -2817.588723
v 534.328359 710.354383 -2817.588723
v 534.328359 710.354383 -2872.775038
v 534.328359 743.537500 -2872.775038
v 534.328359 743.537500 -2757.664756
v 534.328359 710.354383 -2757.664756
v 534.328359 710.354383 -2812.851072
v 534.328359 743.537500 -2812.851072
v 534.328359 743.632641 -2753.132584
v 534.328359 710.354383 -2753.132584
v 534.328359 707.850566 -2695.421677
v 534.328359 743.164049 -2698.484781
vt 0.148298 0.731946
vt 0.139655 0.731947
vt 0.139644 0.661687
vt 0.148287 0.661686
vt 0.163884 0.732368
vt 0.155241 0.732369
vt 0.155230 0.662109
vt 0.163873 0.662108
vt 0.175135 0.662648
vt 0.183778 0.662647
vt 0.183789 0.732907
vt 0.175146 0.732908
vt 0.200462 0.663334
vt 0.209105 0.663332
vt 0.209116 0.733592
vt 0.200473 0.733593
vt 0.213426 0.663332
vt 0.213437 0.733591
vt 0.170825 0.732909
vt 0.170814 0.662649
vt 0.196152 0.733594
vt 0.196141 0.663334
vt 0.188099 0.662646
vt 0.188110 0.732906
vt 0.266120 0.379125
vt 0.257476 0.379127
vt 0.257465 0.308867
vt 0.266109 0.308865
vt 0.281711 0.379284
vt 0.273067 0.379286
vt 0.273056 0.309026
vt 0.281700 0.309024
vt 0.292968 0.309229
vt 0.301611 0.309227
vt 0.301622 0.379487
vt 0.292979 0.379489
vt 0.317584 0.379907
vt 0.326227 0.379906
vt 0.326238 0.450166
vt 0.317595 0.450167
vt 0.330549 0.379905
vt 0.330560 0.450165
vt 0.288658 0.379489
vt 0.288647 0.309229
vt 0.313275 0.450168
vt 0.313264 0.379908
vt 0.305932 0.309227
vt 0.305943 0.379487
vt 0.221600 0.662657
vt 0.237869 0.662655
vt 0.237879 0.725975
vt 0.221610 0.725978
vt 0.999849 0.000202
vt 0.999846 0.016472
vt 0.866795 0.016454
vt 0.866797 0.000185
vt 0.244978 0.663290
vt 0.261248 0.663288
vt 0.261258 0.726608
vt 0.244988 0.726611
vt 0.959467 0.023779
vt 0.959465 0.040048
vt 0.520463 0.039991
vt 0.520466 0.023722
vt 0.480276 0.023717
vt 0.480274 0.039986
vt 0.999656 0.023784
vt 0.999653 0.040053
vt 0.996571 0.428887
vt 0.960134 0.465315
vt 0.954608 0.451970
vt 0.983227 0.423358
vt 0.526443 0.465259
vt 0.531972 0.451915
vt 0.490015 0.428822
vt 0.503361 0.423296
vt 0.490022 0.374569
vt 0.503365 0.387915
vt 0.616661 0.374585
vt 0.623332 0.387931
vt 0.996578 0.374634
vt 0.983231 0.387977
vt 0.634590 0.653387
vt 0.634588 0.673253
vt 0.514620 0.673238
vt 0.514623 0.653371
vt 0.437906 0.622314
vt 0.437912 0.657694
vt 0.418045 0.657697
vt 0.418040 0.622317
vt 0.543012 0.700526
vt 0.514397 0.700522
vt 0.514400 0.680656
vt 0.543015 0.680659
vt 0.965648 0.700580
vt 0.965651 0.680714
vt 0.994264 0.700584
vt 0.994266 0.680718
vt 0.107182 0.778923
vt 0.071801 0.778918
vt 0.071804 0.759052
vt 0.107185 0.759057
vt 0.743298 0.387946
vt 0.743300 0.374601
vt 0.869939 0.374618
vt 0.863265 0.387962
vt 0.874523 0.653418
vt 0.874521 0.673284
vt 0.754554 0.673269
vt 0.754556 0.653402
vt 0.740159 0.000169
vt 0.740157 0.016438
vt 0.613518 0.016422
vt 0.613520 0.000152
vt 0.994487 0.673300
vt 0.994489 0.653433
vt 0.480467 0.016405
vt 0.480469 0.000135
vt 0.268492 0.718004
vt 0.268483 0.663751
vt 0.271956 0.663750
vt 0.271965 0.718003
vt 0.869400 0.472063
vt 0.996039 0.472080
vt 0.996038 0.475552
vt 0.869399 0.475536
vt 0.278233 0.718267
vt 0.278224 0.664015
vt 0.281697 0.664014
vt 0.281706 0.718267
vt 0.525836 0.481763
vt 0.959527 0.481819
vt 0.959526 0.485292
vt 0.525835 0.485236
vt 0.489404 0.481759
vt 0.489403 0.485232
vt 0.995959 0.481824
vt 0.995959 0.485297
vt 0.616122 0.472031
vt 0.742761 0.472047
vt 0.742761 0.475520
vt 0.616122 0.475503
vt 0.489483 0.472014
vt 0.489483 0.475487
vt 0.992805 0.107833
vt 0.992812 0.053580
vt 0.999225 0.047169
vt 0.999217 0.110489
vt 0.485348 0.164601
vt 0.485341 0.218854
vt 0.478928 0.221509
vt 0.478936 0.158189
vt 0.866172 0.053564
vt 0.866173 0.047152
vt 0.611987 0.164618
vt 0.611988 0.158206
vt 0.486256 0.053515
vt 0.486249 0.107767
vt 0.479837 0.110422
vt 0.479846 0.047102
vt 0.991896 0.218920
vt 0.991903 0.164667
vt 0.998316 0.158256
vt 0.998308 0.221576
vt 0.522677 0.144204
vt 0.956368 0.144260
vt 0.959022 0.150673
vt 0.520020 0.150616
vt 0.521768 0.255291
vt 0.955459 0.255347
vt 0.958114 0.261760
vt 0.519112 0.261703
vt 0.739534 0.053548
vt 0.612895 0.053531
vt 0.612896 0.047119
vt 0.739535 0.047136
vt 0.865264 0.164650
vt 0.738625 0.164634
vt 0.738626 0.158222
vt 0.865265 0.158239
vt 0.993832 0.563722
vt 0.958746 0.598799
vt 0.954175 0.587760
vt 0.982794 0.559148
vt 0.526965 0.598743
vt 0.531539 0.587706
vt 0.491888 0.563657
vt 0.502928 0.559087
vt 0.491895 0.512666
vt 0.502932 0.523706
vt 0.862832 0.523752
vt 0.868418 0.512583
vt 0.993838 0.512731
vt 0.982799 0.523768
vt 0.622898 0.523721
vt 0.617315 0.512550
vt 0.742867 0.512698
vt 0.742866 0.523737
vt 0.288910 0.672554
vt 0.288918 0.726806
vt 0.287752 0.726807
vt 0.287743 0.672554
vt 0.995883 0.492735
vt 0.869244 0.492594
vt 0.869244 0.491552
vt 0.995883 0.491568
vt 0.298647 0.672817
vt 0.298656 0.727070
vt 0.297489 0.727070
vt 0.297481 0.672818
vt 0.959370 0.502475
vt 0.525679 0.502419
vt 0.525680 0.501252
vt 0.959370 0.501308
vt 0.489248 0.502414
vt 0.489248 0.501248
vt 0.995803 0.502480
vt 0.995803 0.501313
vt 0.742605 0.492703
vt 0.615966 0.492562
vt 0.615966 0.491519
vt 0.742605 0.491536
vt 0.489327 0.492670
vt 0.489327 0.491503
vt 0.995469 0.511100
vt 0.995462 0.564398
vt 0.290549 0.726131
vt 0.290541 0.672833
vt 0.995207 0.494366
vt 0.868925 0.494313
vt 0.869187 0.511045
vt 0.490265 0.511035
vt 0.616547 0.511013
vt 0.490003 0.494301
vt 0.616284 0.494281
vt 0.300278 0.673493
vt 0.300287 0.726790
vt 0.490258 0.564333
vt 0.959421 0.600430
vt 0.489923 0.504045
vt 0.525960 0.504050
vt 0.526289 0.600374
vt 0.959091 0.504106
vt 0.995127 0.504110
vt 0.742605 0.494333
vt 0.742867 0.511068
vt 0.066411 0.731997
vt 0.057768 0.731999
vt 0.057757 0.661739
vt 0.066400 0.661737
vt 0.082301 0.721189
vt 0.073658 0.721190
vt 0.073647 0.650930
vt 0.082290 0.650929
vt 0.093309 0.660432
vt 0.101952 0.660431
vt 0.101963 0.730691
vt 0.093320 0.730692
vt 0.118636 0.661118
vt 0.127280 0.661117
vt 0.127291 0.731377
vt 0.118647 0.731378
vt 0.131600 0.661116
vt 0.131611 0.731376
vt 0.088999 0.730693
vt 0.088988 0.660433
vt 0.114326 0.731379
vt 0.114315 0.661119
vt 0.106273 0.660430
vt 0.106284 0.730690
vt 0.066965 0.934764
vt 0.066967 0.914898
vt 0.093352 0.914901
vt 0.093349 0.934767
vt 0.479839 0.289149
vt 0.479842 0.269283
vt 0.997632 0.269350
vt 0.997629 0.289216
vt 0.066742 0.962048
vt 0.066744 0.942182
vt 0.093129 0.942185
vt 0.093126 0.962052
vt 0.548531 0.996435
vt 0.548533 0.976568
vt 0.659364 0.976582
vt 0.659361 0.996449
vt 0.479600 0.301593
vt 0.516838 0.296572
vt 0.960150 0.296629
vt 0.997390 0.301660
vt 0.997386 0.328044
vt 0.479596 0.327978
vt 0.409816 0.650709
vt 0.409822 0.687947
vt 0.389956 0.687950
vt 0.389950 0.650712
vt 0.382541 0.649971
vt 0.382547 0.687211
vt 0.362681 0.687214
vt 0.362675 0.649974
vt 0.093894 0.641501
vt 0.074028 0.641504
vt 0.073999 0.460224
vt 0.093866 0.460221
vt 0.049298 0.476332
vt 0.069165 0.476329
vt 0.069193 0.657609
vt 0.049327 0.657612
vt 0.479273 0.340571
vt 0.516514 0.335550
vt 0.516958 0.342096
vt 0.485822 0.346293
vt 0.959826 0.335607
vt 0.959387 0.342153
vt 0.997063 0.340638
vt 0.990520 0.346358
vt 0.997060 0.367022
vt 0.990518 0.360477
vt 0.479270 0.366956
vt 0.485821 0.360412
vt 0.521363 0.609785
vt 0.521385 0.610729
vt 0.490620 0.610725
vt 0.490229 0.609780
vt 0.521567 0.627940
vt 0.521635 0.628884
vt 0.491740 0.632913
vt 0.490801 0.632088
vt 0.963891 0.628942
vt 0.993772 0.632978
vt 0.993771 0.644594
vt 0.491739 0.644529
vt 0.490229 0.608444
vt 0.521364 0.608448
vt 0.963793 0.608505
vt 0.963792 0.609841
vt 0.994927 0.608509
vt 0.994927 0.609846
vt 0.047720 0.871224
vt 0.061839 0.871225
vt 0.061839 0.872562
vt 0.047720 0.872560
vt 0.490149 0.618189
vt 0.994847 0.618254
vt 0.994847 0.619590
vt 0.490149 0.619525
vt 0.047789 0.862808
vt 0.061908 0.862810
vt 0.061908 0.864146
vt 0.047789 0.864145
vt 0.963947 0.627997
vt 0.963765 0.610786
vt 0.994717 0.632152
vt 0.994536 0.610790
vt 0.994715 0.645538
vt 0.048062 0.873504
vt 0.061447 0.873506
vt 0.490799 0.645473
vt 0.490539 0.620469
vt 0.994456 0.620534
vt 0.061565 0.865091
vt 0.048180 0.865089
vt 0.327245 0.716406
vt 0.307379 0.716409
vt 0.307372 0.673318
vt 0.327239 0.673315
vt 0.540493 0.966796
vt 0.429662 0.966781
vt 0.429668 0.923690
vt 0.540498 0.923705
vt 0.334669 0.673275
vt 0.354535 0.673272
vt 0.354542 0.716363
vt 0.334676 0.716366
vt 0.215474 0.785819
vt 0.215470 0.816354
vt 0.110918 0.816340
vt 0.110922 0.785806
vt 0.429972 0.917556
vt 0.429974 0.897690
vt 0.540805 0.897704
vt 0.540802 0.917571
vt 0.065847 0.880217
vt 0.065850 0.860350
vt 0.080378 0.860352
vt 0.080375 0.880219
vt 0.094022 0.833037
vt 0.094020 0.852903
vt 0.064968 0.852900
vt 0.064970 0.833033
vt 0.093576 0.887582
vt 0.093573 0.907449
vt 0.079046 0.907447
vt 0.079048 0.887580
vt 0.065187 0.825615
vt 0.065189 0.805749
vt 0.094245 0.805753
vt 0.094243 0.825619
vt 0.093895 0.647060
vt 0.074029 0.647064
vt 0.093796 0.880220
vt 0.090645 0.880220
vt 0.090648 0.860354
vt 0.093799 0.860354
vt 0.085935 0.880219
vt 0.085938 0.860353
vt 0.049298 0.470772
vt 0.069164 0.470769
vt 0.065628 0.887579
vt 0.068774 0.887579
vt 0.068772 0.907445
vt 0.065625 0.907445
vt 0.073490 0.887580
vt 0.073487 0.907446
vt 0.264789 0.644408
vt 0.264762 0.471637
vt 0.278319 0.471635
vt 0.278347 0.651946
vt 0.272330 0.651947
vt 0.269031 0.651292
vt 0.266882 0.649855
vt 0.265444 0.647706
vt 0.221838 0.658913
vt 0.221807 0.463107
vt 0.250859 0.463102
vt 0.250887 0.644383
vt 0.249785 0.649942
vt 0.246634 0.654655
vt 0.241925 0.657805
vt 0.236365 0.658911
vt 0.186623 0.644586
vt 0.186594 0.463306
vt 0.215650 0.463301
vt 0.215681 0.659107
vt 0.201154 0.659109
vt 0.195595 0.658005
vt 0.190879 0.654857
vt 0.187733 0.650145
vt 0.159221 0.650580
vt 0.159193 0.470270
vt 0.172754 0.470267
vt 0.172781 0.643035
vt 0.172123 0.646336
vt 0.170688 0.648486
vt 0.168538 0.649923
vt 0.165239 0.650580
vt 0.318841 0.923676
vt 0.318835 0.966767
vt 0.208007 0.966753
vt 0.208013 0.923662
vt 0.770189 0.996463
vt 0.770191 0.976597
vt 0.881019 0.976611
vt 0.881016 0.996477
vt 0.437129 0.785848
vt 0.437125 0.816382
vt 0.326297 0.816368
vt 0.326301 0.785833
vt 0.208317 0.917528
vt 0.208319 0.897661
vt 0.319147 0.897676
vt 0.319144 0.917542
vt 0.097181 0.966739
vt 0.097186 0.923647
vt 0.991846 0.976625
vt 0.991843 0.996492
vt 0.541673 0.816396
vt 0.541677 0.785861
vt 0.097493 0.897647
vt 0.097490 0.917513
vt 0.126690 0.657447
vt 0.126659 0.461641
vt 0.146525 0.461637
vt 0.146556 0.657444
vt 0.120533 0.460934
vt 0.120564 0.656740
vt 0.100697 0.656743
vt 0.100666 0.460937
vt 0.541015 0.891570
vt 0.097703 0.891512
vt 0.097705 0.871646
vt 0.541018 0.871703
vt 0.208840 0.865527
vt 0.098009 0.865512
vt 0.104289 0.859235
vt 0.208841 0.859249
vt 0.098015 0.822421
vt 0.104293 0.828700
vt 0.208845 0.822436
vt 0.208844 0.828714
vt 0.430495 0.865555
vt 0.319667 0.865541
vt 0.319668 0.859263
vt 0.430495 0.859277
vt 0.319673 0.822450
vt 0.430500 0.822464
vt 0.430499 0.828743
vt 0.319672 0.828728
vt 0.541321 0.865569
vt 0.535044 0.859291
vt 0.541327 0.822479
vt 0.535048 0.828756
vt 0.215656 0.779685
vt 0.111104 0.779671
vt 0.111104 0.777534
vt 0.215656 0.777547
vt 0.107032 0.788498
vt 0.076498 0.788494
vt 0.076498 0.786357
vt 0.107033 0.786361
vt 0.541927 0.771454
vt 0.437375 0.771441
vt 0.437375 0.769304
vt 0.541927 0.769317
vt 0.437311 0.779713
vt 0.326483 0.779699
vt 0.326484 0.777562
vt 0.437311 0.777576
vt 0.326547 0.771427
vt 0.215720 0.771412
vt 0.215720 0.769275
vt 0.326548 0.769289
vt 0.541859 0.779727
vt 0.541860 0.777590
vt 0.111171 0.771399
vt 0.111172 0.769262
vt 0.106953 0.798243
vt 0.076418 0.798239
vt 0.076418 0.796101
vt 0.106953 0.796105
vt 0.257042 0.645171
vt 0.257013 0.463891
vt 0.261555 0.468432
vt 0.261583 0.644724
vt 0.286065 0.463886
vt 0.281524 0.468429
vt 0.286096 0.659692
vt 0.281554 0.655151
vt 0.271568 0.659695
vt 0.272015 0.655153
vt 0.266008 0.658590
vt 0.267780 0.654312
vt 0.261298 0.655442
vt 0.264571 0.652167
vt 0.258146 0.650730
vt 0.262424 0.648957
vt 0.151474 0.658329
vt 0.151444 0.462523
vt 0.155986 0.467064
vt 0.156016 0.653787
vt 0.180500 0.462518
vt 0.175960 0.467061
vt 0.180529 0.643799
vt 0.175987 0.643351
vt 0.179421 0.649358
vt 0.175143 0.647587
vt 0.176275 0.654071
vt 0.173000 0.650797
vt 0.171561 0.657221
vt 0.169789 0.652943
vt 0.166002 0.658327
vt 0.165555 0.653785
vt 0.545137 0.969360
vt 0.545164 0.762639
vt 0.992843 0.762697
vt 0.992817 0.969418
vt 0.994092 0.715506
vt 0.543371 0.715448
vt 0.543372 0.708062
vt 0.994093 0.708120
vt 0.993980 0.729149
vt 0.543259 0.729090
vt 0.543260 0.721704
vt 0.993981 0.721762
vt 0.993868 0.742791
vt 0.543148 0.742732
vt 0.543149 0.735346
vt 0.993869 0.735404
vt 0.543037 0.748988
vt 0.993758 0.749046
vt 0.993757 0.756433
vt 0.543036 0.756375
vt 0.341247 0.464441
vt 0.341279 0.669044
vt 0.333893 0.669046
vt 0.333860 0.464443
vt 0.327730 0.464075
vt 0.327762 0.668678
vt 0.320376 0.668680
vt 0.320343 0.464077
vt 0.306838 0.669095
vt 0.306806 0.464492
vt 0.314192 0.464491
vt 0.314224 0.669093
vt 0.293321 0.668729
vt 0.293289 0.464126
vt 0.300675 0.464125
vt 0.300708 0.668727
vt 0.395966 0.441864
vt 0.395998 0.646467
vt 0.388611 0.646468
vt 0.388579 0.441865
vt 0.382449 0.441498
vt 0.382481 0.646101
vt 0.375094 0.646102
vt 0.375062 0.441499
vt 0.361577 0.645736
vt 0.361545 0.441133
vt 0.368932 0.441132
vt 0.368964 0.645735
vt 0.348060 0.645370
vt 0.348028 0.440767
vt 0.355415 0.440766
vt 0.355447 0.645369
vt 0.450822 0.414194
vt 0.450854 0.618797
vt 0.443468 0.618798
vt 0.443435 0.414195
vt 0.437305 0.413828
vt 0.437337 0.618431
vt 0.429951 0.618432
vt 0.429918 0.413829
vt 0.416434 0.618065
vt 0.416402 0.413463
vt 0.423788 0.413461
vt 0.423820 0.618064
vt 0.402917 0.617700
vt 0.402885 0.413097
vt 0.410271 0.413095
vt 0.410304 0.617698
vt 0.366002 0.120697
vt 0.359170 0.048760
vt 0.475536 0.052755
vt 0.476152 0.120642
vt 0.244033 0.137753
vt 0.244041 0.070816
vt 0.355364 0.070830
vt 0.355356 0.137768
vt 0.242729 0.285868
vt 0.242738 0.218930
vt 0.354061 0.218945
vt 0.354052 0.285882
vt 0.358776 0.356357
vt 0.359351 0.289229
vt 0.475805 0.285177
vt 0.469016 0.356356
vn -0.000000 0.000000 1.000000
vn -0.000000 0.000000 1.000000
vn -0.000000 0.000000 1.000000
vn -0.000000 0.000000 1.000000
vn 0.000000 0.000000 -1.000000
vn 0.000000 0.000000 -1.000000
vn 0.000000 0.000000 -1.000000
vn 0.000000 0.000000 -1.000000
vn 1.000000 0.000000 0.000000
vn 1.000000 0.000000 0.000000
vn 1.000000 0.000000 0.000000
vn 1.000000 0.000000 0.000000
vn -1.000000 0.000000 -0.000000
vn -1.000000 0.000000 -0.000000
vn -1.000000 0.000000 -0.000000
vn -1.000000 0.000000 -0.000000
vn -0.552116 0.000000 0.833767
vn -0.552116 0.000000 0.833767
vn -0.552116 0.000000 0.833767
vn -0.552116 0.000000 0.833767
vn 0.552116 0.000000 0.833767
vn 0.552116 0.000000 0.833767
vn 0.552116 0.000000 0.833767
vn 0.552116 0.000000 0.833767
vn -0.552116 0.000000 -0.833767
vn -0.552116 0.000000 -0.833767
vn -0.552116 0.000000 -0.833767
vn -0.552116 0.000000 -0.833767
vn 0.552116 0.000000 -0.833767
vn 0.552116 0.000000 -0.833767
vn 0.552116 0.000000 -0.833767
vn 0.552116 0.000000 -0.833767
vn -0.000000 0.000000 1.000000
vn -0.000000 0.000000 1.000000
vn -0.000000 0.000000 1.000000
vn -0.000000 0.000000 1.000000
vn 0.000000 0.000000 -1.000000
vn 0.000000 0.000000 -1.000000
vn 0.000000 0.000000 -1.000000
vn 0.000000 0.000000 -1.000000
vn 1.000000 0.000000 0.000000
vn 1.000000 0.000000 0.000000
vn 1.000000 0.000000 0.000000
vn 1.000000 0.000000 0.000000
vn -1.000000 0.000000 -0.000000
vn -1.000000 0.000000 -0.000000
vn -1.000000 0.000000 -0.000000
vn -1.000000 0.000000 -0.000000
vn -0.552151 0.000000 0.833744
vn -0.552151 0.000000 0.833744
vn -0.552151 0.000000 0.833744
vn -0.552151 0.000000 0.833744
vn 0.552151 0.000000 0.833744
vn 0.552151 0.000000 0.833744
vn 0.552151 0.000000 0.833744
vn 0.552151 0.000000 0.833744
vn -0.552081 0.000000 -0.833791
vn -0.552081 0.000000 -0.833791
vn -0.552081 0.000000 -0.833791
vn -0.552081 0.000000 -0.833791
vn 0.552081 0.000000 -0.833791
vn 0.552081 0.000000 -0.833791
vn 0.552081 0.000000 -0.833791
vn 0.552081 0.000000 -0.833791
vn -0.000000 0.000000 1.000000
vn -0.000000 0.000000 1.000000
vn -0.000000 0.000000 1.000000
vn -0.000000 0.000000 1.000000
vn 0.000000 -1.000000 0.000000
vn 0.000000 -1.000000 0.000000
vn 0.000000 -1.000000 0.000000
vn 0.000000 -1.000000 0.000000
vn 0.000000 0.000000 -1.000000
vn 0.000000 0.000000 -1.000000
vn 0.000000 0.000000 -1.000000
vn 0.000000 0.000000 -1.000000
vn 0.000000 1.000000 -0.000000
vn 0.000000 1.000000 -0.000000
vn 0.000000 1.000000 -0.000000
vn 0.000000 1.000000 -0.000000
vn -0.000000 0.707109 0.707105
vn -0.000000 0.707109 0.707105
vn -0.000000 0.707109 0.707105
vn -0.000000 0.707109 0.707105
vn 0.000000 0.707109 -0.707105
vn 0.000000 0.707109 -0.707105
vn 0.000000 0.707109 -0.707105
vn 0.000000 0.707109 -0.707105
vn 1.000000 -0.000001 0.000000
vn 1.000000 0.000001 0.000000
vn 1.000000 0.000001 0.000000
vn 1.000000 -0.000001 0.000000
vn 1.000000 0.000002 0.000000
vn 1.000000 0.000002 0.000000
vn 1.000000 0.000002 0.000000
vn 1.000000 0.000002 0.000000
vn 1.000000 -0.000002 0.000000
vn 1.000000 -0.000002 0.000000
vn 1.000000 -0.000002 0.000000
vn 1.000000 -0.000001 0.000000
vn 1.000000 0.000000 0.000000
vn 1.000000 0.000000 0.000000
vn 0.000000 1.000000 -0.000000
vn 0.000000 1.000000 -0.000000
vn 0.000000 1.000000 -0.000000
vn 0.000000 1.000000 -0.000000
vn -0.000000 0.000000 1.000000
vn -0.000000 0.000000 1.000000
vn -0.000000 0.000000 1.000000
vn -0.000000 0.000000 1.000000
vn -0.000000 -0.707107 0.707107
vn -0.000000 -0.707107 0.707107
vn -0.000000 -0.707107 0.707107
vn -0.000000 -0.707107 0.707107
vn 0.000000 -1.000000 0.000000
vn 0.000000 -1.000000 0.000000
vn 0.000000 -1.000000 0.000000
vn 0.000000 -1.000000 0.000000
vn 0.000000 -0.707107 -0.707107
vn 0.000000 -0.707107 -0.707107
vn 0.000000 -0.707107 -0.707107
vn 0.000000 -0.707107 -0.707107
vn 0.000000 0.000000 -1.000000
vn 0.000000 0.000000 -1.000000
vn 0.000000 0.000000 -1.000000
vn 0.000000 0.000000 -1.000000
vn 1.000000 0.000000 0.000000
vn 1.000000 0.000000 0.000000
vn 1.000000 0.000000 0.000000
vn 1.000000 0.000000 0.000000
vn 0.000000 1.000000 -0.000000
vn 0.000000 1.000000 -0.000000
vn 0.000000 1.000000 -0.000000
vn 0.000000 1.000000 -0.000000
vn 0.000000 -1.000000 0.000000
vn 0.000000 -1.000000 0.000000
vn 0.000000 -1.000000 0.000000
vn 0.000000 -1.000000 0.000000
vn 0.000000 1.000000 -0.000000
vn 0.000000 1.000000 -0.000000
vn 0.000000 -1.000000 0.000000
vn 0.000000 -1.000000 0.000000
vn -0.000000 0.000000 1.000000
vn -0.000000 0.000000 1.000000
vn -0.000000 0.000000 1.000000
vn -0.000000 0.000000 1.000000
vn 0.000000 -1.000000 0.000000
vn 0.000000 -1.000000 0.000000
vn 0.000000 -1.000000 0.000000
vn 0.000000 -1.000000 0.000000
vn 0.000000 0.000000 -1.000000
vn 0.000000 0.000000 -1.000000
vn 0.000000 0.000000 -1.000000
vn 0.000000 0.000000 -1.000000
vn 0.000000 1.000000 -0.000000
vn 0.000000 1.000000 -0.000000
vn 0.000000 1.000000 -0.000000
vn 0.000000 1.000000 -0.000000
vn -0.000000 0.707107 0.707107
vn -0.000000 0.707107 0.707107
vn -0.000000 0.707107 0.707107
vn -0.000000 0.707107 0.707107
vn 0.000000 0.707107 -0.707107
vn 0.000000 0.707107 -0.707107
vn 0.000000 0.707107 -0.707107
vn 0.000000 0.707107 -0.707107
vn 0.000000 -1.000000 0.000000
vn 0.000000 -1.000000 0.000000
vn 0.000000 -1.000000 0.000000
vn 0.000000 -1.000000 0.000000
vn 0.000000 -1.000000 0.000000
vn 0.000000 -1.000000 0.000000
vn -0.939553 -0.125671 -0.318508
vn -0.958349 0.260174 -0.117794
vn -0.958350 0.260174 -0.117794
vn -0.939553 -0.125669 -0.318509
vn 0.958348 0.260180 -0.117796
vn 0.939552 -0.125671 -0.318511
vn 0.939552 -0.125668 -0.318512
vn 0.958348 0.260180 -0.117796
vn -0.930263 0.366892 -0.000000
vn -0.930263 0.366892 -0.000000
vn 0.930262 0.366896 0.000000
vn 0.930262 0.366896 0.000000
vn -0.958350 0.260175 0.117792
vn -0.939553 -0.125674 0.318505
vn -0.939553 -0.125671 0.318506
vn -0.958350 0.260175 0.117792
vn 0.939553 -0.125676 0.318506
vn 0.958348 0.260181 0.117792
vn 0.958348 0.260181 0.117792
vn 0.939553 -0.125674 0.318507
vn -0.933885 -0.356415 0.028767
vn -0.933885 -0.356416 -0.028767
vn -0.933884 -0.356417 -0.028764
vn -0.933885 -0.356416 0.028765
vn 0.933888 -0.356407 -0.028767
vn 0.933888 -0.356407 0.028767
vn 0.933888 -0.356408 0.028765
vn 0.933888 -0.356408 -0.028764
vn -0.930263 0.366892 -0.000000
vn -0.930264 0.366890 -0.000000
vn -0.930264 0.366890 -0.000000
vn -0.930263 0.366892 -0.000000
vn 0.930263 0.366894 0.000000
vn 0.930263 0.366892 0.000000
vn 0.930263 0.366892 0.000000
vn 0.930263 0.366894 0.000000
vn -0.992020 0.047369 0.116846
vn -0.992768 0.119706 0.009096
vn -1.000000 -0.000006 -0.000000
vn -1.000000 -0.000004 -0.000000
vn -0.992768 0.119707 -0.009097
vn -1.000000 -0.000006 -0.000000
vn -0.992020 0.047372 -0.116846
vn -1.000000 -0.000003 -0.000000
vn -0.987981 -0.143329 -0.057883
vn -1.000000 -0.000004 -0.000000
vn -1.000000 -0.000003 -0.000000
vn -0.996447 -0.084222 -0.000008
vn -0.987980 -0.143332 0.057885
vn -1.000000 -0.000006 -0.000000
vn -1.000000 -0.000002 -0.000000
vn -0.996447 -0.084221 0.000008
vn -0.996463 -0.084038 0.000000
vn -1.000000 0.000000 -0.000000
vn -0.150484 0.000000 0.988613
vn -0.139956 0.000000 0.990158
vn -0.000000 0.000000 1.000000
vn -0.000000 0.000000 1.000000
vn -0.138167 -0.990409 -0.000052
vn -0.154286 -0.988026 -0.000006
vn 0.000000 -1.000000 0.000000
vn 0.000000 -1.000000 0.000000
vn -0.139851 0.000000 -0.990173
vn -0.150372 0.000000 -0.988630
vn 0.000000 0.000000 -1.000000
vn 0.000000 0.000000 -1.000000
vn -0.150983 0.988536 -0.000000
vn -0.150983 0.988536 -0.000000
vn 0.000000 1.000000 -0.000000
vn 0.000000 1.000000 -0.000000
vn -0.150691 0.699031 0.699034
vn -0.150691 0.699031 0.699034
vn -0.000000 0.707096 0.707118
vn -0.000000 0.707096 0.707118
vn -0.150749 0.699025 -0.699027
vn -0.150749 0.699025 -0.699027
vn 0.000000 0.707096 -0.707118
vn 0.000000 0.707096 -0.707118
vn -0.154436 -0.988003 -0.000000
vn -0.154286 -0.988026 0.000006
vn 0.000000 -1.000000 0.000000
vn 0.000000 -1.000000 0.000000
vn -0.138167 -0.990409 0.000052
vn 0.000000 -1.000000 0.000000
vn -0.847759 0.000000 0.530381
vn -0.865795 0.188006 0.463737
vn -0.264553 0.000000 0.964371
vn -0.264553 0.000000 0.964371
vn -0.251069 -0.967969 -0.000094
vn -0.251086 -0.967965 0.000010
vn -0.834149 -0.551540 0.000191
vn -0.834126 -0.551573 0.000052
vn -0.834149 -0.551539 -0.000191
vn -0.834127 -0.551573 -0.000052
vn -0.251070 -0.967969 0.000094
vn -0.251086 -0.967965 -0.000010
vn -0.264364 0.000000 -0.964423
vn -0.264364 0.000000 -0.964423
vn -0.847798 0.000000 -0.530319
vn -0.865795 0.188014 -0.463734
vn -0.854406 0.518113 0.039365
vn -0.264519 0.681926 0.681914
vn -0.264519 0.681926 0.681914
vn -0.854402 0.518119 -0.039367
vn -0.264486 0.964390 -0.000000
vn -0.264486 0.964390 -0.000000
vn -0.264618 0.681907 -0.681894
vn -0.264618 0.681907 -0.681894
vn -0.251099 -0.967961 -0.000000
vn -0.834087 -0.551632 0.000000
vn -0.000000 0.000000 1.000000
vn -0.000000 0.000000 1.000000
vn -0.000000 0.000000 1.000000
vn -0.000000 0.000000 1.000000
vn 0.000000 0.000000 -1.000000
vn 0.000000 0.000000 -1.000000
vn 0.000000 0.000000 -1.000000
vn 0.000000 0.000000 -1.000000
vn 1.000000 0.000000 0.000000
vn 1.000000 0.000000 0.000000
vn 1.000000 0.000000 0.000000
vn 1.000000 0.000000 0.000000
vn -1.000000 0.000000 -0.000000
vn -1.000000 0.000000 -0.000000
vn -1.000000 0.000000 -0.000000
vn -1.000000 0.000000 -0.000000
vn -0.552116 0.000000 0.833767
vn -0.552116 0.000000 0.833767
vn -0.552116 0.000000 0.833767
vn -0.552116 0.000000 0.833767
vn 0.552116 0.000000 0.833767
vn 0.552116 0.000000 0.833767
vn 0.552116 0.000000 0.833767
vn 0.552116 0.000000 0.833767
vn -0.552116 0.000000 -0.833767
vn -0.552116 0.000000 -0.833767
vn -0.552116 0.000000 -0.833767
vn -0.552116 0.000000 -0.833767
vn 0.552116 0.000000 -0.833767
vn 0.552116 0.000000 -0.833767
vn 0.552116 0.000000 -0.833767
vn 0.552116 0.000000 -0.833767
vn -0.000000 0.000000 1.000000
vn -0.000000 0.000000 1.000000
vn -0.000000 0.000000 1.000000
vn -0.000000 0.000000 1.000000
vn 0.000000 1.000000 -0.000000
vn 0.000000 1.000000 -0.000000
vn 0.000000 1.000000 -0.000000
vn 0.000000 1.000000 -0.000000
vn 0.000000 0.000000 -1.000000
vn 0.000000 0.000000 -1.000000
vn 0.000000 0.000000 -1.000000
vn 0.000000 0.000000 -1.000000
vn 0.000000 -1.000000 0.000000
vn 0.000000 -1.000000 0.000000
vn 0.000000 -1.000000 0.000000
vn 0.000000 -1.000000 0.000000
vn 1.000000 0.000000 0.000000
vn 1.000000 0.000000 0.000000
vn 1.000000 0.000000 0.000000
vn 1.000000 0.000000 0.000000
vn 1.000000 0.000000 0.000000
vn 1.000000 0.000000 0.000000
vn -0.000000 -0.991015 0.133754
vn -0.000000 -0.991015 0.133754
vn -0.000000 -0.991015 0.133754
vn -0.000000 -0.991015 0.133754
vn 0.000000 -0.991016 -0.133745
vn 0.000000 -0.991016 -0.133745
vn 0.000000 -0.991016 -0.133745
vn 0.000000 -0.991016 -0.133745
vn 0.000000 0.005903 -0.999983
vn 0.000000 0.005903 -0.999983
vn 0.000000 0.000000 -1.000000
vn 0.000000 0.000000 -1.000000
vn -0.000000 0.005934 0.999982
vn -0.000000 0.005934 0.999982
vn -0.000000 0.000000 1.000000
vn -0.000000 0.000000 1.000000
vn -1.000000 0.000006 -0.000002
vn -1.000000 -0.000008 -0.000000
vn -1.000000 -0.000008 -0.000000
vn -1.000000 0.000006 -0.000002
vn -1.000000 -0.000009 0.000000
vn -1.000000 -0.000009 0.000000
vn -1.000000 0.000004 0.000002
vn -1.000000 0.000004 0.000002
vn -1.000000 -0.000007 -0.000000
vn -1.000000 -0.000007 -0.000000
vn -1.000000 -0.000007 -0.000000
vn -1.000000 -0.000007 -0.000000
vn -0.112024 -0.993667 -0.008777
vn -0.264790 -0.964268 -0.008549
vn -0.264471 -0.955733 -0.128957
vn -0.097755 -0.986272 -0.133082
vn -0.847964 -0.530034 -0.004612
vn -0.999819 -0.019031 -0.000164
vn -0.999994 -0.003022 -0.001661
vn -0.893455 -0.394370 -0.214966
vn -0.999821 -0.018909 0.000165
vn -0.999994 -0.003025 0.001660
vn -0.998658 0.051778 0.001286
vn -0.998661 0.051722 -0.001288
vn 0.000000 -0.991018 -0.133725
vn 0.000000 -0.999961 -0.008872
vn -0.000000 -0.999961 0.008871
vn -0.111833 -0.993688 0.008800
vn -0.000000 -0.991019 0.133721
vn -0.097851 -0.986264 0.133072
vn -0.000000 0.000000 1.000000
vn -0.000000 0.000000 1.000000
vn -0.094335 0.000000 0.995540
vn -0.096476 0.000000 0.995335
vn 0.000000 1.000000 -0.000000
vn 0.000000 1.000000 -0.000000
vn -0.096000 0.995381 -0.000000
vn -0.096000 0.995381 -0.000000
vn 0.000000 0.000000 -1.000000
vn 0.000000 0.000000 -1.000000
vn -0.096476 0.000000 -0.995335
vn -0.094335 0.000000 -0.995540
vn -0.847960 -0.530041 0.004542
vn -0.264800 -0.964266 0.008497
vn -0.893834 -0.393303 0.215345
vn -0.264644 -0.955688 0.128934
vn -0.847950 0.000000 0.530077
vn -0.264489 0.000000 0.964389
vn -0.264489 0.000000 0.964389
vn -0.847768 0.530367 -0.000000
vn -0.847768 0.530367 -0.000000
vn -0.264687 0.964334 -0.000000
vn -0.264687 0.964334 -0.000000
vn -0.264489 0.000000 -0.964389
vn -0.264489 0.000000 -0.964389
vn -0.846677 0.000000 -0.532107
vn 0.000000 0.000000 -1.000000
vn 0.000000 0.000000 -1.000000
vn 0.000000 0.000000 -1.000000
vn 0.000000 0.000000 -1.000000
vn 1.000000 0.000000 0.000000
vn 1.000000 0.000000 0.000000
vn 1.000000 0.000000 0.000000
vn 1.000000 0.000000 0.000000
vn -0.000000 0.000000 1.000000
vn -0.000000 0.000000 1.000000
vn -0.000000 0.000000 1.000000
vn -0.000000 0.000000 1.000000
vn -1.000000 0.000000 -0.000000
vn -1.000000 0.000000 -0.000000
vn -1.000000 0.000000 -0.000000
vn -1.000000 0.000000 -0.000000
vn 0.000000 1.000000 -0.000000
vn 0.000000 1.000000 -0.000000
vn 0.000000 1.000000 -0.000000
vn 0.000000 1.000000 -0.000000
vn 0.000000 1.000000 -0.000000
vn 0.000000 1.000000 -0.000000
vn 0.000000 0.998490 -0.054925
vn 0.000000 0.998490 -0.054925
vn 0.000000 -1.000000 0.000000
vn 0.000000 -1.000000 0.000000
vn 0.000000 -1.000000 0.000000
vn 0.000000 -1.000000 0.000000
vn 0.000000 1.000000 -0.000000
vn 0.000000 1.000000 -0.000000
vn -0.000000 0.998490 0.054930
vn -0.000000 0.998490 0.054930
vn 0.000000 -1.000000 0.000000
vn 0.000000 -1.000000 0.000000
vn 0.000000 -1.000000 0.000000
vn 0.000000 -1.000000 0.000000
vn 0.000000 0.382681 -0.923881
vn 0.000000 0.382681 -0.923881
vn 0.000000 0.707098 -0.707115
vn 0.000000 0.707098 -0.707115
vn 0.000000 0.923860 -0.382730
vn 0.000000 0.923860 -0.382730
vn -0.000000 0.382680 0.923881
vn -0.000000 0.382680 0.923881
vn -0.000000 0.707098 0.707116
vn -0.000000 0.707098 0.707116
vn -0.000000 0.923920 0.382585
vn -0.000000 0.923920 0.382585
vn -1.000000 0.000000 -0.000000
vn -1.000000 0.000000 -0.000000
vn -1.000000 0.000000 -0.000000
vn -1.000000 0.000000 -0.000000
vn -1.000000 0.000000 -0.000000
vn -1.000000 0.000000 -0.000000
vn -1.000000 0.000000 -0.000000
vn -1.000000 0.000000 -0.000000
vn 1.000000 -0.000000 0.000000
vn 1.000000 -0.000000 0.000000
vn 1.000000 -0.000000 0.000000
vn 1.000000 -0.000000 0.000000
vn 1.000000 -0.000000 0.000000
vn 1.000000 -0.000000 0.000000
vn 1.000000 -0.000000 0.000000
vn 1.000000 -0.000000 0.000000
vn 1.000000 -0.000000 0.000000
vn 1.000000 -0.000000 0.000000
vn 1.000000 -0.000000 0.000000
vn 1.000000 -0.000000 0.000000
vn 1.000000 -0.000000 0.000000
vn 1.000000 -0.000000 0.000000
vn 1.000000 -0.000000 0.000000
vn 1.000000 -0.000000 0.000000
vn -1.000000 0.000000 -0.000000
vn -1.000000 0.000000 -0.000000
vn -1.000000 0.000000 -0.000000
vn -1.000000 0.000000 -0.000000
vn -1.000000 0.000000 -0.000000
vn -1.000000 0.000000 -0.000000
vn -1.000000 0.000000 -0.000000
vn -1.000000 0.000000 -0.000000
vn 1.000000 0.000000 0.000000
vn 1.000000 0.000000 0.000000
vn 1.000000 0.000000 0.000000
vn 1.000000 0.000000 0.000000
vn 0.000000 -1.000000 0.000000
vn 0.000000 -1.000000 0.000000
vn 0.000000 -1.000000 0.000000
vn 0.000000 -1.000000 0.000000
vn -1.000000 0.000000 -0.000000
vn -1.000000 0.000000 -0.000000
vn -1.000000 0.000000 -0.000000
vn -1.000000 0.000000 -0.000000
vn 0.000000 1.000000 -0.000000
vn 0.000000 1.000000 -0.000000
vn 0.000000 1.000000 -0.000000
vn 0.000000 1.000000 -0.000000
vn 1.000000 0.000000 0.000000
vn 1.000000 0.000000 0.000000
vn 0.000000 -1.000000 0.000000
vn 0.000000 -1.000000 0.000000
vn -1.000000 0.000000 -0.000000
vn -1.000000 0.000000 -0.000000
vn 0.000000 1.000000 -0.000000
vn 0.000000 1.000000 -0.000000
vn 0.000000 0.000000 -1.000000
vn 0.000000 0.000000 -1.000000
vn 0.000000 0.000000 -1.000000
vn 0.000000 0.000000 -1.000000
vn -0.000000 0.000000 1.000000
vn -0.000000 0.000000 1.000000
vn -0.000000 0.000000 1.000000
vn -0.000000 0.000000 1.000000
vn 0.000000 -1.000000 0.000000
vn 0.000000 -1.000000 0.000000
vn 0.000000 -1.000000 0.000000
vn 0.000000 -1.000000 0.000000
vn -1.000000 0.000008 -0.000000
vn -1.000000 0.000012 -0.000000
vn -1.000000 0.000012 -0.000000
vn -1.000000 0.000008 -0.000000
vn -1.000000 -0.000007 -0.000000
vn -1.000000 -0.000007 -0.000000
vn -1.000000 -0.000004 -0.000000
vn -1.000000 -0.000004 -0.000000
vn -1.000000 0.000004 -0.000000
vn -1.000000 0.000000 -0.000000
vn -1.000000 0.000000 -0.000000
vn -1.000000 0.000004 -0.000000
vn -1.000000 0.000000 -0.000000
vn -1.000000 -0.000008 -0.000000
vn -1.000000 -0.000008 -0.000000
vn -1.000000 0.000000 -0.000000
vn -1.000000 0.000007 -0.000000
vn -1.000000 0.000007 -0.000000
vn -1.000000 -0.000012 -0.000000
vn -1.000000 -0.000012 -0.000000
vn 0.000000 -1.000000 0.000000
vn 0.000000 -1.000000 0.000000
vn 0.000000 -1.000000 0.000000
vn 0.000000 -1.000000 0.000000
vn -0.000000 0.000000 1.000000
vn -0.000000 0.000000 1.000000
vn -0.000000 0.000000 1.000000
vn -0.000000 0.000000 1.000000
vn 0.000000 1.000000 -0.000000
vn 0.000000 1.000000 -0.000000
vn 0.000000 1.000000 -0.000000
vn 0.000000 1.000000 -0.000000
vn 0.000000 -1.000000 0.000000
vn 0.000000 -1.000000 0.000000
vn 0.000000 -1.000000 0.000000
vn 0.000000 -1.000000 0.000000
vn 0.000000 1.000000 -0.000000
vn 0.000000 1.000000 -0.000000
vn 0.000000 1.000000 -0.000000
vn 0.000000 1.000000 -0.000000
vn 0.000000 -1.000000 0.000000
vn 0.000000 -1.000000 0.000000
vn 0.000000 1.000000 -0.000000
vn 0.000000 1.000000 -0.000000
vn 0.000000 0.000000 -1.000000
vn 0.000000 0.000000 -1.000000
vn 0.000000 0.000000 -1.000000
vn 0.000000 0.000000 -1.000000
vn -1.000000 0.000000 -0.000000
vn -1.000000 -0.000002 -0.000000
vn -1.000000 -0.000002 -0.000000
vn -1.000000 0.000000 -0.000000
vn -1.000000 -0.000002 -0.000000
vn -1.000000 -0.000002 -0.000000
vn -1.000000 0.000001 -0.000000
vn -1.000000 0.000001 -0.000000
vn -1.000000 0.000007 -0.000000
vn -1.000000 0.000007 -0.000000
vn -1.000000 -0.000003 -0.000000
vn -1.000000 -0.000003 -0.000000
vn -1.000000 0.000000 -0.000000
vn -1.000000 0.000000 -0.000000
vn -1.000000 0.000000 -0.000000
vn -1.000000 0.000000 -0.000000
vn -1.000000 0.000001 -0.000000
vn -1.000000 0.000001 -0.000000
vn -1.000000 0.000001 -0.000000
vn -1.000000 0.000001 -0.000000
vn -1.000000 0.000001 -0.000000
vn -1.000000 0.000001 -0.000000
vn -1.000000 0.000000 -0.000000
vn -1.000000 0.000000 -0.000000
vn -1.000000 0.000000 -0.000000
vn -1.000000 0.000000 -0.000000
vn -1.000000 -0.000015 -0.000000
vn -1.000000 -0.000015 -0.000000
vn -1.000000 -0.000026 -0.000000
vn -1.000000 -0.000026 -0.000000
vn -1.000000 0.000000 -0.000000
vn -1.000000 -0.000000 -0.000000
vn -0.641727 0.003216 -0.766926
vn -0.641574 0.000000 -0.767061
vn -0.641574 0.000000 -0.767061
vn -0.641727 0.003217 -0.766926
vn -0.641599 -0.767040 -0.000000
vn -0.641599 -0.767040 -0.000000
vn -0.641599 -0.767040 -0.000000
vn -0.641599 -0.767040 -0.000000
vn -0.641560 0.000000 0.767073
vn -0.641560 0.000000 0.767073
vn -0.641560 0.000000 0.767073
vn -0.641560 0.000000 0.767073
vn -0.641567 0.767067 -0.000000
vn -0.643188 0.764104 -0.049544
vn -0.643188 0.764103 -0.049545
vn -0.641567 0.767067 -0.000000
vn -0.648871 0.707938 -0.278910
vn -0.648871 0.707936 -0.278914
vn -0.648863 0.537994 -0.538088
vn -0.648863 0.537980 -0.538102
vn -0.648848 0.278927 -0.707952
vn -0.648848 0.278931 -0.707950
vn -0.641569 0.000000 -0.767066
vn -0.641569 0.000000 -0.767066
vn -0.641569 0.000000 -0.767066
vn -0.641569 0.000000 -0.767066
vn -0.641576 -0.767060 -0.000000
vn -0.641576 -0.767060 -0.000000
vn -0.641576 -0.767060 -0.000000
vn -0.641576 -0.767060 -0.000000
vn -0.641557 0.000000 0.767076
vn -0.641711 0.003231 0.766940
vn -0.641711 0.003231 0.766940
vn -0.641557 0.000000 0.767076
vn -0.648804 0.278962 0.707979
vn -0.648804 0.278964 0.707978
vn -0.648921 0.538020 0.537993
vn -0.648921 0.538026 0.537987
vn -0.648827 0.707997 0.278861
vn -0.648827 0.707997 0.278860
vn -0.643181 0.764108 0.049562
vn -0.643181 0.764108 0.049560
vn -0.641580 0.767056 -0.000000
vn -0.641580 0.767056 -0.000000
vn -1.000000 0.000000 -0.000000
vn -1.000000 0.000000 -0.000000
vn -1.000000 0.000000 -0.000000
vn -1.000000 0.000000 -0.000000
vn 0.000000 1.000000 -0.000000
vn 0.000000 1.000000 -0.000000
vn 0.000000 1.000000 -0.000000
vn 0.000000 1.000000 -0.000000
vn 0.000000 -1.000000 0.000000
vn 0.000000 -1.000000 0.000000
vn 0.000000 -1.000000 0.000000
vn 0.000000 -1.000000 0.000000
vn 1.000000 0.000000 0.000000
vn 1.000000 0.000000 0.000000
vn 1.000000 0.000000 0.000000
vn 1.000000 0.000000 0.000000
vn -1.000000 0.000000 -0.000000
vn -1.000000 0.000000 -0.000000
vn -1.000000 0.000000 -0.000000
vn -1.000000 0.000000 -0.000000
vn -0.000000 0.000000 1.000000
vn -0.000000 0.000000 1.000000
vn -0.000000 0.000000 1.000000
vn -0.000000 0.000000 1.000000
vn 0.000000 0.000000 -1.000000
vn 0.000000 0.000000 -1.000000
vn 0.000000 0.000000 -1.000000
vn 0.000000 0.000000 -1.000000
vn 1.000000 0.000000 0.000000
vn 1.000000 0.000000 0.000000
vn 1.000000 0.000000 0.000000
vn 1.000000 0.000000 0.000000
vn -1.000000 0.000000 -0.000000
vn -1.000000 0.000000 -0.000000
vn -1.000000 0.000000 -0.000000
vn -1.000000 0.000000 -0.000000
vn -0.000000 0.000000 1.000000
vn -0.000000 0.000000 1.000000
vn -0.000000 0.000000 1.000000
vn -0.000000 0.000000 1.000000
vn 0.000000 0.000000 -1.000000
vn 0.000000 0.000000 -1.000000
vn 0.000000 0.000000 -1.000000
vn 0.000000 0.000000 -1.000000
vn 1.000000 0.000000 0.000000
vn 1.000000 0.000000 0.000000
vn 1.000000 0.000000 0.000000
vn 1.000000 0.000000 0.000000
vn -1.000000 0.000000 -0.000000
vn -1.000000 0.000000 -0.000000
vn -1.000000 0.000000 -0.000000
vn -1.000000 0.000000 -0.000000
vn -0.000000 0.000000 1.000000
vn -0.000000 0.000000 1.000000
vn -0.000000 0.000000 1.000000
vn -0.000000 0.000000 1.000000
vn 0.000000 0.000000 -1.000000
vn 0.000000 0.000000 -1.000000
vn 0.000000 0.000000 -1.000000
vn 0.000000 0.000000 -1.000000
vn 1.000000 0.000000 0.000000
vn 1.000000 0.000000 0.000000
vn 1.000000 0.000000 0.000000
vn 1.000000 0.000000 0.000000
vn -1.000000 0.000000 -0.000000
vn -1.000000 0.000000 -0.000000
vn -1.000000 0.000000 -0.000000
vn -1.000000 0.000000 -0.000000
vn -1.000000 0.000000 -0.000000
vn -1.000000 0.000000 -0.000000
vn -1.000000 0.000000 -0.000000
vn -1.000000 0.000000 -0.000000
vn -1.000000 0.000000 -0.000000
vn -1.000000 0.000000 -0.000000
vn -1.000000 0.000000 -0.000000
vn -1.000000 0.000000 -0.000000
vn -1.000000 0.000000 -0.000000
vn -1.000000 0.000000 -0.000000
vn -1.000000 0.000000 -0.000000
vn -1.000000 0.000000 -0.000000
vn -1.000000 0.000001 -0.000000
vn -1.000000 0.000001 -0.000000
vn -1.000000 0.000001 -0.000000
vn -1.000000 0.000001 -0.000000
s off
g ventana
usemtl initialShadingGroup
f 4/1/1 7/2/2 6/3/3 1/4/4
f 12/5/5 15/6/6 14/7/7 9/8/8
f 8/9/9 13/10/10 16/11/11 5/12/12
f 10/13/13 3/14/14 2/15/15 11/16/16
f 2/15/17 3/14/18 4/17/19 1/18/20
f 6/19/21 7/20/22 8/9/23 5/12/24
f 10/13/25 11/16/26 12/21/27 9/22/28
f 14/23/29 15/24/30 16/11/31 13/10/32
f 20/25/33 23/26/34 22/27/35 17/28/36
f 28/29/37 31/30/38 30/31/39 25/32/40
f 24/33/41 29/34/42 32/35/43 21/36/44
f 26/37/45 19/38/46 18/39/47 27/40/48
f 18/39/49 19/38/50 20/41/51 17/42/52
f 22/43/53 23/44/54 24/33/55 21/36/56
f 26/37/57 27/40/58 28/45/59 25/46/60
f 30/47/61 31/48/62 32/35/63 29/34/64
f 78/49/65 79/50/66 80/51/67 81/52/68
s 1
f 81/53/69 80/54/70 82/55/71 83/56/72
s off
f 84/57/73 85/58/74 86/59/75 87/60/76
f 88/61/77 89/62/78 90/63/79 91/64/80
f 78/65/81 91/64/82 90/63/83 79/66/84
f 88/61/85 87/67/86 86/68/87 89/62/88
s 2
f 38/69/89 37/70/90 45/71/91 46/72/92
f 37/70/90 35/73/93 47/74/94 45/71/91
f 35/73/93 36/75/95 48/76/96 47/74/94
f 36/75/95 33/77/97 49/78/98 48/76/96
f 33/77/97 57/79/99 58/80/100 49/78/98
f 34/81/101 38/69/89 46/72/92 50/82/102
s 3
f 58/83/103 59/84/104 44/85/105 49/86/106
s off
f 42/87/107 43/88/108 50/89/109 46/90/110
f 41/91/111 42/92/112 46/93/113 45/94/114
f 39/95/115 41/91/116 45/94/117 47/96/118
f 40/97/119 39/95/120 47/96/121 48/98/122
f 44/99/123 40/100/124 48/101/125 49/102/126
s 2
f 52/103/127 51/104/128 54/105/129 55/106/130
s 3
f 55/107/131 56/108/132 53/109/133 52/110/134
s 1
f 93/111/135 92/112/136 94/113/137 95/114/138
s 2
f 55/106/130 54/105/129 34/81/101 50/82/102
s 3
f 43/115/139 56/108/132 55/107/131 50/116/140
s 1
f 95/114/138 94/113/137 85/117/141 84/118/142
s 2
f 58/80/100 57/79/99 51/104/128 52/103/127
s 3
f 52/110/134 53/109/133 59/84/104 58/83/103
s 1
f 83/56/72 82/55/71 92/112/136 93/111/135
s off
f 33/119/143 36/120/144 60/121/145 63/122/146
s 5
f 57/123/147 33/124/148 63/125/149 65/126/150
s off
f 38/127/151 34/128/152 66/129/153 69/130/154
f 35/131/155 37/132/156 70/133/157 73/134/158
f 36/135/159 35/131/160 73/134/161 60/136/162
f 37/132/163 38/137/164 69/138/165 70/133/166
s 5
f 54/139/167 51/140/168 75/141/169 77/142/170
f 34/143/171 54/139/167 77/142/170 66/144/172
f 51/140/168 57/123/147 65/126/150 75/141/169
s 6
f 61/145/173 62/146/174 80/147/175 79/148/176
s 7
f 63/149/177 60/150/178 78/151/179 81/152/180
s 6
f 62/146/174 64/153/181 82/154/182 80/147/175
s 7
f 65/155/183 63/149/177 81/152/180 83/156/184
s 6
f 67/157/185 68/158/186 86/159/187 85/160/188
s 7
f 69/161/189 66/162/190 84/163/191 87/164/192
s 6
f 71/165/193 72/166/194 90/167/195 89/168/196
s 7
f 73/169/197 70/170/198 88/171/199 91/172/200
f 60/150/178 73/169/197 91/172/200 78/151/179
s 6
f 72/166/194 61/145/173 79/148/176 90/167/195
s 7
f 70/170/198 69/161/189 87/164/192 88/171/199
s 6
f 68/158/186 71/165/193 89/168/196 86/159/187
f 74/173/201 76/174/202 94/175/203 92/176/204
s 7
f 77/177/205 75/178/206 93/179/207 95/180/208
s 6
f 76/174/202 67/157/185 85/160/188 94/175/203
s 7
f 66/162/190 77/177/205 95/180/208 84/163/191
s 6
f 64/153/181 74/173/201 92/176/204 82/154/182
s 7
f 75/178/206 65/155/183 83/156/184 93/179/207
s 10
f 108/181/209 111/182/210 39/183/211 40/184/212
f 111/182/210 114/185/213 41/186/214 39/183/211
f 114/185/213 105/187/215 42/188/216 41/186/214
f 105/187/215 102/189/217 43/190/218 42/188/216
f 59/191/219 99/192/220 96/193/221 44/194/222
f 96/193/221 108/181/209 40/184/212 44/194/222
f 56/195/223 120/196/224 117/197/225 53/198/226
f 102/189/217 120/196/224 56/195/223 43/190/218
f 53/198/226 117/197/225 99/192/220 59/191/219
s 12
f 110/199/227 98/200/228 62/201/229 61/202/230
s 13
f 98/203/231 101/204/232 64/205/233 62/206/234
s 14
f 104/207/235 107/208/236 68/209/237 67/210/238
s 15
f 116/211/239 113/212/240 72/213/241 71/214/242
s 16
f 113/212/243 110/215/244 61/216/245 72/213/246
s 17
f 107/217/247 116/211/248 71/214/249 68/218/250
s 13
f 119/219/251 122/220/252 76/221/253 74/222/254
f 122/220/252 104/223/255 67/224/256 76/221/253
f 101/204/232 119/219/251 74/222/254 64/205/233
s 10
f 96/193/221 97/225/257 109/226/258 108/181/209
s 12
f 97/227/259 98/200/228 110/199/227 109/228/260
s 13
f 98/203/231 97/229/261 100/230/262 101/204/232
s 10
f 97/225/263 96/193/221 99/192/220 100/231/264
f 102/189/217 103/232/265 121/233/266 120/196/224
s 13
f 103/234/267 104/223/255 122/220/252 121/235/268
s 14
f 104/207/235 103/236/269 106/237/270 107/208/236
s 10
f 103/232/271 102/189/217 105/187/215 106/238/272
f 108/181/209 109/226/258 112/239/273 111/182/210
s 16
f 109/240/274 110/215/244 113/212/243 112/241/275
s 10
f 111/182/210 112/239/273 115/242/276 114/185/213
s 15
f 112/241/277 113/212/240 116/211/239 115/243/278
s 17
f 107/217/247 106/244/279 115/243/280 116/211/248
s 10
f 106/238/272 105/187/215 114/185/213 115/242/276
s 13
f 101/204/232 100/230/262 118/245/281 119/219/251
s 10
f 100/231/264 99/192/220 117/197/225 118/246/282
s 13
f 119/219/251 118/245/281 121/235/268 122/220/252
s 10
f 118/246/282 117/197/225 120/196/224 121/233/266
s off
f 126/247/283 129/248/284 128/249/285 123/250/286
f 134/251/287 137/252/288 136/253/289 131/254/290
f 130/255/291 135/256/292 138/257/293 127/258/294
f 132/259/295 125/260/296 124/261/297 133/262/298
f 124/261/299 125/260/300 126/263/301 123/264/302
f 128/265/303 129/266/304 130/255/305 127/258/306
f 132/259/307 133/262/308 134/267/309 131/268/310
f 136/269/311 137/270/312 138/257/313 135/256/314
f 144/271/315 146/272/316 140/273/317 139/274/318
f 139/275/319 140/276/320 142/277/321 141/278/322
f 141/279/323 142/280/324 150/281/325 148/282/326
s 19
f 179/283/327 180/284/328 216/285/329 217/286/330
s off
f 146/287/331 145/288/332 149/289/333 150/290/334 142/291/335 140/292/336
f 144/293/337 143/294/338 145/295/339 146/296/340
f 147/297/341 148/298/342 150/299/343 149/300/344
s 20
f 187/301/345 192/302/346 183/303/347 184/304/348
s 21
f 197/305/349 202/306/350 185/307/351 186/308/352
s 22
f 148/309/353 147/310/354 155/311/355 156/312/356
f 147/310/354 143/313/357 157/314/358 155/311/355
f 143/313/357 144/315/359 158/316/360 157/314/358
f 144/315/359 139/317/361 159/318/362 158/316/360
f 139/317/361 141/319/363 160/320/364 159/318/362
f 141/319/363 148/309/353 156/312/356 160/320/364
s 23
f 163/321/365 162/322/366 165/323/367 164/324/368
s 24
f 162/325/369 161/326/370 166/327/371 165/328/372
f 166/327/371 161/326/370 167/329/373 170/330/374 173/331/375 176/332/376
s 23
f 156/333/377 155/334/378 163/321/365 164/324/368
f 155/334/378 157/335/379 169/336/380 163/321/365
f 157/335/379 158/337/381 172/338/382 169/336/380
s 25
f 158/339/383 159/340/384 175/341/385 172/342/386
s 26
f 159/343/387 160/344/388 178/345/389 175/346/390
s 27
f 160/347/391 156/348/392 164/349/393 178/350/394
s 24
f 161/326/370 162/325/369 168/351/395 167/329/373
s 23
f 162/322/366 163/321/365 169/336/380 168/352/396
s 24
f 167/329/373 168/351/395 171/353/397 170/330/374
s 23
f 168/352/396 169/336/380 172/338/382 171/354/398
s 24
f 170/330/374 171/353/397 174/355/399 173/331/375
s 25
f 171/356/400 172/342/386 175/341/385 174/357/401
s 24
f 173/331/375 174/355/402 177/358/403 176/332/376
s 26
f 174/359/404 175/346/390 178/345/389 177/360/405
s 27
f 164/349/393 165/361/406 177/362/407 178/350/394
s 24
f 165/328/372 166/327/371 176/332/376 177/358/408
s off
f 151/363/409 152/364/410 180/365/411 179/366/412
s 28
f 152/367/413 215/368/414 216/369/415 180/370/416
s off
f 153/371/417 154/372/418 182/373/419 181/374/420
s 29
f 229/375/421 230/376/422 231/377/423 232/378/424
s 30
f 218/379/425 215/380/426 152/381/427 151/382/428
s 20
f 147/383/429 149/384/430 196/385/431 188/386/432
s off
f 152/387/433 151/388/434 184/389/435 183/390/436
s 21
f 145/391/437 143/392/438 206/393/439 198/394/440
s off
f 154/395/441 153/396/442 186/397/443 185/398/444
s 20
f 187/301/345 191/399/445 193/400/446 192/302/346
f 191/401/445 190/402/447 194/403/448 193/404/446
f 190/402/447 189/405/449 195/406/450 194/403/448
f 189/405/449 188/386/432 196/385/431 195/406/450
s 21
f 197/305/349 201/407/451 203/408/452 202/306/350
f 201/409/451 200/410/453 204/411/454 203/412/452
f 200/410/453 199/413/455 205/414/456 204/411/454
f 199/413/455 198/394/440 206/393/439 205/414/456
s off
f 255/415/457 256/416/458 257/417/459 258/418/460 259/419/461 260/420/462 261/421/463 262/422/464
f 149/423/465 152/424/466 183/425/467 192/426/468 193/427/469 194/428/470 195/429/471 196/430/472
f 197/431/473 186/432/474 153/433/475 145/434/476 198/435/477 199/436/478 200/437/479 201/438/480
f 263/439/481 264/440/482 265/441/483 266/442/484 267/443/485 268/444/486 269/445/487 270/446/488
s 28
f 208/447/489 207/448/490 211/449/491 212/450/492
s 19
f 209/451/493 208/452/494 212/453/495 213/454/496
s 29
f 233/455/497 234/456/498 235/457/499 236/458/500
s 30
f 214/459/501 211/460/502 207/461/503 210/462/504
s 28
f 212/450/492 211/449/491 153/463/505 181/464/506
s 19
f 213/454/496 212/453/495 181/465/507 182/466/508
s 29
f 237/467/509 234/456/498 233/455/497 238/468/510
s 30
f 153/469/511 211/460/502 214/459/501 154/470/512
s 28
f 216/369/415 215/368/414 207/448/490 208/447/489
s 19
f 217/286/330 216/285/329 208/452/494 209/451/493
s 29
f 236/458/500 235/457/499 230/376/422 229/375/421
s 30
f 210/462/504 207/461/503 215/380/426 218/379/425
s off
f 145/471/513 153/472/514 154/473/515 143/474/516
f 147/475/517 151/476/518 152/477/519 149/478/520
f 143/479/521 147/480/522 149/481/523 145/482/524
s 35
f 218/483/525 151/484/526 221/485/527 220/486/528
f 151/484/526 179/487/529 222/488/530 221/485/527
f 179/487/529 217/489/531 219/490/532 222/488/530
f 214/491/533 210/492/534 225/493/535 224/494/536
f 209/495/537 213/496/538 223/497/539 226/498/540
f 154/499/541 214/491/533 224/494/536 227/500/542
f 213/496/538 182/501/543 228/502/544 223/497/539
f 182/501/543 154/499/541 227/500/542 228/502/544
f 210/492/534 218/483/525 220/486/528 225/493/535
f 217/489/531 209/495/537 226/498/540 219/490/532
s 37
f 220/503/545 221/504/546 231/505/547 230/506/548
s off
f 221/507/549 222/508/550 232/509/551 231/510/552
s 38
f 222/511/553 219/512/554 229/513/555 232/514/556
s 37
f 224/515/557 225/516/558 235/517/559 234/518/560
s 38
f 226/519/561 223/520/562 233/521/563 236/522/564
s 37
f 227/523/565 224/515/557 234/518/560 237/524/566
s 38
f 223/520/562 228/525/567 238/526/568 233/521/563
s off
f 228/527/569 227/528/570 237/529/571 238/530/572
s 37
f 225/516/558 220/503/545 230/506/548 235/517/559
s 38
f 219/512/554 226/519/561 236/522/564 229/513/555
s 40
f 187/531/573 184/532/574 240/533/575 239/534/576
f 184/532/574 151/535/577 241/536/578 240/533/575
f 151/535/577 147/537/579 242/538/580 241/536/578
f 147/537/579 188/539/581 243/540/582 242/538/580
f 188/539/581 189/541/583 244/542/584 243/540/582
f 189/541/583 190/543/585 245/544/586 244/542/584
f 190/543/585 191/545/587 246/546/588 245/544/586
f 191/545/587 187/531/573 239/534/576 246/546/588
s 41
f 143/547/589 154/548/590 248/549/591 247/550/592
f 154/548/590 185/551/593 249/552/594 248/549/591
f 185/551/593 202/553/595 250/554/596 249/552/594
f 202/553/595 203/555/597 251/556/598 250/554/596
f 203/555/597 204/557/599 252/558/600 251/556/598
f 204/557/599 205/559/601 253/560/602 252/558/600
f 205/559/601 206/561/603 254/562/604 253/560/602
f 206/561/603 143/547/589 247/550/592 254/562/604
s 42
f 239/534/605 240/533/606 256/416/607 255/415/608
s off
f 240/533/609 241/536/610 257/417/611 256/416/612
f 241/536/613 242/538/614 258/418/615 257/417/616
s 42
f 242/538/617 243/540/618 259/419/619 258/418/620
f 243/540/618 244/542/621 260/420/622 259/419/619
f 244/542/621 245/544/623 261/421/624 260/420/622
f 245/544/623 246/546/625 262/422/626 261/421/624
f 246/546/625 239/534/605 255/415/608 262/422/626
s off
f 247/550/627 248/549/628 264/440/629 263/439/630
f 248/549/631 249/552/632 265/441/633 264/440/634
s 44
f 249/552/635 250/554/636 266/442/637 265/441/638
f 250/554/636 251/556/639 267/443/640 266/442/637
f 251/556/639 252/558/641 268/444/642 267/443/640
f 252/558/641 253/560/643 269/445/644 268/444/642
f 253/560/643 254/562/645 270/446/646 269/445/644
f 254/562/645 247/550/647 263/439/648 270/446/646
s off
f 274/563/649 273/564/650 272/565/651 271/566/652
f 275/567/653 277/568/654 278/569/655 276/570/656
f 279/571/657 281/572/658 282/573/659 280/574/660
f 276/575/661 278/576/662 280/577/663 282/578/664
f 281/579/665 279/580/666 277/581/667 275/582/668
f 283/583/669 285/584/670 286/585/671 284/586/672
f 287/587/673 289/588/674 290/589/675 288/590/676
f 284/591/677 286/592/678 288/593/679 290/594/680
f 289/595/681 287/596/682 285/597/683 283/598/684
f 291/599/685 293/600/686 294/601/687 292/602/688
f 295/603/689 297/604/690 298/605/691 296/606/692
f 292/607/693 294/608/694 296/609/695 298/610/696
f 297/611/697 295/612/698 293/613/699 291/614/700
f 299/615/701 301/616/702 302/617/703 300/618/704
f 303/619/705 305/620/706 306/621/707 304/622/708
f 300/623/709 302/624/710 304/625/711 306/626/712
f 305/627/713 303/628/714 301/629/715 299/630/716
f 310/631/717 309/632/718 308/633/719 307/634/720
f 314/635/721 313/636/722 312/637/723 311/638/724
f 318/639/725 317/640/726 316/641/727 315/642/728
f 319/643/729 320/644/730 321/645/731 322/646/732
