# This file uses centimeters as units for non-parametric coordinates.

mtllib engranajes.mtl
g default
v -0.048616 0.679456 -0.022984
v -0.058189 0.679456 -0.026170
v -0.067211 0.679456 -0.021654
v -0.070398 0.679456 -0.012081
v -0.065882 0.679456 -0.003059
v -0.056309 0.679456 0.000128
v -0.047286 0.679456 -0.004388
v -0.044100 0.679456 -0.013961
v -0.048616 0.693714 -0.022984
v -0.058189 0.693714 -0.026170
v -0.067211 0.693714 -0.021654
v -0.070398 0.693714 -0.012081
v -0.065882 0.693714 -0.003059
v -0.056309 0.693714 0.000128
v -0.047286 0.693714 -0.004388
v -0.044100 0.693714 -0.013961
v -0.057249 0.679456 -0.013021
v -0.057249 0.693714 -0.013021
v -0.050116 0.681038 -0.023483
v -0.056688 0.681038 -0.025671
v -0.056688 0.692132 -0.025671
v -0.050116 0.692132 -0.023483
v -0.059603 0.681038 -0.025462
v -0.065796 0.681038 -0.022363
v -0.065796 0.692132 -0.022363
v -0.059603 0.692132 -0.025462
v -0.067711 0.681038 -0.020154
v -0.069898 0.681038 -0.013582
v -0.069898 0.692132 -0.013582
v -0.067711 0.692132 -0.020154
v -0.069690 0.681038 -0.010667
v -0.066590 0.681038 -0.004474
v -0.066590 0.692132 -0.004474
v -0.069690 0.692132 -0.010667
v -0.064381 0.681038 -0.002559
v -0.057810 0.681038 -0.000372
v -0.057810 0.692132 -0.000372
v -0.064381 0.692132 -0.002559
v -0.054894 0.681038 -0.000580
v -0.048701 0.681038 -0.003680
v -0.048701 0.692132 -0.003680
v -0.054894 0.692132 -0.000580
v -0.046787 0.681038 -0.005889
v -0.044599 0.681038 -0.012460
v -0.044599 0.692132 -0.012460
v -0.046787 0.692132 -0.005889
v -0.044808 0.681038 -0.015376
v -0.047908 0.681038 -0.021569
v -0.047908 0.692132 -0.021569
v -0.044808 0.692132 -0.015376
v -0.045787 0.683126 -0.035182
v -0.052301 0.683126 -0.037220
v -0.052301 0.690044 -0.037220
v -0.045787 0.690044 -0.035182
v -0.065588 0.683126 -0.036270
v -0.071746 0.683126 -0.033327
v -0.071746 0.690044 -0.033327
v -0.065588 0.690044 -0.036270
v -0.080504 0.683126 -0.023739
v -0.082699 0.683126 -0.017539
v -0.082699 0.690044 -0.017539
v -0.080504 0.690044 -0.023739
v -0.081798 0.683126 -0.004930
v -0.078743 0.683126 0.000896
v -0.078743 0.690044 0.000896
v -0.081798 0.690044 -0.004930
v -0.068711 0.683126 0.009139
v -0.062196 0.683126 0.011177
v -0.062196 0.690044 0.011177
v -0.068711 0.690044 0.009139
v -0.048910 0.683126 0.010228
v -0.042751 0.683126 0.007284
v -0.042751 0.690044 0.007284
v -0.048910 0.690044 0.010228
v -0.033993 0.683126 -0.002303
v -0.031799 0.683126 -0.008504
v -0.031799 0.690044 -0.008504
v -0.033993 0.690044 -0.002303
v -0.032700 0.683126 -0.021113
v -0.035754 0.683126 -0.026938
v -0.035754 0.690044 -0.026938
v -0.032700 0.690044 -0.021113
vt 0.722337 0.226841
vt 0.645698 0.226938
vt 0.645599 0.149269
vt 0.722238 0.149172
vt 0.999022 0.222232
vt 0.922383 0.222330
vt 0.922284 0.144661
vt 0.998923 0.144563
vt 0.407747 0.337934
vt 0.481601 0.337934
vt 0.481600 0.415603
vt 0.407747 0.415603
vt 0.747536 0.264178
vt 0.821390 0.264178
vt 0.821389 0.341847
vt 0.747536 0.341847
vt 0.407747 0.177955
vt 0.484385 0.177857
vt 0.484485 0.255526
vt 0.407846 0.255624
vt 0.407747 0.017878
vt 0.484385 0.017780
vt 0.484485 0.095449
vt 0.407846 0.095547
vt 0.907722 0.369456
vt 0.981576 0.369456
vt 0.981575 0.447125
vt 0.907722 0.447125
vt 0.393185 0.498009
vt 0.467038 0.498010
vt 0.467038 0.575679
vt 0.393184 0.575678
vt 0.193380 0.273482
vt 0.273481 0.353583
vt 0.136741 0.410222
vt 0.080101 0.273482
vt 0.000000 0.353583
vt 0.000000 0.466862
vt 0.080101 0.546963
vt 0.193381 0.546963
vt 0.273481 0.466862
vt 0.080101 0.273482
vt 0.000000 0.193381
vt 0.136741 0.136741
vt 0.000000 0.080101
vt 0.080101 0.000000
vt 0.193381 0.000000
vt 0.273481 0.080101
vt 0.273481 0.193381
vt 0.193381 0.273482
vt 0.488682 0.640327
vt 0.375403 0.640317
vt 0.393165 0.622558
vt 0.470923 0.622565
vt 0.375417 0.480240
vt 0.393176 0.498003
vt 0.488697 0.480251
vt 0.470934 0.498010
vt 0.262123 0.640307
vt 0.279885 0.622548
vt 0.357643 0.622555
vt 0.262137 0.480230
vt 0.279897 0.497993
vt 0.357655 0.498000
vt 0.276700 0.160077
vt 0.389979 0.160088
vt 0.372217 0.177847
vt 0.294459 0.177840
vt 0.389965 0.320164
vt 0.372206 0.302402
vt 0.276685 0.320154
vt 0.294448 0.302395
vt 0.503259 0.160098
vt 0.485497 0.177857
vt 0.407739 0.177850
vt 0.503245 0.320174
vt 0.485485 0.302412
vt 0.407727 0.302405
vt 0.276700 0.000000
vt 0.389979 0.000011
vt 0.372217 0.017770
vt 0.294459 0.017763
vt 0.389965 0.160087
vt 0.372206 0.142325
vt 0.276685 0.160077
vt 0.294448 0.142318
vt 0.503259 0.000021
vt 0.485497 0.017780
vt 0.407739 0.017773
vt 0.503245 0.160097
vt 0.485485 0.142335
vt 0.407727 0.142328
vt 0.276700 0.320154
vt 0.389979 0.320165
vt 0.372217 0.337924
vt 0.294459 0.337917
vt 0.389965 0.480241
vt 0.372206 0.462479
vt 0.276685 0.480231
vt 0.294448 0.462472
vt 0.503259 0.320175
vt 0.485497 0.337934
vt 0.407739 0.337927
vt 0.503245 0.480252
vt 0.485485 0.462489
vt 0.407727 0.462482
vt 0.075373 0.925623
vt 0.072812 0.847907
vt 0.213481 0.849047
vt 0.217378 0.925587
vt 0.842966 0.264181
vt 0.718411 0.264161
vt 0.741877 0.125458
vt 0.819546 0.125471
vt 0.907722 0.224895
vt 0.985438 0.227454
vt 0.985406 0.369459
vt 0.908866 0.365564
vt 0.491331 0.722426
vt 0.490267 0.597875
vt 0.630519 0.620120
vt 0.631182 0.697787
vt 0.956313 0.639532
vt 0.878597 0.636973
vt 0.878629 0.494968
vt 0.955169 0.498863
vt 0.755591 0.660011
vt 0.631037 0.660048
vt 0.654437 0.519984
vt 0.732106 0.519961
vt 0.923519 0.849967
vt 0.926081 0.927683
vt 0.785411 0.926543
vt 0.781514 0.850003
vt 0.641755 0.784590
vt 0.640745 0.660039
vt 0.779637 0.682356
vt 0.780267 0.760023
vt 0.843183 0.772246
vt 0.841530 0.849987
vt 0.689286 0.849999
vt 0.692231 0.776204
vt 0.639092 0.601713
vt 0.514537 0.601731
vt 0.537959 0.451299
vt 0.615628 0.451288
vt 0.800931 0.495241
vt 0.878671 0.493576
vt 0.874735 0.644528
vt 0.800941 0.647484
vt 0.736175 0.149169
vt 0.611620 0.149188
vt 0.635040 0.000012
vt 0.712709 0.000000
vt 0.019417 0.697804
vt 0.097157 0.696139
vt 0.093221 0.847091
vt 0.019427 0.850047
vt 0.270179 0.696124
vt 0.145624 0.696143
vt 0.169044 0.546967
vt 0.246713 0.546955
vt 0.372332 0.780295
vt 0.370679 0.858035
vt 0.218436 0.858047
vt 0.221381 0.784252
vt 0.639092 0.451284
vt 0.514537 0.451302
vt 0.537958 0.300871
vt 0.615628 0.300860
vt 0.923519 0.647453
vt 0.926081 0.725169
vt 0.785411 0.724029
vt 0.781514 0.647489
vt 0.838112 0.494409
vt 0.713557 0.494388
vt 0.737023 0.355685
vt 0.814692 0.355698
vt 1.000000 0.144564
vt 0.922284 0.142005
vt 0.922316 0.000000
vt 0.998856 0.003895
vt 0.266977 0.640356
vt 0.391532 0.640319
vt 0.368131 0.780382
vt 0.290462 0.780406
vt 0.402893 0.780403
vt 0.480608 0.782962
vt 0.480577 0.924967
vt 0.404037 0.921072
vt 0.498323 0.780376
vt 0.373768 0.780413
vt 0.397169 0.640349
vt 0.474838 0.640326
vt 0.638452 0.931890
vt 0.635891 0.854174
vt 0.776560 0.855314
vt 0.780457 0.931854
vt 0.101937 0.696135
vt 0.226492 0.696156
vt 0.203026 0.834859
vt 0.125357 0.834846
vt 0.728119 0.077752
vt 0.729772 0.000012
vt 0.882016 0.000000
vt 0.879070 0.073795
vt 0.514537 0.150446
vt 0.639092 0.150427
vt 0.615671 0.300859
vt 0.538002 0.300870
vt 0.902942 0.414091
vt 0.825202 0.415755
vt 0.829137 0.264803
vt 0.902932 0.261847
vt 0.000000 0.546982
vt 0.124555 0.546963
vt 0.101135 0.696139
vt 0.023466 0.696151
vt 0.917504 0.224688
vt 0.839764 0.226352
vt 0.843700 0.075400
vt 0.917494 0.072444
vt 0.621328 0.264282
vt 0.745883 0.264263
vt 0.722463 0.413439
vt 0.644794 0.413451
vt 0.485413 0.858120
vt 0.487066 0.780380
vt 0.639309 0.780368
vt 0.636364 0.854163
vt 0.504829 0.000018
vt 0.629384 0.000000
vt 0.605963 0.150432
vt 0.528294 0.150443
vn 0.298537 0.000000 -0.954398
vn 0.298537 0.000000 -0.954398
vn 0.298537 0.000000 -0.954398
vn 0.298537 0.000000 -0.954398
vn -0.431254 0.000000 -0.902231
vn -0.431254 0.000000 -0.902231
vn -0.431254 0.000000 -0.902231
vn -0.431254 0.000000 -0.902231
vn -0.942689 0.000000 -0.333673
vn -0.942689 0.000000 -0.333673
vn -0.942689 0.000000 -0.333673
vn -0.942689 0.000000 -0.333673
vn -0.885643 0.000000 0.464367
vn -0.885643 0.000000 0.464367
vn -0.885643 0.000000 0.464367
vn -0.885643 0.000000 0.464367
vn -0.298536 -0.000000 0.954398
vn -0.298536 -0.000000 0.954398
vn -0.298536 -0.000000 0.954398
vn -0.298536 -0.000000 0.954398
vn 0.431254 -0.000000 0.902230
vn 0.431254 -0.000000 0.902230
vn 0.431254 -0.000000 0.902230
vn 0.431254 -0.000000 0.902230
vn 0.942689 -0.000000 0.333672
vn 0.942689 -0.000000 0.333672
vn 0.942689 -0.000000 0.333672
vn 0.942689 -0.000000 0.333672
vn 0.885642 -0.000000 -0.464368
vn 0.885642 -0.000000 -0.464368
vn 0.885642 -0.000000 -0.464368
vn 0.885642 -0.000000 -0.464368
vn 0.000000 -1.000000 -0.000000
vn 0.000000 -1.000000 -0.000000
vn 0.000000 -1.000000 -0.000000
vn 0.000000 -1.000000 0.000000
vn 0.000000 -1.000000 0.000000
vn 0.000000 -1.000000 -0.000000
vn 0.000000 -1.000000 -0.000000
vn 0.000000 -1.000000 0.000000
vn 0.000000 -1.000000 0.000000
vn 0.000000 1.000000 0.000000
vn 0.000000 1.000000 -0.000000
vn 0.000000 1.000000 -0.000000
vn 0.000000 1.000000 -0.000000
vn 0.000000 1.000000 -0.000000
vn 0.000000 1.000000 0.000000
vn 0.000000 1.000000 -0.000000
vn 0.000000 1.000000 -0.000000
vn 0.000000 1.000000 -0.000000
vn 0.315836 0.000000 -0.948814
vn 0.315836 0.000000 -0.948814
vn 0.315836 0.000000 -0.948814
vn 0.315836 0.000000 -0.948814
vn 0.315836 -0.000000 -0.948814
vn 0.315836 -0.000000 -0.948814
vn 0.315836 -0.000000 -0.948814
vn 0.315836 -0.000000 -0.948814
vn -0.447583 -0.000000 -0.894242
vn -0.447583 -0.000000 -0.894242
vn -0.447583 -0.000000 -0.894242
vn -0.447583 -0.000000 -0.894242
vn -0.447583 0.000000 -0.894242
vn -0.447583 0.000000 -0.894242
vn -0.447583 0.000000 -0.894242
vn -0.447583 0.000000 -0.894242
vn -0.948814 0.000000 -0.315835
vn -0.948814 0.000000 -0.315836
vn -0.948814 0.000000 -0.315836
vn -0.948814 0.000000 -0.315835
vn -0.948814 -0.000000 -0.315836
vn -0.948814 -0.000000 -0.315836
vn -0.948814 -0.000000 -0.315835
vn -0.948814 -0.000000 -0.315835
vn -0.894242 -0.000000 0.447583
vn -0.894242 -0.000000 0.447583
vn -0.894242 -0.000000 0.447583
vn -0.894242 -0.000000 0.447583
vn -0.894242 0.000000 0.447583
vn -0.894242 0.000000 0.447583
vn -0.894242 0.000000 0.447583
vn -0.894242 0.000000 0.447583
vn -0.315836 0.000000 0.948814
vn -0.315837 0.000000 0.948813
vn -0.315837 0.000000 0.948813
vn -0.315836 0.000000 0.948814
vn -0.315837 -0.000000 0.948813
vn -0.315837 -0.000000 0.948813
vn -0.315836 -0.000000 0.948814
vn -0.315836 -0.000000 0.948814
vn 0.447583 -0.000000 0.894242
vn 0.447583 -0.000000 0.894242
vn 0.447583 -0.000000 0.894242
vn 0.447583 -0.000000 0.894242
vn 0.447583 0.000000 0.894242
vn 0.447583 0.000000 0.894242
vn 0.447583 0.000000 0.894242
vn 0.447583 0.000000 0.894242
vn 0.948814 -0.000000 0.315836
vn 0.948814 -0.000000 0.315836
vn 0.948814 -0.000000 0.315836
vn 0.948814 -0.000000 0.315836
vn 0.948814 0.000000 0.315836
vn 0.948814 0.000000 0.315836
vn 0.948814 0.000000 0.315836
vn 0.948814 0.000000 0.315836
vn 0.894242 0.000000 -0.447583
vn 0.894242 0.000000 -0.447583
vn 0.894242 0.000000 -0.447583
vn 0.894242 0.000000 -0.447583
vn 0.894242 -0.000000 -0.447583
vn 0.894242 -0.000000 -0.447583
vn 0.894242 -0.000000 -0.447583
vn 0.894242 -0.000000 -0.447583
vn 0.051017 -0.986119 -0.158006
vn 0.051017 -0.986119 -0.158006
vn 0.051017 -0.986119 -0.158006
vn 0.051017 -0.986119 -0.158006
vn -0.934847 0.000000 -0.355049
vn -0.934847 0.000000 -0.355049
vn -0.934847 0.000000 -0.355049
vn -0.934847 0.000000 -0.355049
vn 0.051017 0.986119 -0.158006
vn 0.051017 0.986119 -0.158006
vn 0.051017 0.986119 -0.158006
vn 0.051017 0.986119 -0.158006
vn 0.937828 -0.000000 0.347102
vn 0.937828 -0.000000 0.347102
vn 0.937828 -0.000000 0.347102
vn 0.937828 -0.000000 0.347102
vn -0.072973 -0.986119 -0.149143
vn -0.072973 -0.986119 -0.149143
vn -0.072973 -0.986119 -0.149143
vn -0.072973 -0.986119 -0.149143
vn -0.878920 0.000000 0.476968
vn -0.878920 0.000000 0.476968
vn -0.878920 0.000000 0.476968
vn -0.878920 0.000000 0.476968
vn -0.072973 0.986119 -0.149143
vn -0.072973 0.986119 -0.149143
vn -0.072973 0.986119 -0.149143
vn -0.072973 0.986119 -0.149143
vn 0.874840 -0.000000 -0.484411
vn 0.874840 -0.000000 -0.484411
vn 0.874840 -0.000000 -0.484411
vn 0.874840 -0.000000 -0.484411
vn -0.146395 -0.987950 -0.050230
vn -0.146395 -0.987950 -0.050230
vn -0.146395 -0.987950 -0.050230
vn -0.146395 -0.987950 -0.050230
vn -0.295276 -0.000000 0.955412
vn -0.295276 -0.000000 0.955412
vn -0.295276 -0.000000 0.955412
vn -0.295276 -0.000000 0.955412
vn -0.146395 0.987950 -0.050230
vn -0.146395 0.987950 -0.050230
vn -0.146395 0.987950 -0.050230
vn -0.146395 0.987950 -0.050230
vn 0.269895 0.000000 -0.962890
vn 0.269895 0.000000 -0.962890
vn 0.269895 0.000000 -0.962890
vn 0.269895 0.000000 -0.962890
vn -0.137762 -0.987950 0.070542
vn -0.137762 -0.987950 0.070542
vn -0.137762 -0.987950 0.070542
vn -0.137762 -0.987950 0.070542
vn 0.404112 -0.000000 0.914710
vn 0.404112 -0.000000 0.914710
vn 0.404112 -0.000000 0.914710
vn 0.404112 -0.000000 0.914710
vn -0.137762 0.987950 0.070542
vn -0.137762 0.987950 0.070542
vn -0.137762 0.987950 0.070542
vn -0.137762 0.987950 0.070542
vn -0.428171 0.000000 -0.903697
vn -0.428171 0.000000 -0.903697
vn -0.428171 0.000000 -0.903697
vn -0.428171 0.000000 -0.903697
vn -0.051017 -0.986119 0.158006
vn -0.051017 -0.986119 0.158006
vn -0.051017 -0.986119 0.158006
vn -0.051017 -0.986119 0.158006
vn 0.934847 -0.000000 0.355050
vn 0.934847 -0.000000 0.355050
vn 0.934847 -0.000000 0.355050
vn 0.934847 -0.000000 0.355050
vn -0.051017 0.986119 0.158006
vn -0.051017 0.986119 0.158006
vn -0.051017 0.986119 0.158006
vn -0.051017 0.986119 0.158006
vn -0.937827 0.000000 -0.347102
vn -0.937827 0.000000 -0.347102
vn -0.937827 0.000000 -0.347102
vn -0.937827 0.000000 -0.347102
vn 0.072973 -0.986119 0.149143
vn 0.072973 -0.986119 0.149143
vn 0.072973 -0.986119 0.149143
vn 0.072973 -0.986119 0.149143
vn 0.878920 -0.000000 -0.476968
vn 0.878920 -0.000000 -0.476968
vn 0.878920 -0.000000 -0.476968
vn 0.878920 -0.000000 -0.476968
vn 0.072973 0.986119 0.149143
vn 0.072973 0.986119 0.149143
vn 0.072973 0.986119 0.149143
vn 0.072973 0.986119 0.149143
vn -0.874840 0.000000 0.484412
vn -0.874840 0.000000 0.484412
vn -0.874840 0.000000 0.484412
vn -0.874840 0.000000 0.484412
vn 0.146395 -0.987950 0.050230
vn 0.146395 -0.987950 0.050230
vn 0.146395 -0.987950 0.050230
vn 0.146395 -0.987950 0.050230
vn 0.295276 0.000000 -0.955412
vn 0.295276 0.000000 -0.955412
vn 0.295276 0.000000 -0.955412
vn 0.295276 0.000000 -0.955412
vn 0.146395 0.987950 0.050230
vn 0.146395 0.987950 0.050230
vn 0.146395 0.987950 0.050230
vn 0.146395 0.987950 0.050230
vn -0.269895 -0.000000 0.962890
vn -0.269895 -0.000000 0.962890
vn -0.269895 -0.000000 0.962890
vn -0.269895 -0.000000 0.962890
vn 0.137762 -0.987950 -0.070542
vn 0.137762 -0.987950 -0.070542
vn 0.137762 -0.987950 -0.070542
vn 0.137762 -0.987950 -0.070542
vn -0.404112 0.000000 -0.914710
vn -0.404112 0.000000 -0.914710
vn -0.404112 0.000000 -0.914710
vn -0.404112 0.000000 -0.914710
vn 0.137761 0.987950 -0.070542
vn 0.137762 0.987950 -0.070542
vn 0.137762 0.987950 -0.070542
vn 0.137762 0.987950 -0.070542
vn 0.428172 -0.000000 0.903697
vn 0.428172 -0.000000 0.903697
vn 0.428172 -0.000000 0.903697
vn 0.428172 -0.000000 0.903697
s off
g polySurface4 engranaje6
usemtl initialShadingGroup
f 51/1/1 52/2/2 53/3/3 54/4/4
f 55/5/5 56/6/6 57/7/7 58/8/8
f 59/9/9 60/10/10 61/11/11 62/12/12
f 63/13/13 64/14/14 65/15/15 66/16/16
f 67/17/17 68/18/18 69/19/19 70/20/20
f 71/21/21 72/22/22 73/23/23 74/24/24
f 75/25/25 76/26/26 77/27/27 78/28/28
f 79/29/29 80/30/30 81/31/31 82/32/32
s 1
f 2/33/33 1/34/34 17/35/35
f 3/36/36 2/33/33 17/35/35
f 4/37/37 3/36/36 17/35/35
f 5/38/38 4/37/37 17/35/35
f 6/39/39 5/38/38 17/35/35
f 7/40/40 6/39/39 17/35/35
f 8/41/41 7/40/40 17/35/35
f 1/34/34 8/41/41 17/35/35
s 2
f 9/42/42 10/43/43 18/44/44
f 10/43/43 11/45/45 18/44/44
f 11/45/45 12/46/46 18/44/44
f 12/46/46 13/47/47 18/44/44
f 13/47/47 14/48/48 18/44/44
f 14/48/48 15/49/49 18/44/44
f 15/49/49 16/50/50 18/44/44
f 16/50/50 9/42/42 18/44/44
s 3
f 1/51/51 2/52/52 20/53/53 19/54/54
f 2/52/52 10/55/55 21/56/56 20/53/53
f 10/55/55 9/57/57 22/58/58 21/56/56
f 9/57/57 1/51/51 19/54/54 22/58/58
s 4
f 2/52/59 3/59/60 24/60/61 23/61/62
f 3/59/60 11/62/63 25/63/64 24/60/61
f 11/62/63 10/55/65 26/64/66 25/63/64
f 10/55/65 2/52/59 23/61/62 26/64/66
s 5
f 3/65/67 4/66/68 28/67/69 27/68/70
f 4/66/68 12/69/71 29/70/72 28/67/69
f 12/69/71 11/71/73 30/72/74 29/70/72
f 11/71/73 3/65/67 27/68/70 30/72/74
s 6
f 4/66/75 5/73/76 32/74/77 31/75/78
f 5/73/76 13/76/79 33/77/80 32/74/77
f 13/76/79 12/69/81 34/78/82 33/77/80
f 12/69/81 4/66/75 31/75/78 34/78/82
s 7
f 5/79/83 6/80/84 36/81/85 35/82/86
f 6/80/84 14/83/87 37/84/88 36/81/85
f 14/83/87 13/85/89 38/86/90 37/84/88
f 13/85/89 5/79/83 35/82/86 38/86/90
s 8
f 6/80/91 7/87/92 40/88/93 39/89/94
f 7/87/92 15/90/95 41/91/96 40/88/93
f 15/90/95 14/83/97 42/92/98 41/91/96
f 14/83/97 6/80/91 39/89/94 42/92/98
s 9
f 7/93/99 8/94/100 44/95/101 43/96/102
f 8/94/100 16/97/103 45/98/104 44/95/101
f 16/97/103 15/99/105 46/100/106 45/98/104
f 15/99/105 7/93/99 43/96/102 46/100/106
s 10
f 8/94/107 1/101/108 48/102/109 47/103/110
f 1/101/108 9/104/111 49/105/112 48/102/109
f 9/104/111 16/97/113 50/106/114 49/105/112
f 16/97/113 8/94/107 47/103/110 50/106/114
s off
f 19/107/115 20/108/116 52/109/117 51/110/118
f 20/111/119 21/112/120 53/113/121 52/114/122
f 21/115/123 22/116/124 54/117/125 53/118/126
f 22/119/127 19/120/128 51/121/129 54/122/130
f 23/123/131 24/124/132 56/125/133 55/126/134
f 24/127/135 25/128/136 57/129/137 56/130/138
f 25/131/139 26/132/140 58/133/141 57/134/142
f 26/135/143 23/136/144 55/137/145 58/138/146
f 27/139/147 28/140/148 60/141/149 59/142/150
f 28/143/151 29/144/152 61/145/153 60/146/154
f 29/147/155 30/148/156 62/149/157 61/150/158
f 30/151/159 27/152/160 59/153/161 62/154/162
f 31/155/163 32/156/164 64/157/165 63/158/166
f 32/159/167 33/160/168 65/161/169 64/162/170
f 33/163/171 34/164/172 66/165/173 65/166/174
f 34/167/175 31/168/176 63/169/177 66/170/178
f 35/171/179 36/172/180 68/173/181 67/174/182
f 36/175/183 37/176/184 69/177/185 68/178/186
f 37/179/187 38/180/188 70/181/189 69/182/190
f 38/183/191 35/184/192 67/185/193 70/186/194
f 39/187/195 40/188/196 72/189/197 71/190/198
f 40/191/199 41/192/200 73/193/201 72/194/202
f 41/195/203 42/196/204 74/197/205 73/198/206
f 42/199/207 39/200/208 71/201/209 74/202/210
f 43/203/211 44/204/212 76/205/213 75/206/214
f 44/207/215 45/208/216 77/209/217 76/210/218
f 45/211/219 46/212/220 78/213/221 77/214/222
f 46/215/223 43/216/224 75/217/225 78/218/226
f 47/219/227 48/220/228 80/221/229 79/222/230
f 48/223/231 49/224/232 81/225/233 80/226/234
f 49/227/235 50/228/236 82/229/237 81/230/238
f 50/231/239 47/232/240 79/233/241 82/234/242
g default
v -0.054713 0.679456 0.032596
v -0.069702 0.679456 0.026388
v -0.084691 0.679456 0.032596
v -0.090899 0.679456 0.047585
v -0.084691 0.679456 0.062574
v -0.069702 0.679456 0.068783
v -0.054713 0.679456 0.062574
v -0.048504 0.679456 0.047585
v -0.054713 0.693714 0.032596
v -0.069702 0.693714 0.026388
v -0.084691 0.693714 0.032596
v -0.090899 0.693714 0.047585
v -0.084691 0.693714 0.062574
v -0.069702 0.693714 0.068783
v -0.054713 0.693714 0.062574
v -0.048504 0.693714 0.047585
v -0.069702 0.679456 0.047585
v -0.069702 0.693714 0.047585
v -0.057063 0.681038 0.031623
v -0.067352 0.681038 0.027361
v -0.067352 0.692132 0.027361
v -0.057063 0.692132 0.031623
v -0.072052 0.681038 0.027361
v -0.082341 0.681038 0.031623
v -0.082341 0.692132 0.031623
v -0.072052 0.692132 0.027361
v -0.085664 0.681038 0.034946
v -0.089926 0.681038 0.045235
v -0.089926 0.692132 0.045235
v -0.085664 0.692132 0.034946
v -0.089926 0.681038 0.049935
v -0.085664 0.681038 0.060224
v -0.085664 0.692132 0.060224
v -0.089926 0.692132 0.049935
v -0.082341 0.681038 0.063548
v -0.072052 0.681038 0.067810
v -0.072052 0.692132 0.067810
v -0.082341 0.692132 0.063548
v -0.067352 0.681038 0.067810
v -0.057063 0.681038 0.063548
v -0.057063 0.692132 0.063548
v -0.067352 0.692132 0.067810
v -0.053739 0.681038 0.060224
v -0.049477 0.681038 0.049935
v -0.049477 0.692132 0.049935
v -0.053739 0.692132 0.060224
v -0.049477 0.681038 0.045235
v -0.053739 0.681038 0.034946
v -0.053739 0.692132 0.034946
v -0.049477 0.692132 0.045235
v -0.048777 0.683126 0.013355
v -0.058992 0.683126 0.009340
v -0.058992 0.690044 0.009340
v -0.048777 0.690044 0.013355
v -0.080411 0.683126 0.009340
v -0.090627 0.683126 0.013355
v -0.090627 0.690044 0.013355
v -0.080411 0.690044 0.009340
v -0.105772 0.683126 0.027728
v -0.110004 0.683126 0.037422
v -0.110004 0.690044 0.037422
v -0.105772 0.690044 0.027728
v -0.110004 0.683126 0.057748
v -0.105772 0.683126 0.067443
v -0.105772 0.690044 0.067443
v -0.110004 0.690044 0.057748
v -0.090627 0.683126 0.081815
v -0.080411 0.683126 0.085831
v -0.080411 0.690044 0.085831
v -0.090627 0.690044 0.081815
v -0.058992 0.683126 0.085831
v -0.048777 0.683126 0.081815
v -0.048777 0.690044 0.081815
v -0.058992 0.690044 0.085831
v -0.033631 0.683126 0.067443
v -0.029400 0.683126 0.057748
v -0.029400 0.690044 0.057748
v -0.033631 0.690044 0.067443
v -0.029400 0.683126 0.037422
v -0.033631 0.683126 0.027728
v -0.033631 0.690044 0.027728
v -0.029400 0.690044 0.037422
vt 0.722337 0.226841
vt 0.645698 0.226938
vt 0.645599 0.149269
vt 0.722238 0.149172
vt 0.999022 0.222232
vt 0.922383 0.222330
vt 0.922284 0.144661
vt 0.998923 0.144563
vt 0.407747 0.337934
vt 0.481601 0.337934
vt 0.481600 0.415603
vt 0.407747 0.415603
vt 0.747536 0.264178
vt 0.821390 0.264178
vt 0.821389 0.341847
vt 0.747536 0.341847
vt 0.407747 0.177955
vt 0.484385 0.177857
vt 0.484485 0.255526
vt 0.407846 0.255624
vt 0.407747 0.017878
vt 0.484385 0.017780
vt 0.484485 0.095449
vt 0.407846 0.095547
vt 0.907722 0.369456
vt 0.981576 0.369456
vt 0.981575 0.447125
vt 0.907722 0.447125
vt 0.393185 0.498009
vt 0.467038 0.498010
vt 0.467038 0.575679
vt 0.393184 0.575678
vt 0.193380 0.273482
vt 0.273481 0.353583
vt 0.136741 0.410222
vt 0.080101 0.273482
vt 0.000000 0.353583
vt 0.000000 0.466862
vt 0.080101 0.546963
vt 0.193381 0.546963
vt 0.273481 0.466862
vt 0.080101 0.273482
vt 0.000000 0.193381
vt 0.136741 0.136741
vt 0.000000 0.080101
vt 0.080101 0.000000
vt 0.193381 0.000000
vt 0.273481 0.080101
vt 0.273481 0.193381
vt 0.193381 0.273482
vt 0.488682 0.640327
vt 0.375403 0.640317
vt 0.393165 0.622558
vt 0.470923 0.622565
vt 0.375417 0.480240
vt 0.393176 0.498003
vt 0.488697 0.480251
vt 0.470934 0.498010
vt 0.262123 0.640307
vt 0.279885 0.622548
vt 0.357643 0.622555
vt 0.262137 0.480230
vt 0.279897 0.497993
vt 0.357655 0.498000
vt 0.276700 0.160077
vt 0.389979 0.160088
vt 0.372217 0.177847
vt 0.294459 0.177840
vt 0.389965 0.320164
vt 0.372206 0.302402
vt 0.276685 0.320154
vt 0.294448 0.302395
vt 0.503259 0.160098
vt 0.485497 0.177857
vt 0.407739 0.177850
vt 0.503245 0.320174
vt 0.485485 0.302412
vt 0.407727 0.302405
vt 0.276700 0.000000
vt 0.389979 0.000011
vt 0.372217 0.017770
vt 0.294459 0.017763
vt 0.389965 0.160087
vt 0.372206 0.142325
vt 0.276685 0.160077
vt 0.294448 0.142318
vt 0.503259 0.000021
vt 0.485497 0.017780
vt 0.407739 0.017773
vt 0.503245 0.160097
vt 0.485485 0.142335
vt 0.407727 0.142328
vt 0.276700 0.320154
vt 0.389979 0.320165
vt 0.372217 0.337924
vt 0.294459 0.337917
vt 0.389965 0.480241
vt 0.372206 0.462479
vt 0.276685 0.480231
vt 0.294448 0.462472
vt 0.503259 0.320175
vt 0.485497 0.337934
vt 0.407739 0.337927
vt 0.503245 0.480252
vt 0.485485 0.462489
vt 0.407727 0.462482
vt 0.075373 0.925623
vt 0.072812 0.847907
vt 0.213481 0.849047
vt 0.217378 0.925587
vt 0.842966 0.264181
vt 0.718411 0.264161
vt 0.741877 0.125458
vt 0.819546 0.125471
vt 0.907722 0.224895
vt 0.985438 0.227454
vt 0.985406 0.369459
vt 0.908866 0.365564
vt 0.491331 0.722426
vt 0.490267 0.597875
vt 0.630519 0.620120
vt 0.631182 0.697787
vt 0.956313 0.639532
vt 0.878597 0.636973
vt 0.878629 0.494968
vt 0.955169 0.498863
vt 0.755591 0.660011
vt 0.631037 0.660048
vt 0.654437 0.519984
vt 0.732106 0.519961
vt 0.923519 0.849967
vt 0.926081 0.927683
vt 0.785411 0.926543
vt 0.781514 0.850003
vt 0.641755 0.784590
vt 0.640745 0.660039
vt 0.779637 0.682356
vt 0.780267 0.760023
vt 0.843183 0.772246
vt 0.841530 0.849987
vt 0.689286 0.849999
vt 0.692231 0.776204
vt 0.639092 0.601713
vt 0.514537 0.601731
vt 0.537959 0.451299
vt 0.615628 0.451288
vt 0.800931 0.495241
vt 0.878671 0.493576
vt 0.874735 0.644528
vt 0.800941 0.647484
vt 0.736175 0.149169
vt 0.611620 0.149188
vt 0.635040 0.000012
vt 0.712709 0.000000
vt 0.019417 0.697804
vt 0.097157 0.696139
vt 0.093221 0.847091
vt 0.019427 0.850047
vt 0.270179 0.696124
vt 0.145624 0.696143
vt 0.169044 0.546967
vt 0.246713 0.546955
vt 0.372332 0.780295
vt 0.370679 0.858035
vt 0.218436 0.858047
vt 0.221381 0.784252
vt 0.639092 0.451284
vt 0.514537 0.451302
vt 0.537958 0.300871
vt 0.615628 0.300860
vt 0.923519 0.647453
vt 0.926081 0.725169
vt 0.785411 0.724029
vt 0.781514 0.647489
vt 0.838112 0.494409
vt 0.713557 0.494388
vt 0.737023 0.355685
vt 0.814692 0.355698
vt 1.000000 0.144564
vt 0.922284 0.142005
vt 0.922316 0.000000
vt 0.998856 0.003895
vt 0.266977 0.640356
vt 0.391532 0.640319
vt 0.368131 0.780382
vt 0.290462 0.780406
vt 0.402893 0.780403
vt 0.480608 0.782962
vt 0.480577 0.924967
vt 0.404037 0.921072
vt 0.498323 0.780376
vt 0.373768 0.780413
vt 0.397169 0.640349
vt 0.474838 0.640326
vt 0.638452 0.931890
vt 0.635891 0.854174
vt 0.776560 0.855314
vt 0.780457 0.931854
vt 0.101937 0.696135
vt 0.226492 0.696156
vt 0.203026 0.834859
vt 0.125357 0.834846
vt 0.728119 0.077752
vt 0.729772 0.000012
vt 0.882016 0.000000
vt 0.879070 0.073795
vt 0.514537 0.150446
vt 0.639092 0.150427
vt 0.615671 0.300859
vt 0.538002 0.300870
vt 0.902942 0.414091
vt 0.825202 0.415755
vt 0.829137 0.264803
vt 0.902932 0.261847
vt 0.000000 0.546982
vt 0.124555 0.546963
vt 0.101135 0.696139
vt 0.023466 0.696151
vt 0.917504 0.224688
vt 0.839764 0.226352
vt 0.843700 0.075400
vt 0.917494 0.072444
vt 0.621328 0.264282
vt 0.745883 0.264263
vt 0.722463 0.413439
vt 0.644794 0.413451
vt 0.485413 0.858120
vt 0.487066 0.780380
vt 0.639309 0.780368
vt 0.636364 0.854163
vt 0.504829 0.000018
vt 0.629384 0.000000
vt 0.605963 0.150432
vt 0.528294 0.150443
vn 0.365827 0.000000 -0.930683
vn 0.365827 0.000000 -0.930683
vn 0.365827 0.000000 -0.930683
vn 0.365827 0.000000 -0.930683
vn -0.365826 0.000000 -0.930683
vn -0.365826 0.000000 -0.930683
vn -0.365826 0.000000 -0.930683
vn -0.365826 0.000000 -0.930683
vn -0.916498 0.000000 -0.400038
vn -0.916498 0.000000 -0.400038
vn -0.916498 0.000000 -0.400038
vn -0.916498 0.000000 -0.400038
vn -0.916498 0.000000 0.400038
vn -0.916498 0.000000 0.400038
vn -0.916498 0.000000 0.400038
vn -0.916498 0.000000 0.400038
vn -0.365826 -0.000000 0.930683
vn -0.365826 -0.000000 0.930683
vn -0.365826 -0.000000 0.930683
vn -0.365826 -0.000000 0.930683
vn 0.365827 -0.000000 0.930683
vn 0.365827 -0.000000 0.930683
vn 0.365827 -0.000000 0.930683
vn 0.365827 -0.000000 0.930683
vn 0.916499 -0.000000 0.400038
vn 0.916499 -0.000000 0.400038
vn 0.916499 -0.000000 0.400038
vn 0.916499 -0.000000 0.400038
vn 0.916498 -0.000000 -0.400039
vn 0.916498 -0.000000 -0.400039
vn 0.916498 -0.000000 -0.400039
vn 0.916498 -0.000000 -0.400039
vn 0.000000 -1.000000 0.000000
vn 0.000000 -1.000000 0.000000
vn 0.000000 -1.000000 0.000000
vn 0.000000 -1.000000 0.000000
vn 0.000000 -1.000000 0.000000
vn 0.000000 -1.000000 0.000000
vn 0.000000 -1.000000 0.000000
vn 0.000000 -1.000000 0.000000
vn 0.000000 -1.000000 0.000000
vn 0.000000 1.000000 0.000000
vn 0.000000 1.000000 0.000000
vn 0.000000 1.000000 -0.000000
vn 0.000000 1.000000 0.000000
vn 0.000000 1.000000 0.000000
vn 0.000000 1.000000 0.000000
vn 0.000000 1.000000 0.000000
vn 0.000000 1.000000 -0.000000
vn 0.000000 1.000000 -0.000000
vn 0.382683 -0.000000 -0.923880
vn 0.382683 -0.000000 -0.923880
vn 0.382683 -0.000001 -0.923880
vn 0.382683 -0.000001 -0.923880
vn 0.382683 0.000001 -0.923880
vn 0.382683 0.000001 -0.923880
vn 0.382683 0.000001 -0.923880
vn 0.382683 0.000001 -0.923880
vn -0.382683 -0.000001 -0.923880
vn -0.382684 -0.000001 -0.923879
vn -0.382684 -0.000001 -0.923879
vn -0.382683 -0.000001 -0.923880
vn -0.382684 0.000001 -0.923879
vn -0.382684 0.000001 -0.923879
vn -0.382683 0.000001 -0.923880
vn -0.382683 0.000001 -0.923880
vn -0.923879 -0.000000 -0.382684
vn -0.923880 -0.000000 -0.382682
vn -0.923880 -0.000000 -0.382683
vn -0.923879 -0.000000 -0.382684
vn -0.923880 0.000000 -0.382683
vn -0.923880 0.000000 -0.382683
vn -0.923879 0.000000 -0.382684
vn -0.923879 0.000000 -0.382684
vn -0.923880 -0.000000 0.382683
vn -0.923879 -0.000000 0.382684
vn -0.923879 -0.000000 0.382684
vn -0.923880 -0.000000 0.382683
vn -0.923879 0.000000 0.382684
vn -0.923879 0.000000 0.382684
vn -0.923880 0.000000 0.382683
vn -0.923880 0.000000 0.382683
vn -0.382685 -0.000001 0.923879
vn -0.382683 -0.000001 0.923880
vn -0.382683 -0.000001 0.923880
vn -0.382685 -0.000001 0.923879
vn -0.382683 0.000001 0.923880
vn -0.382683 0.000001 0.923880
vn -0.382685 0.000001 0.923879
vn -0.382685 0.000001 0.923879
vn 0.382684 -0.000001 0.923879
vn 0.382685 -0.000001 0.923879
vn 0.382684 -0.000001 0.923879
vn 0.382684 -0.000001 0.923879
vn 0.382685 0.000001 0.923879
vn 0.382684 0.000001 0.923879
vn 0.382684 0.000001 0.923879
vn 0.382683 0.000001 0.923880
vn 0.923879 -0.000000 0.382684
vn 0.923879 -0.000000 0.382684
vn 0.923879 -0.000000 0.382684
vn 0.923879 -0.000000 0.382684
vn 0.923879 -0.000000 0.382684
vn 0.923879 -0.000000 0.382684
vn 0.923879 -0.000000 0.382684
vn 0.923879 -0.000000 0.382684
vn 0.923879 0.000000 -0.382684
vn 0.923879 0.000000 -0.382684
vn 0.923879 0.000000 -0.382684
vn 0.923879 0.000000 -0.382684
vn 0.923879 -0.000000 -0.382684
vn 0.923879 -0.000000 -0.382684
vn 0.923879 -0.000000 -0.382684
vn 0.923879 -0.000000 -0.382684
vn 0.038983 -0.994563 -0.096569
vn 0.038983 -0.994563 -0.096569
vn 0.038983 -0.994563 -0.096569
vn 0.038983 -0.994563 -0.096569
vn -0.907153 0.000000 -0.420801
vn -0.907153 0.000000 -0.420801
vn -0.907153 0.000000 -0.420801
vn -0.907153 0.000000 -0.420801
vn 0.038983 0.994563 -0.096569
vn 0.038983 0.994563 -0.096569
vn 0.038983 0.994563 -0.096569
vn 0.038983 0.994563 -0.096569
vn 0.910692 -0.000000 0.413086
vn 0.910692 -0.000000 0.413086
vn 0.910692 -0.000000 0.413086
vn 0.910692 -0.000000 0.413086
vn -0.038983 -0.994563 -0.096569
vn -0.038983 -0.994563 -0.096569
vn -0.038983 -0.994563 -0.096569
vn -0.038983 -0.994563 -0.096569
vn -0.910692 0.000000 0.413086
vn -0.910692 0.000000 0.413086
vn -0.910692 0.000000 0.413086
vn -0.910692 0.000000 0.413086
vn -0.038983 0.994563 -0.096569
vn -0.038983 0.994563 -0.096569
vn -0.038983 0.994563 -0.096569
vn -0.038983 0.994563 -0.096569
vn 0.907153 -0.000000 -0.420801
vn 0.907153 -0.000000 -0.420801
vn 0.907153 -0.000000 -0.420801
vn 0.907153 -0.000000 -0.420801
vn -0.089240 -0.995288 -0.037929
vn -0.089240 -0.995288 -0.037929
vn -0.089240 -0.995288 -0.037929
vn -0.089240 -0.995288 -0.037929
vn -0.362646 -0.000000 0.931927
vn -0.362646 -0.000000 0.931927
vn -0.362646 -0.000000 0.931927
vn -0.362646 -0.000000 0.931927
vn -0.089240 0.995288 -0.037928
vn -0.089240 0.995288 -0.037928
vn -0.089240 0.995288 -0.037928
vn -0.089240 0.995288 -0.037928
vn 0.337863 0.000000 -0.941195
vn 0.337863 0.000000 -0.941195
vn 0.337863 0.000000 -0.941195
vn 0.337863 0.000000 -0.941195
vn -0.089240 -0.995288 0.037929
vn -0.089240 -0.995288 0.037929
vn -0.089240 -0.995288 0.037928
vn -0.089240 -0.995288 0.037929
vn 0.337864 -0.000000 0.941195
vn 0.337864 -0.000000 0.941195
vn 0.337864 -0.000000 0.941195
vn 0.337864 -0.000000 0.941195
vn -0.089240 0.995288 0.037928
vn -0.089240 0.995288 0.037928
vn -0.089240 0.995288 0.037928
vn -0.089240 0.995288 0.037928
vn -0.362647 0.000000 -0.931927
vn -0.362647 0.000000 -0.931927
vn -0.362647 0.000000 -0.931926
vn -0.362647 0.000000 -0.931926
vn -0.038983 -0.994563 0.096569
vn -0.038983 -0.994563 0.096569
vn -0.038983 -0.994563 0.096569
vn -0.038983 -0.994563 0.096569
vn 0.907153 -0.000000 0.420802
vn 0.907153 -0.000000 0.420802
vn 0.907153 -0.000000 0.420802
vn 0.907153 -0.000000 0.420802
vn -0.038983 0.994563 0.096569
vn -0.038983 0.994563 0.096569
vn -0.038983 0.994563 0.096569
vn -0.038983 0.994563 0.096569
vn -0.910692 0.000000 -0.413087
vn -0.910692 0.000000 -0.413087
vn -0.910692 0.000000 -0.413087
vn -0.910692 0.000000 -0.413087
vn 0.038983 -0.994563 0.096569
vn 0.038983 -0.994563 0.096569
vn 0.038983 -0.994563 0.096569
vn 0.038983 -0.994563 0.096569
vn 0.910692 -0.000000 -0.413087
vn 0.910692 -0.000000 -0.413087
vn 0.910692 -0.000000 -0.413087
vn 0.910692 -0.000000 -0.413087
vn 0.038983 0.994563 0.096569
vn 0.038983 0.994563 0.096569
vn 0.038983 0.994563 0.096569
vn 0.038983 0.994563 0.096569
vn -0.907153 0.000000 0.420802
vn -0.907153 0.000000 0.420802
vn -0.907153 0.000000 0.420802
vn -0.907153 0.000000 0.420802
vn 0.089240 -0.995288 0.037928
vn 0.089240 -0.995288 0.037928
vn 0.089240 -0.995288 0.037928
vn 0.089240 -0.995288 0.037928
vn 0.362647 0.000000 -0.931927
vn 0.362647 0.000000 -0.931927
vn 0.362647 0.000000 -0.931927
vn 0.362647 0.000000 -0.931927
vn 0.089240 0.995288 0.037928
vn 0.089240 0.995288 0.037928
vn 0.089240 0.995288 0.037928
vn 0.089240 0.995288 0.037928
vn -0.337864 -0.000000 0.941195
vn -0.337864 -0.000000 0.941195
vn -0.337864 -0.000000 0.941195
vn -0.337864 -0.000000 0.941195
vn 0.089240 -0.995288 -0.037928
vn 0.089240 -0.995288 -0.037928
vn 0.089240 -0.995288 -0.037928
vn 0.089240 -0.995288 -0.037928
vn -0.337864 0.000000 -0.941195
vn -0.337864 0.000000 -0.941195
vn -0.337864 0.000000 -0.941195
vn -0.337864 0.000000 -0.941195
vn 0.089240 0.995288 -0.037928
vn 0.089240 0.995288 -0.037928
vn 0.089240 0.995288 -0.037928
vn 0.089240 0.995288 -0.037928
vn 0.362647 -0.000000 0.931926
vn 0.362647 -0.000000 0.931926
vn 0.362647 -0.000000 0.931926
vn 0.362647 -0.000000 0.931926
s off
g engranaje6 polySurface1
usemtl initialShadingGroup
f 133/235/243 134/236/244 135/237/245 136/238/246
f 137/239/247 138/240/248 139/241/249 140/242/250
f 141/243/251 142/244/252 143/245/253 144/246/254
f 145/247/255 146/248/256 147/249/257 148/250/258
f 149/251/259 150/252/260 151/253/261 152/254/262
f 153/255/263 154/256/264 155/257/265 156/258/266
f 157/259/267 158/260/268 159/261/269 160/262/270
f 161/263/271 162/264/272 163/265/273 164/266/274
s 1
f 84/267/275 83/268/276 99/269/277
f 85/270/278 84/267/275 99/269/277
f 86/271/279 85/270/278 99/269/277
f 87/272/280 86/271/279 99/269/277
f 88/273/281 87/272/280 99/269/277
f 89/274/282 88/273/281 99/269/277
f 90/275/283 89/274/282 99/269/277
f 83/268/276 90/275/283 99/269/277
s 2
f 91/276/284 92/277/285 100/278/286
f 92/277/285 93/279/287 100/278/286
f 93/279/287 94/280/288 100/278/286
f 94/280/288 95/281/289 100/278/286
f 95/281/289 96/282/290 100/278/286
f 96/282/290 97/283/291 100/278/286
f 97/283/291 98/284/292 100/278/286
f 98/284/292 91/276/284 100/278/286
s 3
f 83/285/293 84/286/294 102/287/295 101/288/296
f 84/286/294 92/289/297 103/290/298 102/287/295
f 92/289/297 91/291/299 104/292/300 103/290/298
f 91/291/299 83/285/293 101/288/296 104/292/300
s 4
f 84/286/301 85/293/302 106/294/303 105/295/304
f 85/293/302 93/296/305 107/297/306 106/294/303
f 93/296/305 92/289/307 108/298/308 107/297/306
f 92/289/307 84/286/301 105/295/304 108/298/308
s 5
f 85/299/309 86/300/310 110/301/311 109/302/312
f 86/300/310 94/303/313 111/304/314 110/301/311
f 94/303/313 93/305/315 112/306/316 111/304/314
f 93/305/315 85/299/309 109/302/312 112/306/316
s 6
f 86/300/317 87/307/318 114/308/319 113/309/320
f 87/307/318 95/310/321 115/311/322 114/308/319
f 95/310/321 94/303/323 116/312/324 115/311/322
f 94/303/323 86/300/317 113/309/320 116/312/324
s 7
f 87/313/325 88/314/326 118/315/327 117/316/328
f 88/314/326 96/317/329 119/318/330 118/315/327
f 96/317/329 95/319/331 120/320/332 119/318/330
f 95/319/331 87/313/325 117/316/328 120/320/332
s 8
f 88/314/333 89/321/334 122/322/335 121/323/336
f 89/321/334 97/324/337 123/325/338 122/322/335
f 97/324/337 96/317/339 124/326/340 123/325/338
f 96/317/339 88/314/333 121/323/336 124/326/340
s 9
f 89/327/341 90/328/342 126/329/343 125/330/344
f 90/328/342 98/331/345 127/332/346 126/329/343
f 98/331/345 97/333/347 128/334/348 127/332/346
f 97/333/347 89/327/341 125/330/344 128/334/348
s 10
f 90/328/349 83/335/350 130/336/351 129/337/352
f 83/335/350 91/338/353 131/339/354 130/336/351
f 91/338/353 98/331/355 132/340/356 131/339/354
f 98/331/355 90/328/349 129/337/352 132/340/356
s off
f 101/341/357 102/342/358 134/343/359 133/344/360
f 102/345/361 103/346/362 135/347/363 134/348/364
f 103/349/365 104/350/366 136/351/367 135/352/368
f 104/353/369 101/354/370 133/355/371 136/356/372
f 105/357/373 106/358/374 138/359/375 137/360/376
f 106/361/377 107/362/378 139/363/379 138/364/380
f 107/365/381 108/366/382 140/367/383 139/368/384
f 108/369/385 105/370/386 137/371/387 140/372/388
f 109/373/389 110/374/390 142/375/391 141/376/392
f 110/377/393 111/378/394 143/379/395 142/380/396
f 111/381/397 112/382/398 144/383/399 143/384/400
f 112/385/401 109/386/402 141/387/403 144/388/404
f 113/389/405 114/390/406 146/391/407 145/392/408
f 114/393/409 115/394/410 147/395/411 146/396/412
f 115/397/413 116/398/414 148/399/415 147/400/416
f 116/401/417 113/402/418 145/403/419 148/404/420
f 117/405/421 118/406/422 150/407/423 149/408/424
f 118/409/425 119/410/426 151/411/427 150/412/428
f 119/413/429 120/414/430 152/415/431 151/416/432
f 120/417/433 117/418/434 149/419/435 152/420/436
f 121/421/437 122/422/438 154/423/439 153/424/440
f 122/425/441 123/426/442 155/427/443 154/428/444
f 123/429/445 124/430/446 156/431/447 155/432/448
f 124/433/449 121/434/450 153/435/451 156/436/452
f 125/437/453 126/438/454 158/439/455 157/440/456
f 126/441/457 127/442/458 159/443/459 158/444/460
f 127/445/461 128/446/462 160/447/463 159/448/464
f 128/449/465 125/450/466 157/451/467 160/452/468
f 129/453/469 130/454/470 162/455/471 161/456/472
f 130/457/473 131/458/474 163/459/475 162/460/476
f 131/461/477 132/462/478 164/463/479 163/464/480
f 132/465/481 129/466/482 161/467/483 164/468/484
g default
v -0.150354 0.679456 0.093042
v -0.164472 0.679456 0.087194
v -0.178591 0.679456 0.093042
v -0.184439 0.679456 0.107160
v -0.178591 0.679456 0.121279
v -0.164472 0.679456 0.127127
v -0.150354 0.679456 0.121279
v -0.144506 0.679456 0.107160
v -0.150354 0.693714 0.093042
v -0.164472 0.693714 0.087194
v -0.178591 0.693714 0.093042
v -0.184439 0.693714 0.107160
v -0.178591 0.693714 0.121279
v -0.164472 0.693714 0.127127
v -0.150354 0.693714 0.121279
v -0.144506 0.693714 0.107160
v -0.164472 0.679456 0.107160
v -0.164472 0.693714 0.107160
v -0.152568 0.681038 0.092125
v -0.162259 0.681038 0.088110
v -0.162259 0.692132 0.088110
v -0.152568 0.692132 0.092125
v -0.166686 0.681038 0.088110
v -0.176377 0.681038 0.092125
v -0.176377 0.692132 0.092125
v -0.166686 0.692132 0.088110
v -0.179508 0.681038 0.095255
v -0.183522 0.681038 0.104947
v -0.183522 0.692132 0.104947
v -0.179508 0.692132 0.095255
v -0.183522 0.681038 0.109374
v -0.179508 0.681038 0.119065
v -0.179508 0.692132 0.119065
v -0.183522 0.692132 0.109374
v -0.176377 0.681038 0.122196
v -0.166686 0.681038 0.126210
v -0.166686 0.692132 0.126210
v -0.176377 0.692132 0.122196
v -0.162259 0.681038 0.126210
v -0.152568 0.681038 0.122196
v -0.152568 0.692132 0.122196
v -0.162259 0.692132 0.126210
v -0.149437 0.681038 0.119065
v -0.145423 0.681038 0.109374
v -0.145423 0.692132 0.109374
v -0.149437 0.692132 0.119065
v -0.145423 0.681038 0.104947
v -0.149437 0.681038 0.095255
v -0.149437 0.692132 0.095255
v -0.145423 0.692132 0.104947
v -0.144763 0.683126 0.074918
v -0.154385 0.683126 0.071136
v -0.154385 0.690044 0.071136
v -0.144763 0.690044 0.074918
v -0.174560 0.683126 0.071136
v -0.184182 0.683126 0.074918
v -0.184182 0.690044 0.074918
v -0.174560 0.690044 0.071136
v -0.198448 0.683126 0.088456
v -0.202434 0.683126 0.097587
v -0.202434 0.690044 0.097587
v -0.198448 0.690044 0.088456
v -0.202434 0.683126 0.116733
v -0.198448 0.683126 0.125864
v -0.198448 0.690044 0.125864
v -0.202434 0.690044 0.116733
v -0.184182 0.683126 0.139402
v -0.174560 0.683126 0.143184
v -0.174560 0.690044 0.143184
v -0.184182 0.690044 0.139402
v -0.154385 0.683126 0.143184
v -0.144763 0.683126 0.139402
v -0.144763 0.690044 0.139402
v -0.154385 0.690044 0.143184
v -0.130497 0.683126 0.125864
v -0.126511 0.683126 0.116733
v -0.126511 0.690044 0.116733
v -0.130497 0.690044 0.125864
v -0.126511 0.683126 0.097587
v -0.130497 0.683126 0.088456
v -0.130497 0.690044 0.088456
v -0.126511 0.690044 0.097587
vt 0.722337 0.226841
vt 0.645698 0.226938
vt 0.645599 0.149269
vt 0.722238 0.149172
vt 0.999022 0.222232
vt 0.922383 0.222330
vt 0.922284 0.144661
vt 0.998923 0.144563
vt 0.407747 0.337934
vt 0.481601 0.337934
vt 0.481600 0.415603
vt 0.407747 0.415603
vt 0.747536 0.264178
vt 0.821390 0.264178
vt 0.821389 0.341847
vt 0.747536 0.341847
vt 0.407747 0.177955
vt 0.484385 0.177857
vt 0.484485 0.255526
vt 0.407846 0.255624
vt 0.407747 0.017878
vt 0.484385 0.017780
vt 0.484485 0.095449
vt 0.407846 0.095547
vt 0.907722 0.369456
vt 0.981576 0.369456
vt 0.981575 0.447125
vt 0.907722 0.447125
vt 0.393185 0.498009
vt 0.467038 0.498010
vt 0.467038 0.575679
vt 0.393184 0.575678
vt 0.193380 0.273482
vt 0.273481 0.353583
vt 0.136741 0.410222
vt 0.080101 0.273482
vt 0.000000 0.353583
vt 0.000000 0.466862
vt 0.080101 0.546963
vt 0.193381 0.546963
vt 0.273481 0.466862
vt 0.080101 0.273482
vt 0.000000 0.193381
vt 0.136741 0.136741
vt 0.000000 0.080101
vt 0.080101 0.000000
vt 0.193381 0.000000
vt 0.273481 0.080101
vt 0.273481 0.193381
vt 0.193381 0.273482
vt 0.488682 0.640327
vt 0.375403 0.640317
vt 0.393165 0.622558
vt 0.470923 0.622565
vt 0.375417 0.480240
vt 0.393176 0.498003
vt 0.488697 0.480251
vt 0.470934 0.498010
vt 0.262123 0.640307
vt 0.279885 0.622548
vt 0.357643 0.622555
vt 0.262137 0.480230
vt 0.279897 0.497993
vt 0.357655 0.498000
vt 0.276700 0.160077
vt 0.389979 0.160088
vt 0.372217 0.177847
vt 0.294459 0.177840
vt 0.389965 0.320164
vt 0.372206 0.302402
vt 0.276685 0.320154
vt 0.294448 0.302395
vt 0.503259 0.160098
vt 0.485497 0.177857
vt 0.407739 0.177850
vt 0.503245 0.320174
vt 0.485485 0.302412
vt 0.407727 0.302405
vt 0.276700 0.000000
vt 0.389979 0.000011
vt 0.372217 0.017770
vt 0.294459 0.017763
vt 0.389965 0.160087
vt 0.372206 0.142325
vt 0.276685 0.160077
vt 0.294448 0.142318
vt 0.503259 0.000021
vt 0.485497 0.017780
vt 0.407739 0.017773
vt 0.503245 0.160097
vt 0.485485 0.142335
vt 0.407727 0.142328
vt 0.276700 0.320154
vt 0.389979 0.320165
vt 0.372217 0.337924
vt 0.294459 0.337917
vt 0.389965 0.480241
vt 0.372206 0.462479
vt 0.276685 0.480231
vt 0.294448 0.462472
vt 0.503259 0.320175
vt 0.485497 0.337934
vt 0.407739 0.337927
vt 0.503245 0.480252
vt 0.485485 0.462489
vt 0.407727 0.462482
vt 0.075373 0.925623
vt 0.072812 0.847907
vt 0.213481 0.849047
vt 0.217378 0.925587
vt 0.842966 0.264181
vt 0.718411 0.264161
vt 0.741877 0.125458
vt 0.819546 0.125471
vt 0.907722 0.224895
vt 0.985438 0.227454
vt 0.985406 0.369459
vt 0.908866 0.365564
vt 0.491331 0.722426
vt 0.490267 0.597875
vt 0.630519 0.620120
vt 0.631182 0.697787
vt 0.956313 0.639532
vt 0.878597 0.636973
vt 0.878629 0.494968
vt 0.955169 0.498863
vt 0.755591 0.660011
vt 0.631037 0.660048
vt 0.654437 0.519984
vt 0.732106 0.519961
vt 0.923519 0.849967
vt 0.926081 0.927683
vt 0.785411 0.926543
vt 0.781514 0.850003
vt 0.641755 0.784590
vt 0.640745 0.660039
vt 0.779637 0.682356
vt 0.780267 0.760023
vt 0.843183 0.772246
vt 0.841530 0.849987
vt 0.689286 0.849999
vt 0.692231 0.776204
vt 0.639092 0.601713
vt 0.514537 0.601731
vt 0.537959 0.451299
vt 0.615628 0.451288
vt 0.800931 0.495241
vt 0.878671 0.493576
vt 0.874735 0.644528
vt 0.800941 0.647484
vt 0.736175 0.149169
vt 0.611620 0.149188
vt 0.635040 0.000012
vt 0.712709 0.000000
vt 0.019417 0.697804
vt 0.097157 0.696139
vt 0.093221 0.847091
vt 0.019427 0.850047
vt 0.270179 0.696124
vt 0.145624 0.696143
vt 0.169044 0.546967
vt 0.246713 0.546955
vt 0.372332 0.780295
vt 0.370679 0.858035
vt 0.218436 0.858047
vt 0.221381 0.784252
vt 0.639092 0.451284
vt 0.514537 0.451302
vt 0.537958 0.300871
vt 0.615628 0.300860
vt 0.923519 0.647453
vt 0.926081 0.725169
vt 0.785411 0.724029
vt 0.781514 0.647489
vt 0.838112 0.494409
vt 0.713557 0.494388
vt 0.737023 0.355685
vt 0.814692 0.355698
vt 1.000000 0.144564
vt 0.922284 0.142005
vt 0.922316 0.000000
vt 0.998856 0.003895
vt 0.266977 0.640356
vt 0.391532 0.640319
vt 0.368131 0.780382
vt 0.290462 0.780406
vt 0.402893 0.780403
vt 0.480608 0.782962
vt 0.480577 0.924967
vt 0.404037 0.921072
vt 0.498323 0.780376
vt 0.373768 0.780413
vt 0.397169 0.640349
vt 0.474838 0.640326
vt 0.638452 0.931890
vt 0.635891 0.854174
vt 0.776560 0.855314
vt 0.780457 0.931854
vt 0.101937 0.696135
vt 0.226492 0.696156
vt 0.203026 0.834859
vt 0.125357 0.834846
vt 0.728119 0.077752
vt 0.729772 0.000012
vt 0.882016 0.000000
vt 0.879070 0.073795
vt 0.514537 0.150446
vt 0.639092 0.150427
vt 0.615671 0.300859
vt 0.538002 0.300870
vt 0.902942 0.414091
vt 0.825202 0.415755
vt 0.829137 0.264803
vt 0.902932 0.261847
vt 0.000000 0.546982
vt 0.124555 0.546963
vt 0.101135 0.696139
vt 0.023466 0.696151
vt 0.917504 0.224688
vt 0.839764 0.226352
vt 0.843700 0.075400
vt 0.917494 0.072444
vt 0.621328 0.264282
vt 0.745883 0.264263
vt 0.722463 0.413439
vt 0.644794 0.413451
vt 0.485413 0.858120
vt 0.487066 0.780380
vt 0.639309 0.780368
vt 0.636364 0.854163
vt 0.504829 0.000018
vt 0.629384 0.000000
vt 0.605963 0.150432
vt 0.528294 0.150443
vn 0.365826 0.000000 -0.930683
vn 0.365826 0.000000 -0.930683
vn 0.365826 0.000000 -0.930683
vn 0.365826 0.000000 -0.930683
vn -0.365826 0.000000 -0.930683
vn -0.365826 0.000000 -0.930683
vn -0.365826 0.000000 -0.930683
vn -0.365826 0.000000 -0.930683
vn -0.916499 0.000000 -0.400037
vn -0.916499 0.000000 -0.400037
vn -0.916499 0.000000 -0.400037
vn -0.916499 0.000000 -0.400037
vn -0.916499 0.000000 0.400037
vn -0.916499 0.000000 0.400037
vn -0.916499 0.000000 0.400037
vn -0.916499 0.000000 0.400037
vn -0.365825 -0.000000 0.930684
vn -0.365825 -0.000000 0.930684
vn -0.365825 -0.000000 0.930684
vn -0.365825 -0.000000 0.930684
vn 0.365826 -0.000000 0.930683
vn 0.365826 -0.000000 0.930683
vn 0.365826 -0.000000 0.930683
vn 0.365826 -0.000000 0.930683
vn 0.916499 -0.000000 0.400037
vn 0.916499 -0.000000 0.400037
vn 0.916499 -0.000000 0.400037
vn 0.916499 -0.000000 0.400037
vn 0.916498 -0.000000 -0.400039
vn 0.916498 -0.000000 -0.400039
vn 0.916498 -0.000000 -0.400039
vn 0.916498 -0.000000 -0.400039
vn 0.000000 -1.000000 0.000000
vn 0.000000 -1.000000 -0.000000
vn 0.000000 -1.000000 -0.000000
vn 0.000000 -1.000000 -0.000000
vn 0.000000 -1.000000 -0.000000
vn 0.000000 -1.000000 0.000000
vn 0.000000 -1.000000 0.000000
vn 0.000000 -1.000000 0.000000
vn 0.000000 -1.000000 -0.000000
vn 0.000000 1.000000 0.000000
vn 0.000000 1.000000 0.000000
vn 0.000000 1.000000 0.000000
vn 0.000000 1.000000 0.000000
vn 0.000000 1.000000 0.000000
vn 0.000000 1.000000 0.000000
vn 0.000000 1.000000 0.000000
vn 0.000000 1.000000 0.000000
vn 0.000000 1.000000 0.000000
vn 0.382683 -0.000000 -0.923880
vn 0.382683 -0.000000 -0.923880
vn 0.382683 -0.000001 -0.923880
vn 0.382683 -0.000001 -0.923880
vn 0.382683 0.000000 -0.923880
vn 0.382683 0.000000 -0.923880
vn 0.382683 0.000000 -0.923880
vn 0.382683 0.000000 -0.923880
vn -0.382683 0.000000 -0.923880
vn -0.382682 0.000000 -0.923880
vn -0.382682 0.000000 -0.923880
vn -0.382683 0.000000 -0.923880
vn -0.382682 0.000000 -0.923880
vn -0.382682 0.000000 -0.923880
vn -0.382683 0.000000 -0.923880
vn -0.382683 0.000000 -0.923880
vn -0.923880 -0.000001 -0.382683
vn -0.923880 -0.000001 -0.382684
vn -0.923879 -0.000002 -0.382684
vn -0.923880 -0.000002 -0.382683
vn -0.923880 0.000002 -0.382684
vn -0.923879 0.000003 -0.382684
vn -0.923880 0.000002 -0.382683
vn -0.923880 0.000003 -0.382683
vn -0.923880 -0.000002 0.382683
vn -0.923880 -0.000002 0.382684
vn -0.923879 -0.000003 0.382684
vn -0.923880 -0.000003 0.382683
vn -0.923880 0.000001 0.382684
vn -0.923879 0.000002 0.382684
vn -0.923880 0.000001 0.382683
vn -0.923880 0.000002 0.382683
vn -0.382683 -0.000000 0.923880
vn -0.382685 -0.000000 0.923879
vn -0.382684 -0.000000 0.923879
vn -0.382683 -0.000000 0.923880
vn -0.382685 -0.000000 0.923879
vn -0.382684 -0.000000 0.923879
vn -0.382683 -0.000000 0.923880
vn -0.382683 -0.000000 0.923880
vn 0.382685 -0.000000 0.923879
vn 0.382685 -0.000000 0.923879
vn 0.382685 -0.000000 0.923879
vn 0.382684 -0.000000 0.923879
vn 0.382685 0.000000 0.923879
vn 0.382685 0.000001 0.923879
vn 0.382685 0.000000 0.923879
vn 0.382684 0.000001 0.923879
vn 0.923879 0.000001 0.382684
vn 0.923879 0.000001 0.382684
vn 0.923879 0.000002 0.382684
vn 0.923879 0.000002 0.382684
vn 0.923879 -0.000001 0.382684
vn 0.923879 -0.000002 0.382684
vn 0.923879 -0.000001 0.382684
vn 0.923879 -0.000002 0.382684
vn 0.923879 0.000001 -0.382685
vn 0.923880 0.000001 -0.382683
vn 0.923880 0.000002 -0.382683
vn 0.923879 0.000002 -0.382685
vn 0.923880 -0.000001 -0.382683
vn 0.923880 -0.000002 -0.382683
vn 0.923879 -0.000001 -0.382685
vn 0.923879 -0.000002 -0.382685
vn 0.041358 -0.993878 -0.102453
vn 0.041358 -0.993878 -0.102453
vn 0.041358 -0.993878 -0.102453
vn 0.041358 -0.993878 -0.102453
vn -0.907153 0.000000 -0.420802
vn -0.907153 0.000000 -0.420802
vn -0.907153 0.000000 -0.420802
vn -0.907153 0.000000 -0.420802
vn 0.041358 0.993878 -0.102453
vn 0.041358 0.993878 -0.102453
vn 0.041358 0.993878 -0.102453
vn 0.041358 0.993878 -0.102453
vn 0.910692 -0.000000 0.413086
vn 0.910692 -0.000000 0.413086
vn 0.910692 -0.000000 0.413086
vn 0.910692 -0.000000 0.413086
vn -0.041358 -0.993878 -0.102453
vn -0.041358 -0.993878 -0.102453
vn -0.041358 -0.993878 -0.102453
vn -0.041358 -0.993878 -0.102453
vn -0.910692 0.000000 0.413086
vn -0.910692 0.000000 0.413086
vn -0.910692 0.000000 0.413086
vn -0.910692 0.000000 0.413086
vn -0.041358 0.993878 -0.102453
vn -0.041358 0.993878 -0.102453
vn -0.041358 0.993878 -0.102453
vn -0.041358 0.993878 -0.102453
vn 0.907153 -0.000000 -0.420801
vn 0.907153 -0.000000 -0.420801
vn 0.907153 -0.000000 -0.420801
vn 0.907153 -0.000000 -0.420801
vn -0.094686 -0.994693 -0.040243
vn -0.094686 -0.994693 -0.040243
vn -0.094686 -0.994693 -0.040243
vn -0.094686 -0.994693 -0.040243
vn -0.362647 -0.000000 0.931927
vn -0.362647 -0.000000 0.931927
vn -0.362647 -0.000000 0.931927
vn -0.362647 -0.000000 0.931927
vn -0.094686 0.994693 -0.040243
vn -0.094686 0.994693 -0.040243
vn -0.094686 0.994693 -0.040243
vn -0.094686 0.994693 -0.040243
vn 0.337863 0.000000 -0.941195
vn 0.337863 0.000000 -0.941195
vn 0.337863 0.000000 -0.941195
vn 0.337863 0.000000 -0.941195
vn -0.094686 -0.994693 0.040243
vn -0.094686 -0.994693 0.040243
vn -0.094686 -0.994693 0.040243
vn -0.094686 -0.994693 0.040243
vn 0.337864 -0.000000 0.941195
vn 0.337864 -0.000000 0.941195
vn 0.337864 -0.000000 0.941195
vn 0.337864 -0.000000 0.941195
vn -0.094686 0.994693 0.040243
vn -0.094686 0.994693 0.040243
vn -0.094686 0.994693 0.040243
vn -0.094686 0.994693 0.040243
vn -0.362647 0.000000 -0.931926
vn -0.362647 0.000000 -0.931926
vn -0.362647 0.000000 -0.931926
vn -0.362647 0.000000 -0.931926
vn -0.041358 -0.993878 0.102453
vn -0.041358 -0.993878 0.102453
vn -0.041358 -0.993878 0.102453
vn -0.041358 -0.993878 0.102453
vn 0.907153 -0.000000 0.420802
vn 0.907153 -0.000000 0.420802
vn 0.907153 -0.000000 0.420802
vn 0.907153 -0.000000 0.420802
vn -0.041358 0.993878 0.102453
vn -0.041358 0.993878 0.102453
vn -0.041358 0.993878 0.102453
vn -0.041358 0.993878 0.102453
vn -0.910692 0.000000 -0.413086
vn -0.910692 0.000000 -0.413086
vn -0.910692 0.000000 -0.413086
vn -0.910692 0.000000 -0.413086
vn 0.041358 -0.993878 0.102453
vn 0.041358 -0.993878 0.102453
vn 0.041358 -0.993878 0.102453
vn 0.041358 -0.993878 0.102453
vn 0.910692 -0.000000 -0.413086
vn 0.910692 -0.000000 -0.413086
vn 0.910692 -0.000000 -0.413086
vn 0.910692 -0.000000 -0.413086
vn 0.041358 0.993878 0.102453
vn 0.041358 0.993878 0.102453
vn 0.041358 0.993878 0.102453
vn 0.041358 0.993878 0.102453
vn -0.907153 0.000000 0.420801
vn -0.907153 0.000000 0.420801
vn -0.907153 0.000000 0.420802
vn -0.907153 0.000000 0.420802
vn 0.094686 -0.994693 0.040243
vn 0.094686 -0.994693 0.040243
vn 0.094686 -0.994693 0.040243
vn 0.094686 -0.994693 0.040243
vn 0.362647 0.000000 -0.931927
vn 0.362647 0.000000 -0.931927
vn 0.362647 0.000000 -0.931927
vn 0.362647 0.000000 -0.931927
vn 0.094686 0.994693 0.040243
vn 0.094686 0.994693 0.040243
vn 0.094686 0.994693 0.040243
vn 0.094686 0.994693 0.040243
vn -0.337864 -0.000000 0.941195
vn -0.337864 -0.000000 0.941195
vn -0.337864 -0.000000 0.941195
vn -0.337864 -0.000000 0.941195
vn 0.094686 -0.994693 -0.040243
vn 0.094686 -0.994693 -0.040243
vn 0.094686 -0.994693 -0.040243
vn 0.094686 -0.994693 -0.040243
vn -0.337863 0.000000 -0.941195
vn -0.337863 0.000000 -0.941195
vn -0.337863 0.000000 -0.941195
vn -0.337863 0.000000 -0.941195
vn 0.094686 0.994693 -0.040243
vn 0.094686 0.994693 -0.040243
vn 0.094686 0.994693 -0.040243
vn 0.094686 0.994693 -0.040243
vn 0.362648 -0.000000 0.931926
vn 0.362648 -0.000000 0.931926
vn 0.362648 -0.000000 0.931926
vn 0.362648 -0.000000 0.931926
s off
g engranaje6 polySurface5
usemtl initialShadingGroup
f 215/469/485 216/470/486 217/471/487 218/472/488
f 219/473/489 220/474/490 221/475/491 222/476/492
f 223/477/493 224/478/494 225/479/495 226/480/496
f 227/481/497 228/482/498 229/483/499 230/484/500
f 231/485/501 232/486/502 233/487/503 234/488/504
f 235/489/505 236/490/506 237/491/507 238/492/508
f 239/493/509 240/494/510 241/495/511 242/496/512
f 243/497/513 244/498/514 245/499/515 246/500/516
s 1
f 166/501/517 165/502/518 181/503/519
f 167/504/520 166/501/517 181/503/519
f 168/505/521 167/504/520 181/503/519
f 169/506/522 168/505/521 181/503/519
f 170/507/523 169/506/522 181/503/519
f 171/508/524 170/507/523 181/503/519
f 172/509/525 171/508/524 181/503/519
f 165/502/518 172/509/525 181/503/519
s 2
f 173/510/526 174/511/527 182/512/528
f 174/511/527 175/513/529 182/512/528
f 175/513/529 176/514/530 182/512/528
f 176/514/530 177/515/531 182/512/528
f 177/515/531 178/516/532 182/512/528
f 178/516/532 179/517/533 182/512/528
f 179/517/533 180/518/534 182/512/528
f 180/518/534 173/510/526 182/512/528
s 3
f 165/519/535 166/520/536 184/521/537 183/522/538
f 166/520/536 174/523/539 185/524/540 184/521/537
f 174/523/539 173/525/541 186/526/542 185/524/540
f 173/525/541 165/519/535 183/522/538 186/526/542
s 4
f 166/520/543 167/527/544 188/528/545 187/529/546
f 167/527/544 175/530/547 189/531/548 188/528/545
f 175/530/547 174/523/549 190/532/550 189/531/548
f 174/523/549 166/520/543 187/529/546 190/532/550
s 5
f 167/533/551 168/534/552 192/535/553 191/536/554
f 168/534/552 176/537/555 193/538/556 192/535/553
f 176/537/555 175/539/557 194/540/558 193/538/556
f 175/539/557 167/533/551 191/536/554 194/540/558
s 6
f 168/534/559 169/541/560 196/542/561 195/543/562
f 169/541/560 177/544/563 197/545/564 196/542/561
f 177/544/563 176/537/565 198/546/566 197/545/564
f 176/537/565 168/534/559 195/543/562 198/546/566
s 7
f 169/547/567 170/548/568 200/549/569 199/550/570
f 170/548/568 178/551/571 201/552/572 200/549/569
f 178/551/571 177/553/573 202/554/574 201/552/572
f 177/553/573 169/547/567 199/550/570 202/554/574
s 8
f 170/548/575 171/555/576 204/556/577 203/557/578
f 171/555/576 179/558/579 205/559/580 204/556/577
f 179/558/579 178/551/581 206/560/582 205/559/580
f 178/551/581 170/548/575 203/557/578 206/560/582
s 9
f 171/561/583 172/562/584 208/563/585 207/564/586
f 172/562/584 180/565/587 209/566/588 208/563/585
f 180/565/587 179/567/589 210/568/590 209/566/588
f 179/567/589 171/561/583 207/564/586 210/568/590
s 10
f 172/562/591 165/569/592 212/570/593 211/571/594
f 165/569/592 173/572/595 213/573/596 212/570/593
f 173/572/595 180/565/597 214/574/598 213/573/596
f 180/565/597 172/562/591 211/571/594 214/574/598
s off
f 183/575/599 184/576/600 216/577/601 215/578/602
f 184/579/603 185/580/604 217/581/605 216/582/606
f 185/583/607 186/584/608 218/585/609 217/586/610
f 186/587/611 183/588/612 215/589/613 218/590/614
f 187/591/615 188/592/616 220/593/617 219/594/618
f 188/595/619 189/596/620 221/597/621 220/598/622
f 189/599/623 190/600/624 222/601/625 221/602/626
f 190/603/627 187/604/628 219/605/629 222/606/630
f 191/607/631 192/608/632 224/609/633 223/610/634
f 192/611/635 193/612/636 225/613/637 224/614/638
f 193/615/639 194/616/640 226/617/641 225/618/642
f 194/619/643 191/620/644 223/621/645 226/622/646
f 195/623/647 196/624/648 228/625/649 227/626/650
f 196/627/651 197/628/652 229/629/653 228/630/654
f 197/631/655 198/632/656 230/633/657 229/634/658
f 198/635/659 195/636/660 227/637/661 230/638/662
f 199/639/663 200/640/664 232/641/665 231/642/666
f 200/643/667 201/644/668 233/645/669 232/646/670
f 201/647/671 202/648/672 234/649/673 233/650/674
f 202/651/675 199/652/676 231/653/677 234/654/678
f 203/655/679 204/656/680 236/657/681 235/658/682
f 204/659/683 205/660/684 237/661/685 236/662/686
f 205/663/687 206/664/688 238/665/689 237/666/690
f 206/667/691 203/668/692 235/669/693 238/670/694
f 207/671/695 208/672/696 240/673/697 239/674/698
f 208/675/699 209/676/700 241/677/701 240/678/702
f 209/679/703 210/680/704 242/681/705 241/682/706
f 210/683/707 207/684/708 239/685/709 242/686/710
f 211/687/711 212/688/712 244/689/713 243/690/714
f 212/691/715 213/692/716 245/693/717 244/694/718
f 213/695/719 214/696/720 246/697/721 245/698/722
f 214/699/723 211/700/724 243/701/725 246/702/726
g default
v -0.122175 0.679456 0.049915
v -0.131497 0.679456 0.046054
v -0.140818 0.679456 0.049915
v -0.144679 0.679456 0.059237
v -0.140818 0.679456 0.068558
v -0.131497 0.679456 0.072419
v -0.122175 0.679456 0.068558
v -0.118314 0.679456 0.059237
v -0.122175 0.693714 0.049915
v -0.131497 0.693714 0.046054
v -0.140818 0.693714 0.049915
v -0.144679 0.693714 0.059237
v -0.140818 0.693714 0.068558
v -0.131497 0.693714 0.072419
v -0.122175 0.693714 0.068558
v -0.118314 0.693714 0.059237
v -0.131497 0.679456 0.059237
v -0.131497 0.693714 0.059237
v -0.123637 0.681038 0.049310
v -0.130035 0.681038 0.046660
v -0.130035 0.692132 0.046660
v -0.123637 0.692132 0.049310
v -0.132958 0.681038 0.046660
v -0.139357 0.681038 0.049310
v -0.139357 0.692132 0.049310
v -0.132958 0.692132 0.046660
v -0.141423 0.681038 0.051377
v -0.144074 0.681038 0.057775
v -0.144074 0.692132 0.057775
v -0.141423 0.692132 0.051377
v -0.144074 0.681038 0.060698
v -0.141423 0.681038 0.067097
v -0.141423 0.692132 0.067097
v -0.144074 0.692132 0.060698
v -0.139357 0.681038 0.069164
v -0.132958 0.681038 0.071814
v -0.132958 0.692132 0.071814
v -0.139357 0.692132 0.069164
v -0.130035 0.681038 0.071814
v -0.123637 0.681038 0.069164
v -0.123637 0.692132 0.069164
v -0.130035 0.692132 0.071814
v -0.121570 0.681038 0.067097
v -0.118919 0.681038 0.060698
v -0.118919 0.692132 0.060698
v -0.121570 0.692132 0.067097
v -0.118919 0.681038 0.057775
v -0.121570 0.681038 0.051377
v -0.121570 0.692132 0.051377
v -0.118919 0.692132 0.057775
v -0.118484 0.683126 0.037950
v -0.124836 0.683126 0.035452
v -0.124836 0.690044 0.035452
v -0.118484 0.690044 0.037950
v -0.138157 0.683126 0.035452
v -0.144510 0.683126 0.037950
v -0.144510 0.690044 0.037950
v -0.138157 0.690044 0.035452
v -0.153928 0.683126 0.046888
v -0.156560 0.683126 0.052916
v -0.156560 0.690044 0.052916
v -0.153928 0.690044 0.046888
v -0.156560 0.683126 0.065557
v -0.153928 0.683126 0.071586
v -0.153928 0.690044 0.071586
v -0.156560 0.690044 0.065557
v -0.144510 0.683126 0.080524
v -0.138157 0.683126 0.083021
v -0.138157 0.690044 0.083021
v -0.144510 0.690044 0.080524
v -0.124836 0.683126 0.083021
v -0.118484 0.683126 0.080524
v -0.118484 0.690044 0.080524
v -0.124836 0.690044 0.083021
v -0.109065 0.683126 0.071586
v -0.106433 0.683126 0.065557
v -0.106433 0.690044 0.065557
v -0.109065 0.690044 0.071586
v -0.106433 0.683126 0.052916
v -0.109065 0.683126 0.046888
v -0.109065 0.690044 0.046888
v -0.106433 0.690044 0.052916
vt 0.722337 0.226841
vt 0.645698 0.226938
vt 0.645599 0.149269
vt 0.722238 0.149172
vt 0.999022 0.222232
vt 0.922383 0.222330
vt 0.922284 0.144661
vt 0.998923 0.144563
vt 0.407747 0.337934
vt 0.481601 0.337934
vt 0.481600 0.415603
vt 0.407747 0.415603
vt 0.747536 0.264178
vt 0.821390 0.264178
vt 0.821389 0.341847
vt 0.747536 0.341847
vt 0.407747 0.177955
vt 0.484385 0.177857
vt 0.484485 0.255526
vt 0.407846 0.255624
vt 0.407747 0.017878
vt 0.484385 0.017780
vt 0.484485 0.095449
vt 0.407846 0.095547
vt 0.907722 0.369456
vt 0.981576 0.369456
vt 0.981575 0.447125
vt 0.907722 0.447125
vt 0.393185 0.498009
vt 0.467038 0.498010
vt 0.467038 0.575679
vt 0.393184 0.575678
vt 0.193380 0.273482
vt 0.273481 0.353583
vt 0.136741 0.410222
vt 0.080101 0.273482
vt 0.000000 0.353583
vt 0.000000 0.466862
vt 0.080101 0.546963
vt 0.193381 0.546963
vt 0.273481 0.466862
vt 0.080101 0.273482
vt 0.000000 0.193381
vt 0.136741 0.136741
vt 0.000000 0.080101
vt 0.080101 0.000000
vt 0.193381 0.000000
vt 0.273481 0.080101
vt 0.273481 0.193381
vt 0.193381 0.273482
vt 0.488682 0.640327
vt 0.375403 0.640317
vt 0.393165 0.622558
vt 0.470923 0.622565
vt 0.375417 0.480240
vt 0.393176 0.498003
vt 0.488697 0.480251
vt 0.470934 0.498010
vt 0.262123 0.640307
vt 0.279885 0.622548
vt 0.357643 0.622555
vt 0.262137 0.480230
vt 0.279897 0.497993
vt 0.357655 0.498000
vt 0.276700 0.160077
vt 0.389979 0.160088
vt 0.372217 0.177847
vt 0.294459 0.177840
vt 0.389965 0.320164
vt 0.372206 0.302402
vt 0.276685 0.320154
vt 0.294448 0.302395
vt 0.503259 0.160098
vt 0.485497 0.177857
vt 0.407739 0.177850
vt 0.503245 0.320174
vt 0.485485 0.302412
vt 0.407727 0.302405
vt 0.276700 0.000000
vt 0.389979 0.000011
vt 0.372217 0.017770
vt 0.294459 0.017763
vt 0.389965 0.160087
vt 0.372206 0.142325
vt 0.276685 0.160077
vt 0.294448 0.142318
vt 0.503259 0.000021
vt 0.485497 0.017780
vt 0.407739 0.017773
vt 0.503245 0.160097
vt 0.485485 0.142335
vt 0.407727 0.142328
vt 0.276700 0.320154
vt 0.389979 0.320165
vt 0.372217 0.337924
vt 0.294459 0.337917
vt 0.389965 0.480241
vt 0.372206 0.462479
vt 0.276685 0.480231
vt 0.294448 0.462472
vt 0.503259 0.320175
vt 0.485497 0.337934
vt 0.407739 0.337927
vt 0.503245 0.480252
vt 0.485485 0.462489
vt 0.407727 0.462482
vt 0.075373 0.925623
vt 0.072812 0.847907
vt 0.213481 0.849047
vt 0.217378 0.925587
vt 0.842966 0.264181
vt 0.718411 0.264161
vt 0.741877 0.125458
vt 0.819546 0.125471
vt 0.907722 0.224895
vt 0.985438 0.227454
vt 0.985406 0.369459
vt 0.908866 0.365564
vt 0.491331 0.722426
vt 0.490267 0.597875
vt 0.630519 0.620120
vt 0.631182 0.697787
vt 0.956313 0.639532
vt 0.878597 0.636973
vt 0.878629 0.494968
vt 0.955169 0.498863
vt 0.755591 0.660011
vt 0.631037 0.660048
vt 0.654437 0.519984
vt 0.732106 0.519961
vt 0.923519 0.849967
vt 0.926081 0.927683
vt 0.785411 0.926543
vt 0.781514 0.850003
vt 0.641755 0.784590
vt 0.640745 0.660039
vt 0.779637 0.682356
vt 0.780267 0.760023
vt 0.843183 0.772246
vt 0.841530 0.849987
vt 0.689286 0.849999
vt 0.692231 0.776204
vt 0.639092 0.601713
vt 0.514537 0.601731
vt 0.537959 0.451299
vt 0.615628 0.451288
vt 0.800931 0.495241
vt 0.878671 0.493576
vt 0.874735 0.644528
vt 0.800941 0.647484
vt 0.736175 0.149169
vt 0.611620 0.149188
vt 0.635040 0.000012
vt 0.712709 0.000000
vt 0.019417 0.697804
vt 0.097157 0.696139
vt 0.093221 0.847091
vt 0.019427 0.850047
vt 0.270179 0.696124
vt 0.145624 0.696143
vt 0.169044 0.546967
vt 0.246713 0.546955
vt 0.372332 0.780295
vt 0.370679 0.858035
vt 0.218436 0.858047
vt 0.221381 0.784252
vt 0.639092 0.451284
vt 0.514537 0.451302
vt 0.537958 0.300871
vt 0.615628 0.300860
vt 0.923519 0.647453
vt 0.926081 0.725169
vt 0.785411 0.724029
vt 0.781514 0.647489
vt 0.838112 0.494409
vt 0.713557 0.494388
vt 0.737023 0.355685
vt 0.814692 0.355698
vt 1.000000 0.144564
vt 0.922284 0.142005
vt 0.922316 0.000000
vt 0.998856 0.003895
vt 0.266977 0.640356
vt 0.391532 0.640319
vt 0.368131 0.780382
vt 0.290462 0.780406
vt 0.402893 0.780403
vt 0.480608 0.782962
vt 0.480577 0.924967
vt 0.404037 0.921072
vt 0.498323 0.780376
vt 0.373768 0.780413
vt 0.397169 0.640349
vt 0.474838 0.640326
vt 0.638452 0.931890
vt 0.635891 0.854174
vt 0.776560 0.855314
vt 0.780457 0.931854
vt 0.101937 0.696135
vt 0.226492 0.696156
vt 0.203026 0.834859
vt 0.125357 0.834846
vt 0.728119 0.077752
vt 0.729772 0.000012
vt 0.882016 0.000000
vt 0.879070 0.073795
vt 0.514537 0.150446
vt 0.639092 0.150427
vt 0.615671 0.300859
vt 0.538002 0.300870
vt 0.902942 0.414091
vt 0.825202 0.415755
vt 0.829137 0.264803
vt 0.902932 0.261847
vt 0.000000 0.546982
vt 0.124555 0.546963
vt 0.101135 0.696139
vt 0.023466 0.696151
vt 0.917504 0.224688
vt 0.839764 0.226352
vt 0.843700 0.075400
vt 0.917494 0.072444
vt 0.621328 0.264282
vt 0.745883 0.264263
vt 0.722463 0.413439
vt 0.644794 0.413451
vt 0.485413 0.858120
vt 0.487066 0.780380
vt 0.639309 0.780368
vt 0.636364 0.854163
vt 0.504829 0.000018
vt 0.629384 0.000000
vt 0.605963 0.150432
vt 0.528294 0.150443
vn 0.365826 0.000000 -0.930683
vn 0.365826 0.000000 -0.930683
vn 0.365826 0.000000 -0.930683
vn 0.365826 0.000000 -0.930683
vn -0.365826 0.000000 -0.930683
vn -0.365826 0.000000 -0.930683
vn -0.365826 0.000000 -0.930683
vn -0.365826 0.000000 -0.930683
vn -0.916498 0.000000 -0.400039
vn -0.916498 0.000000 -0.400039
vn -0.916498 0.000000 -0.400039
vn -0.916498 0.000000 -0.400039
vn -0.916498 0.000000 0.400039
vn -0.916498 0.000000 0.400039
vn -0.916498 0.000000 0.400039
vn -0.916498 0.000000 0.400039
vn -0.365826 -0.000000 0.930683
vn -0.365826 -0.000000 0.930683
vn -0.365826 -0.000000 0.930683
vn -0.365826 -0.000000 0.930683
vn 0.365826 -0.000000 0.930683
vn 0.365826 -0.000000 0.930683
vn 0.365826 -0.000000 0.930683
vn 0.365826 -0.000000 0.930683
vn 0.916499 -0.000000 0.400038
vn 0.916499 -0.000000 0.400038
vn 0.916499 -0.000000 0.400038
vn 0.916499 -0.000000 0.400038
vn 0.916498 -0.000000 -0.400039
vn 0.916498 -0.000000 -0.400039
vn 0.916498 -0.000000 -0.400039
vn 0.916498 -0.000000 -0.400039
vn 0.000000 -1.000000 0.000000
vn 0.000000 -1.000000 0.000000
vn 0.000000 -1.000000 0.000000
vn 0.000000 -1.000000 0.000000
vn 0.000000 -1.000000 0.000000
vn 0.000000 -1.000000 0.000000
vn 0.000000 -1.000000 0.000000
vn 0.000000 -1.000000 0.000000
vn 0.000000 -1.000000 0.000000
vn 0.000000 1.000000 0.000000
vn 0.000000 1.000000 0.000000
vn 0.000000 1.000000 0.000000
vn 0.000000 1.000000 0.000000
vn 0.000000 1.000000 0.000000
vn 0.000000 1.000000 0.000000
vn 0.000000 1.000000 0.000000
vn 0.000000 1.000000 0.000000
vn 0.000000 1.000000 0.000000
vn 0.382686 -0.000000 -0.923878
vn 0.382685 -0.000000 -0.923879
vn 0.382685 -0.000000 -0.923879
vn 0.382686 -0.000000 -0.923878
vn 0.382684 0.000001 -0.923879
vn 0.382684 0.000001 -0.923879
vn 0.382686 0.000001 -0.923879
vn 0.382686 0.000001 -0.923879
vn -0.382686 0.000000 -0.923878
vn -0.382687 0.000000 -0.923878
vn -0.382687 0.000000 -0.923878
vn -0.382686 0.000000 -0.923878
vn -0.382686 0.000000 -0.923878
vn -0.382686 0.000000 -0.923878
vn -0.382686 0.000000 -0.923879
vn -0.382686 0.000000 -0.923879
vn -0.923879 0.000000 -0.382684
vn -0.923879 0.000000 -0.382684
vn -0.923879 0.000000 -0.382684
vn -0.923879 0.000000 -0.382684
vn -0.923879 0.000000 -0.382684
vn -0.923879 0.000000 -0.382684
vn -0.923879 0.000000 -0.382684
vn -0.923879 0.000000 -0.382684
vn -0.923879 -0.000000 0.382685
vn -0.923879 -0.000000 0.382685
vn -0.923879 -0.000000 0.382685
vn -0.923879 -0.000000 0.382685
vn -0.923879 -0.000000 0.382685
vn -0.923879 -0.000000 0.382685
vn -0.923879 -0.000000 0.382685
vn -0.923879 -0.000000 0.382685
vn -0.382685 -0.000000 0.923879
vn -0.382685 -0.000000 0.923879
vn -0.382685 -0.000000 0.923879
vn -0.382686 -0.000000 0.923879
vn -0.382684 -0.000000 0.923879
vn -0.382684 -0.000000 0.923879
vn -0.382685 -0.000000 0.923879
vn -0.382685 -0.000000 0.923879
vn 0.382684 -0.000001 0.923879
vn 0.382684 -0.000001 0.923879
vn 0.382684 -0.000001 0.923879
vn 0.382684 -0.000001 0.923879
vn 0.382684 0.000000 0.923879
vn 0.382684 0.000000 0.923879
vn 0.382684 0.000000 0.923879
vn 0.382684 0.000000 0.923879
vn 0.923879 -0.000000 0.382685
vn 0.923879 -0.000000 0.382685
vn 0.923879 -0.000000 0.382685
vn 0.923879 -0.000000 0.382685
vn 0.923879 -0.000000 0.382685
vn 0.923879 -0.000000 0.382685
vn 0.923879 -0.000000 0.382685
vn 0.923879 -0.000000 0.382685
vn 0.923879 0.000000 -0.382685
vn 0.923879 0.000000 -0.382685
vn 0.923879 0.000000 -0.382685
vn 0.923879 0.000000 -0.382685
vn 0.923879 0.000000 -0.382684
vn 0.923879 0.000000 -0.382684
vn 0.923879 0.000000 -0.382684
vn 0.923879 0.000000 -0.382684
vn 0.062153 -0.986119 -0.153966
vn 0.062153 -0.986119 -0.153966
vn 0.062153 -0.986119 -0.153966
vn 0.062153 -0.986119 -0.153966
vn -0.907153 0.000000 -0.420801
vn -0.907153 0.000000 -0.420801
vn -0.907153 0.000000 -0.420801
vn -0.907153 0.000000 -0.420801
vn 0.062153 0.986119 -0.153966
vn 0.062153 0.986119 -0.153966
vn 0.062153 0.986119 -0.153966
vn 0.062153 0.986119 -0.153966
vn 0.910692 -0.000000 0.413087
vn 0.910692 -0.000000 0.413087
vn 0.910692 -0.000000 0.413087
vn 0.910692 -0.000000 0.413087
vn -0.062153 -0.986119 -0.153966
vn -0.062153 -0.986119 -0.153966
vn -0.062153 -0.986119 -0.153966
vn -0.062153 -0.986119 -0.153966
vn -0.910692 0.000000 0.413087
vn -0.910692 0.000000 0.413087
vn -0.910692 0.000000 0.413087
vn -0.910692 0.000000 0.413087
vn -0.062153 0.986119 -0.153966
vn -0.062153 0.986119 -0.153966
vn -0.062153 0.986119 -0.153966
vn -0.062153 0.986119 -0.153966
vn 0.907153 -0.000000 -0.420801
vn 0.907153 -0.000000 -0.420801
vn 0.907153 -0.000000 -0.420801
vn 0.907153 -0.000000 -0.420801
vn -0.142441 -0.987950 -0.060540
vn -0.142441 -0.987950 -0.060540
vn -0.142441 -0.987950 -0.060540
vn -0.142441 -0.987950 -0.060540
vn -0.362646 -0.000000 0.931927
vn -0.362646 -0.000000 0.931927
vn -0.362646 -0.000000 0.931927
vn -0.362646 -0.000000 0.931927
vn -0.142441 0.987950 -0.060540
vn -0.142441 0.987950 -0.060540
vn -0.142441 0.987950 -0.060540
vn -0.142441 0.987950 -0.060540
vn 0.337863 0.000000 -0.941195
vn 0.337863 0.000000 -0.941195
vn 0.337863 0.000000 -0.941195
vn 0.337863 0.000000 -0.941195
vn -0.142441 -0.987950 0.060540
vn -0.142441 -0.987950 0.060540
vn -0.142441 -0.987950 0.060540
vn -0.142441 -0.987950 0.060540
vn 0.337864 -0.000000 0.941195
vn 0.337864 -0.000000 0.941195
vn 0.337864 -0.000000 0.941195
vn 0.337864 -0.000000 0.941195
vn -0.142441 0.987950 0.060540
vn -0.142441 0.987950 0.060540
vn -0.142441 0.987950 0.060540
vn -0.142441 0.987950 0.060540
vn -0.362647 0.000000 -0.931926
vn -0.362647 0.000000 -0.931926
vn -0.362647 0.000000 -0.931926
vn -0.362647 0.000000 -0.931926
vn -0.062153 -0.986119 0.153966
vn -0.062153 -0.986119 0.153966
vn -0.062153 -0.986119 0.153966
vn -0.062153 -0.986119 0.153966
vn 0.907153 -0.000000 0.420801
vn 0.907153 -0.000000 0.420801
vn 0.907153 -0.000000 0.420801
vn 0.907153 -0.000000 0.420801
vn -0.062153 0.986119 0.153966
vn -0.062153 0.986119 0.153966
vn -0.062153 0.986119 0.153966
vn -0.062153 0.986119 0.153966
vn -0.910692 0.000000 -0.413087
vn -0.910692 0.000000 -0.413087
vn -0.910692 0.000000 -0.413087
vn -0.910692 0.000000 -0.413087
vn 0.062153 -0.986119 0.153966
vn 0.062153 -0.986119 0.153966
vn 0.062153 -0.986119 0.153966
vn 0.062153 -0.986119 0.153966
vn 0.910692 -0.000000 -0.413086
vn 0.910692 -0.000000 -0.413086
vn 0.910692 -0.000000 -0.413086
vn 0.910692 -0.000000 -0.413086
vn 0.062153 0.986119 0.153966
vn 0.062153 0.986119 0.153966
vn 0.062153 0.986119 0.153966
vn 0.062153 0.986119 0.153966
vn -0.907153 0.000000 0.420801
vn -0.907153 0.000000 0.420801
vn -0.907153 0.000000 0.420801
vn -0.907153 0.000000 0.420801
vn 0.142441 -0.987950 0.060540
vn 0.142441 -0.987950 0.060540
vn 0.142441 -0.987950 0.060540
vn 0.142441 -0.987950 0.060540
vn 0.362647 0.000000 -0.931926
vn 0.362647 0.000000 -0.931926
vn 0.362647 0.000000 -0.931926
vn 0.362647 0.000000 -0.931926
vn 0.142441 0.987950 0.060540
vn 0.142441 0.987950 0.060540
vn 0.142441 0.987950 0.060540
vn 0.142441 0.987950 0.060540
vn -0.337864 -0.000000 0.941195
vn -0.337864 -0.000000 0.941195
vn -0.337864 -0.000000 0.941195
vn -0.337864 -0.000000 0.941195
vn 0.142441 -0.987950 -0.060540
vn 0.142441 -0.987950 -0.060540
vn 0.142441 -0.987950 -0.060540
vn 0.142441 -0.987950 -0.060540
vn -0.337864 0.000000 -0.941195
vn -0.337864 0.000000 -0.941195
vn -0.337864 0.000000 -0.941195
vn -0.337864 0.000000 -0.941195
vn 0.142441 0.987950 -0.060540
vn 0.142441 0.987950 -0.060540
vn 0.142441 0.987950 -0.060540
vn 0.142441 0.987950 -0.060540
vn 0.362646 -0.000000 0.931927
vn 0.362646 -0.000000 0.931927
vn 0.362646 -0.000000 0.931927
vn 0.362646 -0.000000 0.931927
s off
g engranaje6 polySurface3
usemtl initialShadingGroup
f 297/703/727 298/704/728 299/705/729 300/706/730
f 301/707/731 302/708/732 303/709/733 304/710/734
f 305/711/735 306/712/736 307/713/737 308/714/738
f 309/715/739 310/716/740 311/717/741 312/718/742
f 313/719/743 314/720/744 315/721/745 316/722/746
f 317/723/747 318/724/748 319/725/749 320/726/750
f 321/727/751 322/728/752 323/729/753 324/730/754
f 325/731/755 326/732/756 327/733/757 328/734/758
s 1
f 248/735/759 247/736/760 263/737/761
f 249/738/762 248/735/759 263/737/761
f 250/739/763 249/738/762 263/737/761
f 251/740/764 250/739/763 263/737/761
f 252/741/765 251/740/764 263/737/761
f 253/742/766 252/741/765 263/737/761
f 254/743/767 253/742/766 263/737/761
f 247/736/760 254/743/767 263/737/761
s 2
f 255/744/768 256/745/769 264/746/770
f 256/745/769 257/747/771 264/746/770
f 257/747/771 258/748/772 264/746/770
f 258/748/772 259/749/773 264/746/770
f 259/749/773 260/750/774 264/746/770
f 260/750/774 261/751/775 264/746/770
f 261/751/775 262/752/776 264/746/770
f 262/752/776 255/744/768 264/746/770
s 3
f 247/753/777 248/754/778 266/755/779 265/756/780
f 248/754/778 256/757/781 267/758/782 266/755/779
f 256/757/781 255/759/783 268/760/784 267/758/782
f 255/759/783 247/753/777 265/756/780 268/760/784
s 4
f 248/754/785 249/761/786 270/762/787 269/763/788
f 249/761/786 257/764/789 271/765/790 270/762/787
f 257/764/789 256/757/791 272/766/792 271/765/790
f 256/757/791 248/754/785 269/763/788 272/766/792
s 5
f 249/767/793 250/768/794 274/769/795 273/770/796
f 250/768/794 258/771/797 275/772/798 274/769/795
f 258/771/797 257/773/799 276/774/800 275/772/798
f 257/773/799 249/767/793 273/770/796 276/774/800
s 6
f 250/768/801 251/775/802 278/776/803 277/777/804
f 251/775/802 259/778/805 279/779/806 278/776/803
f 259/778/805 258/771/807 280/780/808 279/779/806
f 258/771/807 250/768/801 277/777/804 280/780/808
s 7
f 251/781/809 252/782/810 282/783/811 281/784/812
f 252/782/810 260/785/813 283/786/814 282/783/811
f 260/785/813 259/787/815 284/788/816 283/786/814
f 259/787/815 251/781/809 281/784/812 284/788/816
s 8
f 252/782/817 253/789/818 286/790/819 285/791/820
f 253/789/818 261/792/821 287/793/822 286/790/819
f 261/792/821 260/785/823 288/794/824 287/793/822
f 260/785/823 252/782/817 285/791/820 288/794/824
s 9
f 253/795/825 254/796/826 290/797/827 289/798/828
f 254/796/826 262/799/829 291/800/830 290/797/827
f 262/799/829 261/801/831 292/802/832 291/800/830
f 261/801/831 253/795/825 289/798/828 292/802/832
s 10
f 254/796/833 247/803/834 294/804/835 293/805/836
f 247/803/834 255/806/837 295/807/838 294/804/835
f 255/806/837 262/799/839 296/808/840 295/807/838
f 262/799/839 254/796/833 293/805/836 296/808/840
s off
f 265/809/841 266/810/842 298/811/843 297/812/844
f 266/813/845 267/814/846 299/815/847 298/816/848
f 267/817/849 268/818/850 300/819/851 299/820/852
f 268/821/853 265/822/854 297/823/855 300/824/856
f 269/825/857 270/826/858 302/827/859 301/828/860
f 270/829/861 271/830/862 303/831/863 302/832/864
f 271/833/865 272/834/866 304/835/867 303/836/868
f 272/837/869 269/838/870 301/839/871 304/840/872
f 273/841/873 274/842/874 306/843/875 305/844/876
f 274/845/877 275/846/878 307/847/879 306/848/880
f 275/849/881 276/850/882 308/851/883 307/852/884
f 276/853/885 273/854/886 305/855/887 308/856/888
f 277/857/889 278/858/890 310/859/891 309/860/892
f 278/861/893 279/862/894 311/863/895 310/864/896
f 279/865/897 280/866/898 312/867/899 311/868/900
f 280/869/901 277/870/902 309/871/903 312/872/904
f 281/873/905 282/874/906 314/875/907 313/876/908
f 282/877/909 283/878/910 315/879/911 314/880/912
f 283/881/913 284/882/914 316/883/915 315/884/916
f 284/885/917 281/886/918 313/887/919 316/888/920
f 285/889/921 286/890/922 318/891/923 317/892/924
f 286/893/925 287/894/926 319/895/927 318/896/928
f 287/897/929 288/898/930 320/899/931 319/900/932
f 288/901/933 285/902/934 317/903/935 320/904/936
f 289/905/937 290/906/938 322/907/939 321/908/940
f 290/909/941 291/910/942 323/911/943 322/912/944
f 291/913/945 292/914/946 324/915/947 323/916/948
f 292/917/949 289/918/950 321/919/951 324/920/952
f 293/921/953 294/922/954 326/923/955 325/924/956
f 294/925/957 295/926/958 327/927/959 326/928/960
f 295/929/961 296/930/962 328/931/963 327/932/964
f 296/933/965 293/934/966 325/935/967 328/936/968
g default
v -0.167989 0.679456 0.154169
v -0.177310 0.679456 0.150308
v -0.186632 0.679456 0.154169
v -0.190493 0.679456 0.163491
v -0.186632 0.679456 0.172812
v -0.177310 0.679456 0.176673
v -0.167989 0.679456 0.172812
v -0.164128 0.679456 0.163491
v -0.167989 0.693714 0.154169
v -0.177310 0.693714 0.150308
v -0.186632 0.693714 0.154169
v -0.190493 0.693714 0.163491
v -0.186632 0.693714 0.172812
v -0.177310 0.693714 0.176673
v -0.167989 0.693714 0.172812
v -0.164128 0.693714 0.163491
v -0.177310 0.679456 0.163491
v -0.177310 0.693714 0.163491
v -0.169450 0.681038 0.153564
v -0.175849 0.681038 0.150914
v -0.175849 0.692132 0.150914
v -0.169450 0.692132 0.153564
v -0.178772 0.681038 0.150914
v -0.185170 0.681038 0.153564
v -0.185170 0.692132 0.153564
v -0.178772 0.692132 0.150914
v -0.187237 0.681038 0.155631
v -0.189888 0.681038 0.162029
v -0.189888 0.692132 0.162029
v -0.187237 0.692132 0.155631
v -0.189888 0.681038 0.164952
v -0.187237 0.681038 0.171351
v -0.187237 0.692132 0.171351
v -0.189888 0.692132 0.164952
v -0.185170 0.681038 0.173418
v -0.178772 0.681038 0.176068
v -0.178772 0.692132 0.176068
v -0.185170 0.692132 0.173418
v -0.175849 0.681038 0.176068
v -0.169450 0.681038 0.173418
v -0.169450 0.692132 0.173418
v -0.175849 0.692132 0.176068
v -0.167384 0.681038 0.171351
v -0.164733 0.681038 0.164952
v -0.164733 0.692132 0.164952
v -0.167384 0.692132 0.171351
v -0.164733 0.681038 0.162029
v -0.167384 0.681038 0.155631
v -0.167384 0.692132 0.155631
v -0.164733 0.692132 0.162029
v -0.164297 0.683126 0.142204
v -0.170650 0.683126 0.139706
v -0.170650 0.690044 0.139706
v -0.164297 0.690044 0.142204
v -0.183971 0.683126 0.139706
v -0.190323 0.683126 0.142204
v -0.190323 0.690044 0.142204
v -0.183971 0.690044 0.139706
v -0.199742 0.683126 0.151142
v -0.202374 0.683126 0.157171
v -0.202374 0.690044 0.157171
v -0.199742 0.690044 0.151142
v -0.202374 0.683126 0.169811
v -0.199742 0.683126 0.175840
v -0.199742 0.690044 0.175840
v -0.202374 0.690044 0.169811
v -0.190323 0.683126 0.184778
v -0.183971 0.683126 0.187275
v -0.183971 0.690044 0.187275
v -0.190323 0.690044 0.184778
v -0.170650 0.683126 0.187275
v -0.164297 0.683126 0.184778
v -0.164297 0.690044 0.184778
v -0.170650 0.690044 0.187275
v -0.154878 0.683126 0.175840
v -0.152247 0.683126 0.169811
v -0.152247 0.690044 0.169811
v -0.154878 0.690044 0.175840
v -0.152247 0.683126 0.157170
v -0.154879 0.683126 0.151142
v -0.154879 0.690044 0.151142
v -0.152247 0.690044 0.157170
vt 0.722337 0.226841
vt 0.645698 0.226938
vt 0.645599 0.149269
vt 0.722238 0.149172
vt 0.999022 0.222232
vt 0.922383 0.222330
vt 0.922284 0.144661
vt 0.998923 0.144563
vt 0.407747 0.337934
vt 0.481601 0.337934
vt 0.481600 0.415603
vt 0.407747 0.415603
vt 0.747536 0.264178
vt 0.821390 0.264178
vt 0.821389 0.341847
vt 0.747536 0.341847
vt 0.407747 0.177955
vt 0.484385 0.177857
vt 0.484485 0.255526
vt 0.407846 0.255624
vt 0.407747 0.017878
vt 0.484385 0.017780
vt 0.484485 0.095449
vt 0.407846 0.095547
vt 0.907722 0.369456
vt 0.981576 0.369456
vt 0.981575 0.447125
vt 0.907722 0.447125
vt 0.393185 0.498009
vt 0.467038 0.498010
vt 0.467038 0.575679
vt 0.393184 0.575678
vt 0.193380 0.273482
vt 0.273481 0.353583
vt 0.136741 0.410222
vt 0.080101 0.273482
vt 0.000000 0.353583
vt 0.000000 0.466862
vt 0.080101 0.546963
vt 0.193381 0.546963
vt 0.273481 0.466862
vt 0.080101 0.273482
vt 0.000000 0.193381
vt 0.136741 0.136741
vt 0.000000 0.080101
vt 0.080101 0.000000
vt 0.193381 0.000000
vt 0.273481 0.080101
vt 0.273481 0.193381
vt 0.193381 0.273482
vt 0.488682 0.640327
vt 0.375403 0.640317
vt 0.393165 0.622558
vt 0.470923 0.622565
vt 0.375417 0.480240
vt 0.393176 0.498003
vt 0.488697 0.480251
vt 0.470934 0.498010
vt 0.262123 0.640307
vt 0.279885 0.622548
vt 0.357643 0.622555
vt 0.262137 0.480230
vt 0.279897 0.497993
vt 0.357655 0.498000
vt 0.276700 0.160077
vt 0.389979 0.160088
vt 0.372217 0.177847
vt 0.294459 0.177840
vt 0.389965 0.320164
vt 0.372206 0.302402
vt 0.276685 0.320154
vt 0.294448 0.302395
vt 0.503259 0.160098
vt 0.485497 0.177857
vt 0.407739 0.177850
vt 0.503245 0.320174
vt 0.485485 0.302412
vt 0.407727 0.302405
vt 0.276700 0.000000
vt 0.389979 0.000011
vt 0.372217 0.017770
vt 0.294459 0.017763
vt 0.389965 0.160087
vt 0.372206 0.142325
vt 0.276685 0.160077
vt 0.294448 0.142318
vt 0.503259 0.000021
vt 0.485497 0.017780
vt 0.407739 0.017773
vt 0.503245 0.160097
vt 0.485485 0.142335
vt 0.407727 0.142328
vt 0.276700 0.320154
vt 0.389979 0.320165
vt 0.372217 0.337924
vt 0.294459 0.337917
vt 0.389965 0.480241
vt 0.372206 0.462479
vt 0.276685 0.480231
vt 0.294448 0.462472
vt 0.503259 0.320175
vt 0.485497 0.337934
vt 0.407739 0.337927
vt 0.503245 0.480252
vt 0.485485 0.462489
vt 0.407727 0.462482
vt 0.075373 0.925623
vt 0.072812 0.847907
vt 0.213481 0.849047
vt 0.217378 0.925587
vt 0.842966 0.264181
vt 0.718411 0.264161
vt 0.741877 0.125458
vt 0.819546 0.125471
vt 0.907722 0.224895
vt 0.985438 0.227454
vt 0.985406 0.369459
vt 0.908866 0.365564
vt 0.491331 0.722426
vt 0.490267 0.597875
vt 0.630519 0.620120
vt 0.631182 0.697787
vt 0.956313 0.639532
vt 0.878597 0.636973
vt 0.878629 0.494968
vt 0.955169 0.498863
vt 0.755591 0.660011
vt 0.631037 0.660048
vt 0.654437 0.519984
vt 0.732106 0.519961
vt 0.923519 0.849967
vt 0.926081 0.927683
vt 0.785411 0.926543
vt 0.781514 0.850003
vt 0.641755 0.784590
vt 0.640745 0.660039
vt 0.779637 0.682356
vt 0.780267 0.760023
vt 0.843183 0.772246
vt 0.841530 0.849987
vt 0.689286 0.849999
vt 0.692231 0.776204
vt 0.639092 0.601713
vt 0.514537 0.601731
vt 0.537959 0.451299
vt 0.615628 0.451288
vt 0.800931 0.495241
vt 0.878671 0.493576
vt 0.874735 0.644528
vt 0.800941 0.647484
vt 0.736175 0.149169
vt 0.611620 0.149188
vt 0.635040 0.000012
vt 0.712709 0.000000
vt 0.019417 0.697804
vt 0.097157 0.696139
vt 0.093221 0.847091
vt 0.019427 0.850047
vt 0.270179 0.696124
vt 0.145624 0.696143
vt 0.169044 0.546967
vt 0.246713 0.546955
vt 0.372332 0.780295
vt 0.370679 0.858035
vt 0.218436 0.858047
vt 0.221381 0.784252
vt 0.639092 0.451284
vt 0.514537 0.451302
vt 0.537958 0.300871
vt 0.615628 0.300860
vt 0.923519 0.647453
vt 0.926081 0.725169
vt 0.785411 0.724029
vt 0.781514 0.647489
vt 0.838112 0.494409
vt 0.713557 0.494388
vt 0.737023 0.355685
vt 0.814692 0.355698
vt 1.000000 0.144564
vt 0.922284 0.142005
vt 0.922316 0.000000
vt 0.998856 0.003895
vt 0.266977 0.640356
vt 0.391532 0.640319
vt 0.368131 0.780382
vt 0.290462 0.780406
vt 0.402893 0.780403
vt 0.480608 0.782962
vt 0.480577 0.924967
vt 0.404037 0.921072
vt 0.498323 0.780376
vt 0.373768 0.780413
vt 0.397169 0.640349
vt 0.474838 0.640326
vt 0.638452 0.931890
vt 0.635891 0.854174
vt 0.776560 0.855314
vt 0.780457 0.931854
vt 0.101937 0.696135
vt 0.226492 0.696156
vt 0.203026 0.834859
vt 0.125357 0.834846
vt 0.728119 0.077752
vt 0.729772 0.000012
vt 0.882016 0.000000
vt 0.879070 0.073795
vt 0.514537 0.150446
vt 0.639092 0.150427
vt 0.615671 0.300859
vt 0.538002 0.300870
vt 0.902942 0.414091
vt 0.825202 0.415755
vt 0.829137 0.264803
vt 0.902932 0.261847
vt 0.000000 0.546982
vt 0.124555 0.546963
vt 0.101135 0.696139
vt 0.023466 0.696151
vt 0.917504 0.224688
vt 0.839764 0.226352
vt 0.843700 0.075400
vt 0.917494 0.072444
vt 0.621328 0.264282
vt 0.745883 0.264263
vt 0.722463 0.413439
vt 0.644794 0.413451
vt 0.485413 0.858120
vt 0.487066 0.780380
vt 0.639309 0.780368
vt 0.636364 0.854163
vt 0.504829 0.000018
vt 0.629384 0.000000
vt 0.605963 0.150432
vt 0.528294 0.150443
vn 0.365828 0.000000 -0.930682
vn 0.365828 0.000000 -0.930682
vn 0.365828 0.000000 -0.930682
vn 0.365828 0.000000 -0.930682
vn -0.365828 0.000000 -0.930682
vn -0.365828 0.000000 -0.930682
vn -0.365828 0.000000 -0.930682
vn -0.365828 0.000000 -0.930682
vn -0.916498 0.000000 -0.400038
vn -0.916498 0.000000 -0.400038
vn -0.916498 0.000000 -0.400038
vn -0.916498 0.000000 -0.400038
vn -0.916499 0.000000 0.400037
vn -0.916499 0.000000 0.400037
vn -0.916499 0.000000 0.400037
vn -0.916499 0.000000 0.400037
vn -0.365828 -0.000000 0.930682
vn -0.365828 -0.000000 0.930682
vn -0.365828 -0.000000 0.930682
vn -0.365828 -0.000000 0.930682
vn 0.365828 -0.000000 0.930682
vn 0.365828 -0.000000 0.930682
vn 0.365828 -0.000000 0.930682
vn 0.365828 -0.000000 0.930682
vn 0.916499 -0.000000 0.400037
vn 0.916499 -0.000000 0.400037
vn 0.916499 -0.000000 0.400037
vn 0.916499 -0.000000 0.400037
vn 0.916498 -0.000000 -0.400039
vn 0.916498 -0.000000 -0.400039
vn 0.916498 -0.000000 -0.400039
vn 0.916498 -0.000000 -0.400039
vn 0.000000 -1.000000 0.000000
vn 0.000000 -1.000000 0.000000
vn 0.000000 -1.000000 0.000000
vn 0.000000 -1.000000 0.000000
vn 0.000000 -1.000000 0.000000
vn 0.000000 -1.000000 0.000000
vn 0.000000 -1.000000 0.000000
vn 0.000000 -1.000000 0.000000
vn 0.000000 -1.000000 0.000000
vn 0.000000 1.000000 0.000000
vn 0.000000 1.000000 0.000000
vn 0.000000 1.000000 0.000000
vn 0.000000 1.000000 0.000000
vn 0.000000 1.000000 0.000000
vn 0.000000 1.000000 0.000000
vn 0.000000 1.000000 0.000000
vn 0.000000 1.000000 0.000000
vn 0.000000 1.000000 0.000000
vn 0.382687 0.000000 -0.923878
vn 0.382684 0.000000 -0.923879
vn 0.382684 0.000000 -0.923879
vn 0.382687 0.000000 -0.923878
vn 0.382683 -0.000000 -0.923880
vn 0.382683 -0.000000 -0.923880
vn 0.382687 -0.000000 -0.923878
vn 0.382687 -0.000000 -0.923878
vn -0.382683 0.000000 -0.923880
vn -0.382686 0.000000 -0.923879
vn -0.382686 0.000000 -0.923879
vn -0.382683 0.000000 -0.923880
vn -0.382685 0.000000 -0.923879
vn -0.382685 0.000000 -0.923879
vn -0.382683 0.000000 -0.923880
vn -0.382683 0.000000 -0.923880
vn -0.923879 -0.000001 -0.382684
vn -0.923879 -0.000001 -0.382685
vn -0.923879 -0.000001 -0.382685
vn -0.923879 -0.000001 -0.382684
vn -0.923879 0.000002 -0.382684
vn -0.923879 0.000002 -0.382684
vn -0.923879 0.000002 -0.382684
vn -0.923879 0.000002 -0.382684
vn -0.923879 -0.000002 0.382685
vn -0.923879 -0.000002 0.382684
vn -0.923879 -0.000002 0.382684
vn -0.923879 -0.000002 0.382685
vn -0.923879 0.000001 0.382684
vn -0.923879 0.000001 0.382684
vn -0.923879 0.000001 0.382685
vn -0.923879 0.000001 0.382685
vn -0.382683 -0.000000 0.923880
vn -0.382681 -0.000000 0.923880
vn -0.382681 -0.000000 0.923881
vn -0.382683 -0.000000 0.923880
vn -0.382681 -0.000000 0.923880
vn -0.382681 -0.000000 0.923881
vn -0.382683 -0.000000 0.923880
vn -0.382683 -0.000000 0.923880
vn 0.382683 0.000000 0.923880
vn 0.382684 0.000000 0.923879
vn 0.382684 0.000000 0.923879
vn 0.382683 0.000000 0.923880
vn 0.382684 -0.000000 0.923879
vn 0.382684 -0.000000 0.923879
vn 0.382683 -0.000000 0.923880
vn 0.382683 -0.000000 0.923880
vn 0.923879 0.000002 0.382684
vn 0.923880 0.000002 0.382683
vn 0.923880 0.000002 0.382683
vn 0.923879 0.000002 0.382684
vn 0.923879 -0.000002 0.382684
vn 0.923879 -0.000002 0.382684
vn 0.923879 -0.000002 0.382684
vn 0.923879 -0.000002 0.382684
vn 0.923879 0.000002 -0.382685
vn 0.923879 0.000002 -0.382685
vn 0.923879 0.000002 -0.382685
vn 0.923879 0.000002 -0.382685
vn 0.923879 -0.000002 -0.382685
vn 0.923879 -0.000002 -0.382685
vn 0.923879 -0.000002 -0.382685
vn 0.923879 -0.000002 -0.382685
vn 0.062154 -0.986119 -0.153966
vn 0.062154 -0.986119 -0.153966
vn 0.062154 -0.986119 -0.153966
vn 0.062154 -0.986119 -0.153966
vn -0.907153 0.000000 -0.420802
vn -0.907153 0.000000 -0.420802
vn -0.907153 0.000000 -0.420802
vn -0.907153 0.000000 -0.420802
vn 0.062153 0.986119 -0.153966
vn 0.062153 0.986119 -0.153966
vn 0.062153 0.986119 -0.153966
vn 0.062153 0.986119 -0.153966
vn 0.910692 -0.000000 0.413087
vn 0.910692 -0.000000 0.413087
vn 0.910692 -0.000000 0.413087
vn 0.910692 -0.000000 0.413087
vn -0.062154 -0.986119 -0.153966
vn -0.062154 -0.986119 -0.153966
vn -0.062154 -0.986119 -0.153966
vn -0.062154 -0.986119 -0.153966
vn -0.910691 0.000000 0.413087
vn -0.910691 0.000000 0.413087
vn -0.910691 0.000000 0.413087
vn -0.910691 0.000000 0.413087
vn -0.062153 0.986119 -0.153966
vn -0.062153 0.986119 -0.153966
vn -0.062153 0.986119 -0.153966
vn -0.062153 0.986119 -0.153966
vn 0.907153 -0.000000 -0.420801
vn 0.907153 -0.000000 -0.420801
vn 0.907153 -0.000000 -0.420801
vn 0.907153 -0.000000 -0.420801
vn -0.142441 -0.987950 -0.060540
vn -0.142441 -0.987950 -0.060540
vn -0.142441 -0.987950 -0.060540
vn -0.142441 -0.987950 -0.060540
vn -0.362646 -0.000000 0.931927
vn -0.362646 -0.000000 0.931927
vn -0.362646 -0.000000 0.931927
vn -0.362646 -0.000000 0.931927
vn -0.142441 0.987950 -0.060540
vn -0.142441 0.987950 -0.060540
vn -0.142441 0.987950 -0.060540
vn -0.142441 0.987950 -0.060540
vn 0.337863 0.000000 -0.941195
vn 0.337863 0.000000 -0.941195
vn 0.337863 0.000000 -0.941195
vn 0.337863 0.000000 -0.941195
vn -0.142441 -0.987950 0.060540
vn -0.142441 -0.987950 0.060540
vn -0.142441 -0.987950 0.060540
vn -0.142441 -0.987950 0.060540
vn 0.337866 -0.000000 0.941194
vn 0.337866 -0.000000 0.941194
vn 0.337866 -0.000000 0.941194
vn 0.337866 -0.000000 0.941194
vn -0.142441 0.987950 0.060540
vn -0.142441 0.987950 0.060540
vn -0.142441 0.987950 0.060540
vn -0.142441 0.987950 0.060540
vn -0.362647 0.000000 -0.931927
vn -0.362647 0.000000 -0.931927
vn -0.362647 0.000000 -0.931927
vn -0.362647 0.000000 -0.931927
vn -0.062153 -0.986119 0.153966
vn -0.062153 -0.986119 0.153966
vn -0.062153 -0.986119 0.153966
vn -0.062153 -0.986119 0.153966
vn 0.907153 -0.000000 0.420801
vn 0.907153 -0.000000 0.420801
vn 0.907153 -0.000000 0.420801
vn 0.907153 -0.000000 0.420801
vn -0.062153 0.986119 0.153966
vn -0.062153 0.986119 0.153966
vn -0.062153 0.986119 0.153966
vn -0.062153 0.986119 0.153966
vn -0.910692 0.000000 -0.413086
vn -0.910692 0.000000 -0.413086
vn -0.910692 0.000000 -0.413086
vn -0.910692 0.000000 -0.413086
vn 0.062153 -0.986119 0.153966
vn 0.062153 -0.986119 0.153966
vn 0.062153 -0.986119 0.153966
vn 0.062153 -0.986119 0.153966
vn 0.910692 -0.000000 -0.413086
vn 0.910692 -0.000000 -0.413086
vn 0.910692 -0.000000 -0.413086
vn 0.910692 -0.000000 -0.413086
vn 0.062153 0.986119 0.153966
vn 0.062153 0.986119 0.153966
vn 0.062153 0.986119 0.153966
vn 0.062153 0.986119 0.153966
vn -0.907153 0.000000 0.420801
vn -0.907153 0.000000 0.420801
vn -0.907153 0.000000 0.420801
vn -0.907153 0.000000 0.420801
vn 0.142441 -0.987950 0.060540
vn 0.142441 -0.987950 0.060540
vn 0.142441 -0.987950 0.060540
vn 0.142441 -0.987950 0.060540
vn 0.362647 0.000000 -0.931926
vn 0.362647 0.000000 -0.931926
vn 0.362647 0.000000 -0.931926
vn 0.362647 0.000000 -0.931926
vn 0.142441 0.987950 0.060540
vn 0.142441 0.987950 0.060540
vn 0.142441 0.987950 0.060540
vn 0.142441 0.987950 0.060540
vn -0.337865 -0.000000 0.941195
vn -0.337865 -0.000000 0.941195
vn -0.337865 -0.000000 0.941194
vn -0.337865 -0.000000 0.941194
vn 0.142441 -0.987950 -0.060540
vn 0.142441 -0.987950 -0.060540
vn 0.142441 -0.987950 -0.060540
vn 0.142441 -0.987950 -0.060540
vn -0.337865 0.000000 -0.941195
vn -0.337865 0.000000 -0.941195
vn -0.337865 0.000000 -0.941195
vn -0.337865 0.000000 -0.941195
vn 0.142441 0.987950 -0.060540
vn 0.142441 0.987950 -0.060540
vn 0.142441 0.987950 -0.060540
vn 0.142441 0.987950 -0.060540
vn 0.362647 -0.000000 0.931926
vn 0.362647 -0.000000 0.931926
vn 0.362647 -0.000000 0.931926
vn 0.362647 -0.000000 0.931926
s off
g engranaje6 polySurface2
usemtl initialShadingGroup
f 379/937/969 380/938/970 381/939/971 382/940/972
f 383/941/973 384/942/974 385/943/975 386/944/976
f 387/945/977 388/946/978 389/947/979 390/948/980
f 391/949/981 392/950/982 393/951/983 394/952/984
f 395/953/985 396/954/986 397/955/987 398/956/988
f 399/957/989 400/958/990 401/959/991 402/960/992
f 403/961/993 404/962/994 405/963/995 406/964/996
f 407/965/997 408/966/998 409/967/999 410/968/1000
s 1
f 330/969/1001 329/970/1002 345/971/1003
f 331/972/1004 330/969/1001 345/971/1003
f 332/973/1005 331/972/1004 345/971/1003
f 333/974/1006 332/973/1005 345/971/1003
f 334/975/1007 333/974/1006 345/971/1003
f 335/976/1008 334/975/1007 345/971/1003
f 336/977/1009 335/976/1008 345/971/1003
f 329/970/1002 336/977/1009 345/971/1003
s 2
f 337/978/1010 338/979/1011 346/980/1012
f 338/979/1011 339/981/1013 346/980/1012
f 339/981/1013 340/982/1014 346/980/1012
f 340/982/1014 341/983/1015 346/980/1012
f 341/983/1015 342/984/1016 346/980/1012
f 342/984/1016 343/985/1017 346/980/1012
f 343/985/1017 344/986/1018 346/980/1012
f 344/986/1018 337/978/1010 346/980/1012
s 3
f 329/987/1019 330/988/1020 348/989/1021 347/990/1022
f 330/988/1020 338/991/1023 349/992/1024 348/989/1021
f 338/991/1023 337/993/1025 350/994/1026 349/992/1024
f 337/993/1025 329/987/1019 347/990/1022 350/994/1026
s 4
f 330/988/1027 331/995/1028 352/996/1029 351/997/1030
f 331/995/1028 339/998/1031 353/999/1032 352/996/1029
f 339/998/1031 338/991/1033 354/1000/1034 353/999/1032
f 338/991/1033 330/988/1027 351/997/1030 354/1000/1034
s 5
f 331/1001/1035 332/1002/1036 356/1003/1037 355/1004/1038
f 332/1002/1036 340/1005/1039 357/1006/1040 356/1003/1037
f 340/1005/1039 339/1007/1041 358/1008/1042 357/1006/1040
f 339/1007/1041 331/1001/1035 355/1004/1038 358/1008/1042
s 6
f 332/1002/1043 333/1009/1044 360/1010/1045 359/1011/1046
f 333/1009/1044 341/1012/1047 361/1013/1048 360/1010/1045
f 341/1012/1047 340/1005/1049 362/1014/1050 361/1013/1048
f 340/1005/1049 332/1002/1043 359/1011/1046 362/1014/1050
s 7
f 333/1015/1051 334/1016/1052 364/1017/1053 363/1018/1054
f 334/1016/1052 342/1019/1055 365/1020/1056 364/1017/1053
f 342/1019/1055 341/1021/1057 366/1022/1058 365/1020/1056
f 341/1021/1057 333/1015/1051 363/1018/1054 366/1022/1058
s 8
f 334/1016/1059 335/1023/1060 368/1024/1061 367/1025/1062
f 335/1023/1060 343/1026/1063 369/1027/1064 368/1024/1061
f 343/1026/1063 342/1019/1065 370/1028/1066 369/1027/1064
f 342/1019/1065 334/1016/1059 367/1025/1062 370/1028/1066
s 9
f 335/1029/1067 336/1030/1068 372/1031/1069 371/1032/1070
f 336/1030/1068 344/1033/1071 373/1034/1072 372/1031/1069
f 344/1033/1071 343/1035/1073 374/1036/1074 373/1034/1072
f 343/1035/1073 335/1029/1067 371/1032/1070 374/1036/1074
s 10
f 336/1030/1075 329/1037/1076 376/1038/1077 375/1039/1078
f 329/1037/1076 337/1040/1079 377/1041/1080 376/1038/1077
f 337/1040/1079 344/1033/1081 378/1042/1082 377/1041/1080
f 344/1033/1081 336/1030/1075 375/1039/1078 378/1042/1082
s off
f 347/1043/1083 348/1044/1084 380/1045/1085 379/1046/1086
f 348/1047/1087 349/1048/1088 381/1049/1089 380/1050/1090
f 349/1051/1091 350/1052/1092 382/1053/1093 381/1054/1094
f 350/1055/1095 347/1056/1096 379/1057/1097 382/1058/1098
f 351/1059/1099 352/1060/1100 384/1061/1101 383/1062/1102
f 352/1063/1103 353/1064/1104 385/1065/1105 384/1066/1106
f 353/1067/1107 354/1068/1108 386/1069/1109 385/1070/1110
f 354/1071/1111 351/1072/1112 383/1073/1113 386/1074/1114
f 355/1075/1115 356/1076/1116 388/1077/1117 387/1078/1118
f 356/1079/1119 357/1080/1120 389/1081/1121 388/1082/1122
f 357/1083/1123 358/1084/1124 390/1085/1125 389/1086/1126
f 358/1087/1127 355/1088/1128 387/1089/1129 390/1090/1130
f 359/1091/1131 360/1092/1132 392/1093/1133 391/1094/1134
f 360/1095/1135 361/1096/1136 393/1097/1137 392/1098/1138
f 361/1099/1139 362/1100/1140 394/1101/1141 393/1102/1142
f 362/1103/1143 359/1104/1144 391/1105/1145 394/1106/1146
f 363/1107/1147 364/1108/1148 396/1109/1149 395/1110/1150
f 364/1111/1151 365/1112/1152 397/1113/1153 396/1114/1154
f 365/1115/1155 366/1116/1156 398/1117/1157 397/1118/1158
f 366/1119/1159 363/1120/1160 395/1121/1161 398/1122/1162
f 367/1123/1163 368/1124/1164 400/1125/1165 399/1126/1166
f 368/1127/1167 369/1128/1168 401/1129/1169 400/1130/1170
f 369/1131/1171 370/1132/1172 402/1133/1173 401/1134/1174
f 370/1135/1175 367/1136/1176 399/1137/1177 402/1138/1178
f 371/1139/1179 372/1140/1180 404/1141/1181 403/1142/1182
f 372/1143/1183 373/1144/1184 405/1145/1185 404/1146/1186
f 373/1147/1187 374/1148/1188 406/1149/1189 405/1150/1190
f 374/1151/1191 371/1152/1192 403/1153/1193 406/1154/1194
f 375/1155/1195 376/1156/1196 408/1157/1197 407/1158/1198
f 376/1159/1199 377/1160/1200 409/1161/1201 408/1162/1202
f 377/1163/1203 378/1164/1204 410/1165/1205 409/1166/1206
f 378/1167/1207 375/1168/1208 407/1169/1209 410/1170/1210
