# File exported by ZBrush version 2022
# www.zbrush.com
#Vertex Count 934
#Face Count 940
#Auto scale x=0.011480 y=0.011480 z=0.011480
#Auto offset x=0.679774 y=-6.442829 z=29.287014
v -45.78118111 1685.91814468 -7734.04996645
v -23.85662658 1659.33373747 -7736.81220286
v -43.64574255 1683.29596392 -7575.65416618
v -21.58760142 1683.88584244 -7732.14534247
v -21.98386505 1653.82646008 -7570.32573804
v -28.06777393 1677.16408484 -7569.8296453
v -23.16952266 1665.09437769 -7573.08365483
v -91.03178255 1660.38199505 -7571.02385649
v -94.10604464 1682.31906327 -7574.42838847
v -21.72865911 1711.1343095 -7658.13016608
v -50.50786148 1703.38539403 -7709.97567886
v -37.47754121 1687.62016145 -7653.04795677
v -23.28023132 1683.5302207 -7649.89230187
v -52.15857293 1687.12531476 -7708.39103969
v -26.55088855 1657.42230177 -7569.52760357
v -24.99339762 1689.76012213 -7736.75671225
v -92.31515358 1674.53667068 -7569.74591096
v -88.72822892 1683.79920066 -7592.77019649
v -23.90673064 1664.32415466 -7731.86124381
v -21.50475749 1648.39502541 -7568.76801347
v -40.46735638 1712.30227064 -7650.60005642
v -95.17366268 1674.86554395 -7735.87750167
v -22.35032481 1648.53674246 -7738.93945386
v -83.42889597 1702.61940756 -7712.17902178
v -94.91835809 1647.53334255 -7739.3032995
v -94.81153035 1647.52918907 -7567.16244071
v -90.83287714 1694.48629434 -7737.03150709
v -42.79925887 1705.04263619 -7593.86372711
v -93.04923865 1699.72018907 -7594.24784178
v -23.99732602 1717.2526482 -7574.44001824
v -43.14117539 1706.17088998 -7575.96883452
v -43.38859095 1683.33027174 -7679.14815022
v -27.11876656 1670.92371662 -7735.8339731
v -41.98052439 1713.48817486 -7730.75840938
v -25.07419336 1682.98636284 -7571.35281283
v -43.53243407 1689.67564016 -7571.24648351
v -21.81704276 1651.29150259 -7737.36644445
v -89.87328357 1697.95462391 -7732.83349255
v -42.38910571 1691.80222659 -7601.60084667
v -23.89085393 1694.92697954 -7738.62245957
v -41.82336934 1712.38102079 -7659.29646583
v -93.14015593 1695.6671313 -7568.21277505
v -22.50113021 1714.20598085 -7731.97023137
v -89.66896825 1693.16498638 -7740.15659231
v -26.44181792 1684.6515797 -7736.59555687
v -91.96538826 1682.5642022 -7734.98167713
v -22.67472529 1710.84414674 -7649.84113088
v -90.69057341 1701.08436104 -7574.63672748
v -42.8896336 1706.30978266 -7729.90445201
v -39.60765162 1683.06062722 -7571.45249657
v -94.61882662 1654.13523046 -7570.64273233
v -91.86803047 1673.37660116 -7736.30580947
v -94.13384706 1684.45187994 -7728.67169643
v -40.18565896 1716.23371425 -7574.43802456
v -93.26542517 1660.50934103 -7735.41762735
v -93.41805032 1695.1800101 -7567.10263047
v -86.7334872 1684.84446773 -7709.14165824
v -94.78952983 1676.6061051 -7570.05194004
v -72.18123441 1683.21812753 -7700.20301734
v -63.12332737 1684.36000476 -7590.21164718
v -52.29689645 1683.20633162 -7716.47937829
v -41.79668707 1684.23066511 -7682.33271341
v -52.77044419 1684.153161 -7711.84574581
v -69.82398525 1683.25758568 -7605.14925551
v -57.27167609 1683.2022612 -7589.11811656
v -32.37095222 1671.74203705 -7735.99147341
v -56.10574139 1685.5934249 -7734.39753042
v -55.3036293 1691.91270941 -7734.54373323
v -43.96906442 1691.48174337 -7734.50186606
v -35.46029148 1691.12961056 -7735.65620376
v -35.38989763 1684.89547258 -7735.69109307
v -28.42423675 1664.43231152 -7734.02803602
v -22.29537674 1656.4341867 -7732.2928744
v -33.97473638 1659.34736091 -7736.16724907
v -34.43521815 1665.30620563 -7734.41181842
v -24.96804576 1662.59713388 -7736.84742445
v -33.55802461 1662.55526671 -7736.57927519
v -24.93434538 1655.78391644 -7739.98148121
v -25.26906209 1661.92277338 -7739.97250967
v -21.65833534 1650.02826041 -7732.25765281
v -44.21781689 1682.77470103 -7571.17238527
v -35.95252667 1683.30900587 -7571.88379488
v -33.96670457 1686.8901442 -7570.96271713
v -54.91011931 1691.74424389 -7571.12054972
v -55.01224549 1685.49706395 -7571.45149974
v -54.7308995 1681.94990116 -7570.39950401
v -29.58776924 1686.19759143 -7736.57661696
v -28.74378025 1684.77959023 -7735.61965306
v -21.63306655 1690.60228358 -7732.44206773
v -21.44724205 1689.43523621 -7723.83171862
v -21.57318362 1682.64303542 -7722.90034021
v -27.20627279 1656.27186835 -7566.05262842
v -28.19222804 1649.79458511 -7566.03269167
v -28.38434509 1648.39502541 -7570.39817489
v -22.3725901 1648.39502541 -7577.74187596
v -21.90782246 1652.96436188 -7578.01966131
v -26.06107536 1671.58702883 -7570.9138721
v -22.43577246 1672.73222886 -7573.3212344
v -31.26565684 1675.72340559 -7569.70371151
v -32.14635749 1671.66868643 -7570.89260624
v -50.10804078 1683.88542709 -7736.57030365
v -23.27063416 1666.13474365 -7579.24444219
v -22.34187245 1673.73729016 -7579.18297055
v -27.83635969 1665.29989233 -7572.37324204
v -22.42824686 1658.86431012 -7571.82631059
v -22.46188752 1659.22416842 -7578.93874539
v -27.39607167 1659.00220596 -7570.71882425
v -94.97962984 1657.3103237 -7575.60964078
v -95.4599523 1652.48139416 -7575.87114445
v -80.96820805 1657.5901858 -7570.44203574
v -80.54954154 1663.37915281 -7571.67246536
v -89.34489745 1663.28470247 -7571.64455391
v -89.42520516 1660.00236615 -7569.67314183
v -80.48674987 1658.94447246 -7569.68643299
v -95.04448398 1660.31678527 -7569.25314101
v -94.29133179 1663.55227024 -7575.41558977
v -90.13268454 1687.48060422 -7569.68144881
v -84.07960494 1686.87784988 -7569.71401216
v -85.86711869 1683.08870481 -7571.76384212
v -95.16282986 1676.17165014 -7574.33535031
v -95.31080829 1682.13822035 -7568.89261815
v -94.54278402 1681.69911348 -7581.83721625
v -95.24754027 1676.1145812 -7581.96248548
v -94.95770201 1688.21535645 -7569.06340962
v -27.20623645 1688.7845506 -7566.07754935
v -27.5045608 1691.68310453 -7569.61366386
v -31.82218285 1694.59926925 -7566.09283419
v -29.31754064 1690.50343054 -7566.04664739
v -21.49043055 1712.02880492 -7665.88622555
v -25.73251101 1716.44653903 -7665.24791734
v -26.71433873 1713.56717422 -7655.46262922
v -21.65505668 1704.96936864 -7657.39848743
v -21.458498 1704.77398851 -7666.24242878
v -26.97305438 1705.6284443 -7654.12952534
v -42.38644229 1710.13174029 -7712.34349995
v -42.51390768 1707.7468899 -7723.148885
v -52.77589045 1705.59006606 -7721.51041661
v -42.4149521 1705.46164017 -7698.20269698
v -42.38640724 1712.0131878 -7697.91859832
v -49.72574715 1698.14286004 -7707.39453457
v -42.54328193 1698.65515139 -7699.09586328
v -42.50297751 1688.05710851 -7636.4074179
v -42.77240007 1695.72660927 -7635.41855521
v -42.58040633 1694.74173393 -7645.62650239
v -40.19475769 1694.37697451 -7652.27042361
v -38.97792296 1682.66795636 -7652.45949043
v -45.40526958 1682.19603692 -7659.3845198
v -45.19634388 1683.25791795 -7638.37517491
v -22.34168555 1687.84926791 -7656.3082796
v -28.32960989 1687.59623736 -7654.11124999
v -29.26496266 1682.77951908 -7652.88846279
v -27.99214928 1694.26217207 -7653.16591586
v -22.11457017 1694.67735484 -7649.3759401
v -21.45955974 1696.4151747 -7639.21949619
v -21.47248747 1685.53378079 -7636.97461838
v -22.37196708 1673.36538674 -7634.30841063
v -22.31604814 1673.44795811 -7650.7977625
v -25.00343608 1678.00333885 -7566.16161597
v -25.02780408 1670.41433271 -7566.1499862
v -24.41099277 1670.2452857 -7569.42326792
v -26.43030757 1686.0076939 -7569.61200247
v -24.52336023 1685.25317107 -7566.20348314
v -34.97125707 1686.63096648 -7569.68676527
v -41.9065196 1684.08803429 -7699.66838022
v -42.45767982 1690.97900505 -7699.29423392
v -51.58664073 1690.08450963 -7708.00626045
v -48.50526643 1683.20641469 -7710.96288016
v -49.46829442 1683.21389097 -7699.982384
v -52.29903096 1683.97505939 -7713.53139784
v -48.93246901 1684.11312137 -7716.50396694
v -46.6060368 1683.20658083 -7717.08047124
v -32.15197508 1656.88484027 -7569.66450257
v -31.44559378 1663.22655362 -7569.6448981
v -24.92700928 1663.07511741 -7569.42260336
v -25.48632073 1663.25803707 -7566.11443234
v -32.94939827 1658.64475669 -7570.6463874
v -39.00611996 1688.74866445 -7654.28403514
v -42.29595723 1690.82416297 -7658.43752428
v -42.55458721 1691.28652938 -7673.72203201
v -55.95218625 1683.20957134 -7719.62606166
v -29.37576737 1693.72421216 -7740.12369668
v -30.05218644 1693.54195705 -7736.67596842
v -23.42804621 1685.68513394 -7739.95423432
v -42.67734618 1685.3215375 -7582.16218524
v -45.87339117 1683.21945665 -7582.25721707
v -51.22953282 1683.20541785 -7578.97828661
v -49.18987501 1684.49117195 -7582.99155395
v -87.63475022 1673.54573124 -7570.53540617
v -88.06556309 1671.60463963 -7569.68543615
v -93.55926895 1672.19958541 -7569.58309418
v -94.67068293 1670.82137465 -7574.40944856
v -88.39285284 1669.47190603 -7571.41561359
v -92.94402039 1674.39536898 -7566.07422656
v -92.99662433 1681.58480946 -7566.09283419
v -95.00087494 1686.33889313 -7583.42584277
v -96.3944614 1693.21175467 -7585.57402735
v -94.95741906 1692.0155498 -7594.77450421
v -84.86113584 1694.06130934 -7597.11009422
v -81.41083501 1687.01125995 -7596.89344822
v -94.47890076 1681.70625748 -7589.81955781
v -86.01596157 1683.20882371 -7597.71284856
v -93.46721205 1682.59992221 -7598.08533347
v -28.46300957 1690.9582376 -7735.62796004
v -23.50420303 1663.29084964 -7726.93088607
v -22.27360467 1656.45046838 -7726.08191289
v -22.5904484 1671.1887923 -7733.68113661
v -22.64399206 1670.49698715 -7728.06827753
v -41.78249381 1712.80874711 -7644.13855644
v -35.17695862 1715.22940057 -7644.30934791
v -34.75429178 1712.9011207 -7652.0205497
v -40.88054158 1704.4804199 -7651.63743186
v -42.40237611 1704.6651671 -7644.46817734
v -34.67892931 1704.64182449 -7653.19216592
v -95.25743077 1676.42393307 -7728.69694965
v -94.81505302 1671.25707566 -7727.86425815
v -95.48492516 1668.93660435 -7739.5119708
v -92.42529892 1668.89224508 -7736.63144301
v -32.27745977 1648.05668219 -7739.84657588
v -32.32224218 1654.95371703 -7740.18716199
v -22.23882958 1674.63685284 -7666.97477198
v -21.66254854 1681.45098404 -7666.64149601
v -21.44700582 1688.4194589 -7666.35573596
v -91.16521079 1696.39623479 -7708.43589737
v -71.98908881 1696.63913083 -7707.62413945
v -70.87720236 1703.08144169 -7711.74705891
v -70.68597572 1704.27440684 -7719.74834038
v -86.84398819 1703.41654519 -7718.72325926
v -95.62567392 1698.04500383 -7718.52887597
v -88.17085404 1647.66990928 -7738.30081337
v -87.6752078 1648.39519155 -7731.86656028
v -94.02400804 1648.39519155 -7733.27642063
v -95.0724733 1652.70460267 -7739.93363302
v -88.84097798 1651.93512727 -7740.230026
v -95.48375179 1653.21008229 -7734.20480852
v -87.51943897 1648.6567783 -7566.03468534
v -87.40933517 1654.48055155 -7566.03302395
v -93.35391266 1654.20260006 -7566.09084052
v -93.15115749 1648.39519155 -7571.0221951
v -86.62605461 1648.39519155 -7570.73477365
v -91.52910057 1687.89379332 -7740.21175065
v -92.06003849 1688.47893687 -7736.70421214
v -85.01918129 1688.42394467 -7736.64207595
v -84.01767641 1694.52716468 -7736.74043057
v -83.82406931 1693.09354637 -7740.19413985
v -55.9035755 1703.33023569 -7595.9624021
v -55.53810837 1705.54902959 -7586.94866612
v -42.64987863 1707.11904848 -7585.80795186
v -42.42571093 1694.96336411 -7598.94726553
v -55.14142257 1696.19371066 -7597.42808535
v -42.47469484 1704.24068051 -7617.41135227
v -42.38999741 1696.47008382 -7618.03570476
v -93.96413809 1700.78422992 -7587.08656196
v -85.14386384 1703.65088505 -7587.8039526
v -85.24851619 1701.55121322 -7595.19317591
v -21.78538279 1716.22441043 -7584.84533922
v -27.90195367 1719.02585578 -7585.14306132
v -28.24231652 1718.34543119 -7574.1698753
v -27.28845476 1706.40539598 -7571.748225
v -21.65946977 1706.95905608 -7575.20691847
v -21.45305953 1707.49934194 -7584.99918446
v -55.38980966 1705.87881662 -7577.44913805
v -41.41809134 1716.8020777 -7585.4793278
v -55.13631476 1699.87959999 -7571.48240169
v -42.71624101 1696.79347449 -7572.27256147
v -34.33154446 1706.26816469 -7571.73892118
v -34.36809257 1718.3652018 -7574.33103068
v -34.33899219 1695.21473327 -7571.17172071
v -42.34832883 1691.37740773 -7686.29514204
v -49.83992721 1683.26597572 -7683.86119741
v -24.90718676 1668.077912 -7736.85274091
v -25.96390448 1667.5863881 -7739.99842745
v -27.27264814 1673.36463911 -7740.078839
v -32.94245934 1668.40387783 -7736.58259798
v -23.00709787 1679.12029515 -7739.8798038
v -22.11584477 1677.19099944 -7734.94645554
v -22.1146766 1677.02211858 -7729.55555892
v -22.12961358 1676.44752489 -7721.46057474
v -41.70711448 1716.21602038 -7723.79882298
v -34.92008089 1718.71700233 -7724.88936309
v -34.89377373 1716.59855673 -7733.53626291
v -35.09071921 1706.7445699 -7734.82683505
v -26.30013462 1694.64421 -7571.14979028
v -22.4444221 1683.24138707 -7578.81181476
v -21.46418049 1694.67345056 -7577.1377925
v -95.04671907 1687.87526876 -7575.58937175
v -88.52868232 1688.51324469 -7572.15858973
v -31.13527103 1670.11420159 -7569.67546778
v -26.20263666 1648.39510848 -7732.71387206
v -95.33440271 1699.88117831 -7726.52151818
v -85.23803123 1704.15146356 -7726.23675496
v -82.78369556 1699.64866599 -7732.54175147
v -89.90167786 1691.96894765 -7733.34619925
v -95.96582132 1690.95167509 -7727.92440067
v -80.6909367 1692.39484642 -7733.81936473
v -46.0935183 1685.5002206 -7592.81671557
v -55.14177173 1685.34413248 -7594.86621325
v -55.45646894 1689.81278837 -7597.08849607
v -43.14636985 1683.38709147 -7602.10258816
v -42.07934109 1683.65607142 -7593.3098178
v -28.99698992 1686.43151593 -7740.1855006
v -36.77563399 1714.13379321 -7656.17171288
v -37.43019792 1716.52628602 -7665.79219056
v -42.22950659 1712.77344245 -7666.88439206
v -42.33599427 1706.05982568 -7658.83858519
v -37.79002896 1706.29549465 -7654.18335456
v -42.35630093 1705.87217104 -7668.10950521
v -88.36571498 1694.32979087 -7566.14433746
v -88.90881484 1693.93878141 -7569.61399614
v -93.2865197 1688.3001707 -7566.09283419
v -22.37027194 1707.59520447 -7732.80358743
v -28.22723676 1707.01197153 -7734.87335413
v -28.37944397 1716.57704166 -7733.58211743
v -28.05924889 1718.74433229 -7725.43230719
v -21.88624768 1715.9303434 -7725.39343053
v -21.45881471 1708.2623379 -7725.85596308
v -83.38890565 1687.52488041 -7740.22470953
v -28.00771448 1648.39502541 -7577.98311061
v -87.00398838 1685.44730515 -7733.26911049
v -86.12364857 1682.96817055 -7736.51813583
v -90.82115392 1681.66090138 -7740.21307976
v -90.01798853 1675.12879209 -7740.21540572
v -21.84884031 1712.46500434 -7643.06861764
v -21.45572036 1705.14896551 -7641.34707946
v -21.96357007 1704.41504398 -7650.35649581
v -28.3095044 1704.5736242 -7653.16292535
v -28.60778463 1712.67608466 -7652.27075589
v -28.28084273 1715.23588002 -7644.13024946
v -32.26695145 1648.39510848 -7733.30433208
v -93.90318044 1701.84644323 -7580.73637549
v -96.52870995 1694.41244531 -7577.95918651
v -91.19542223 1694.99916718 -7572.46893843
v -82.40470266 1694.80818975 -7571.88445944
v -83.47880793 1701.7035632 -7574.24197988
v -84.48633277 1704.6830271 -7580.65363798
v -76.7583353 1683.90212412 -7592.24951509
v -78.84064555 1683.26821861 -7589.82852934
v -75.51631485 1683.20176278 -7594.55387086
v -54.68340759 1704.80862861 -7729.46684039
v -43.76785773 1698.34056612 -7733.79544063
v -54.90662551 1699.03361732 -7734.02438095
v -35.26381327 1698.29928044 -7735.28737393
v -51.57087174 1683.20275962 -7584.05351805
v -93.35459539 1660.5218015 -7566.08485949
v -85.74132768 1671.56858734 -7735.90009665
v -85.40892394 1665.43861887 -7734.43308428
v -92.74983698 1665.57659778 -7734.38257786
v -94.2732719 1665.280454 -7727.59212154
v -85.51084537 1669.16089276 -7736.57894291
v -34.7004366 1719.01613662 -7585.26766599
v -57.33380758 1682.53853364 -7736.57462328
v -94.70671705 1658.21694731 -7740.10176626
v -85.63278143 1659.67523734 -7736.01805574
v -85.58027873 1663.11357872 -7736.57728152
v -92.3930289 1663.5732869 -7736.61349994
v -94.90487482 1659.23953633 -7727.34723182
v -95.46012104 1653.15558852 -7727.04552237
v -88.07299524 1688.10678424 -7566.01175808
v -95.28529549 1663.55285173 -7739.77380675
v -93.63947542 1683.39274021 -7720.14076203
v -95.26542364 1677.36120943 -7719.73538149
v -95.42074336 1678.32938775 -7707.99463068
v -80.41820562 1683.2421347 -7705.3672996
v -73.71349938 1688.75821748 -7708.04314344
v -91.75831346 1689.23370891 -7708.61134075
v -95.99260873 1690.03076348 -7718.90966785
v -70.23222131 1683.25775182 -7687.31291302
v -57.74014618 1683.2014305 -7685.23184883
v -55.30147987 1683.21671534 -7707.75771566
v -81.3695052 1683.27087684 -7688.5440072
v -67.2191148 1684.01634507 -7587.56604074
v -68.59366011 1685.02472916 -7595.1901854
v -55.43659547 1684.65265961 -7589.16397108
v -57.38834062 1684.21263897 -7584.48082901
v -70.12009268 1683.22801283 -7622.20314962
v -82.08885577 1683.2182106 -7624.14399202
v -83.42531099 1683.28001452 -7607.14060434
v -65.75361587 1683.20126436 -7589.10947731
v -61.57917027 1683.20209506 -7593.83282515
v -53.98289991 1683.24778344 -7595.41879344
v -57.35139095 1683.33525592 -7603.70384129
v -56.4097252 1682.94241892 -7619.62698952
v -52.02824034 1683.20774381 -7589.83384581
v -58.21542069 1683.20126436 -7586.20834821
v -42.00118151 1665.6100749 -7734.28920742
v -41.79589531 1672.38616014 -7736.12504962
v -41.93352377 1668.81532246 -7736.55435426
v -50.79587221 1672.0091064 -7736.05593556
v -50.87734744 1669.1184441 -7736.55136374
v -50.82516988 1662.58301202 -7736.50982885
v -42.07200499 1662.55684504 -7736.5281042
v -50.63814086 1659.21046191 -7736.16259716
v -42.04172475 1659.06658505 -7736.2144327
v -50.59760216 1665.61082253 -7734.29485617
v -59.80537082 1659.17075455 -7736.14830916
v -59.80231934 1665.54627731 -7734.33705562
v -59.76642549 1671.82012264 -7736.00775509
v -68.7297706 1665.49651851 -7734.3659639
v -68.55328755 1671.83424451 -7736.00808736
v -68.41222338 1669.32163279 -7736.5759524
v -59.70810198 1669.28865409 -7736.57395872
v -68.56452274 1662.73685725 -7736.54438588
v -59.82315777 1662.65553194 -7736.50849974
v -68.76786459 1659.06118551 -7736.15063511
v -77.13907527 1662.85465021 -7736.57329417
v -77.27763307 1658.84088445 -7736.18120479
v -77.24033344 1665.46121385 -7734.39055256
v -77.18666387 1671.97047895 -7736.02769183
v -77.07871599 1669.27270469 -7736.57661696
v -68.17443937 1683.25825023 -7584.50442083
v -58.96935924 1683.25417981 -7581.02180326
v -46.16644319 1683.21123274 -7588.6685429
v -47.56883245 1683.21306027 -7594.73861806
v -42.18622204 1684.37553881 -7588.2099977
v -48.8441574 1683.21414018 -7602.9887766
v -43.13356153 1683.32537062 -7619.00762122
v -49.3445782 1682.97963418 -7619.39572324
v -50.90743298 1683.31988801 -7639.95815269
v -57.93650554 1683.4243898 -7642.15651142
v -51.49659178 1682.40304682 -7659.71148246
v -57.61773945 1683.16745496 -7661.84903411
v -70.22536806 1683.43959157 -7664.21486152
v -69.35137984 1682.96194032 -7644.23358827
v -80.44983833 1683.19553255 -7665.59448447
v -80.06241514 1682.78433712 -7644.95164347
v -88.23769406 1683.1739344 -7666.2563845
v -88.02457594 1682.72710204 -7645.2154731
v -89.85792604 1683.17983236 -7624.60785369
v -94.61438498 1679.63308492 -7645.44441342
v -95.18835305 1679.56804128 -7624.89195234
v -95.43765845 1678.32141305 -7608.1553848
v -91.58118273 1683.14942882 -7607.7287384
v -95.35119319 1677.22887927 -7597.99163075
v -94.89156808 1671.7468551 -7608.63021168
v -94.81256872 1671.04192492 -7597.95840284
v -94.75758691 1670.53337171 -7589.28824348
v -95.28748126 1676.51929718 -7589.33443028
v -94.70285949 1670.09451405 -7581.92859301
v -94.43447141 1664.15136951 -7589.52117115
v -94.45376437 1663.79259112 -7581.93324492
v -95.04017473 1657.85476306 -7589.51153505
v -95.04447359 1657.62831483 -7581.9096531
v -95.58769026 1651.72570835 -7589.69262718
v -95.57654334 1651.72338239 -7582.25156832
v -92.23796358 1648.39519155 -7589.93884602
v -92.32339566 1648.39519155 -7582.76294591
v -92.67749618 1648.39519155 -7576.39614548
v -86.02133515 1648.39519155 -7583.24242469
v -86.22851378 1648.39519155 -7576.75965885
v -79.45191325 1648.39519155 -7583.73718832
v -79.55814782 1648.39519155 -7577.01916885
v -79.78084233 1648.39519155 -7570.70121346
v -72.43388596 1648.39519155 -7577.29529281
v -72.47414885 1648.39519155 -7570.84774855
v -72.57385076 1649.22456026 -7566.03036572
v -80.23615689 1649.11939392 -7566.03036572
v -72.62633788 1655.29197719 -7566.03003344
v -80.35721812 1654.92140289 -7566.03003344
v -72.65872861 1661.60129332 -7566.03003344
v -80.48543244 1661.12222989 -7566.03003344
v -87.40492728 1660.73537391 -7566.03235939
v -80.63094344 1667.94749244 -7566.03103027
v -87.47930069 1667.55556921 -7566.03402079
v -93.19917701 1667.06221777 -7566.06658414
v -87.51407578 1674.57280603 -7566.03235939
v -94.83260151 1666.39649653 -7569.33853674
v -88.46098823 1665.93097347 -7569.68078425
v -80.31647499 1671.715787 -7569.68842667
v -80.32568276 1665.3772303 -7569.68742983
v -71.37377795 1671.00770017 -7569.69075262
v -71.47322935 1664.76874414 -7569.68776211
v -71.58007656 1658.34271496 -7569.68709755
v -71.63346447 1657.28764565 -7570.38621284
v -62.54074665 1664.32963727 -7569.68776211
v -62.63488873 1657.88325599 -7569.68742983
v -62.6274874 1657.66901902 -7570.45499462
v -62.50648199 1664.04819684 -7571.81733906
v -71.5505829 1663.68601259 -7571.71400025
v -54.06208553 1657.49963973 -7569.68875895
v -54.01551421 1658.05413053 -7570.52876059
v -53.91712551 1664.46396111 -7572.00108942
v -53.77878545 1670.66620029 -7571.08698953
v -62.37605821 1669.97580733 -7571.23053411
v -46.26863979 1658.29121169 -7570.57727334
v -46.17952928 1664.84026722 -7572.1845075
v -46.03981888 1671.15905331 -7570.99262226
v -45.92018412 1676.93871651 -7569.75388566
v -53.8964989 1677.29151388 -7569.75687617
v -39.24027032 1665.1383216 -7572.31642231
v -38.85919028 1671.50179924 -7570.92450503
v -38.50154631 1676.65603004 -7569.73195523
v -38.41833246 1670.17617164 -7569.69307857
v -45.91361771 1670.39472824 -7569.69042034
v -45.98617008 1663.74407837 -7569.68643299
v -53.96210456 1664.02477117 -7569.68776211
v -53.9103391 1670.54450306 -7569.69042034
v -38.6265871 1663.45757069 -7569.67945513
v -38.97690536 1656.75001801 -7569.69008806
v -46.20462154 1657.14135976 -7569.69174946
v -39.29993778 1658.44995805 -7570.60917214
v -33.03911104 1665.27156553 -7572.37789395
v -62.48416931 1670.63729201 -7569.69141718
v -62.44356312 1675.95824387 -7569.95923416
v -71.38783621 1675.72946969 -7569.97152849
v -71.40274594 1669.65457648 -7571.29732222
v -80.49896892 1676.22946671 -7569.99711398
v -80.40146576 1669.74628552 -7571.27572407
v -80.97988585 1674.90084861 -7566.03202711
v -81.51430881 1681.4249832 -7566.02936888
v -87.75756629 1681.47382823 -7566.03136255
v -81.99088275 1687.80814837 -7566.02006506
v -73.56265634 1681.72910167 -7566.03402079
v -74.31671321 1687.86430355 -7566.09150508
v -75.11471009 1694.118046 -7566.43574626
v -82.42782461 1693.95431546 -7566.31479665
v -75.22892326 1692.46013927 -7569.71467672
v -83.06656634 1693.00582468 -7569.63193921
v -75.54945321 1686.97595529 -7569.71068937
v -64.89873305 1692.81709013 -7569.67347411
v -64.97582635 1686.82235926 -7569.69507225
v -66.49337695 1682.88435314 -7571.2212303
v -77.22218269 1683.19171134 -7571.59969623
v -68.32048903 1687.02247437 -7571.46412634
v -80.28287716 1688.03451353 -7571.71831988
v -69.76783786 1694.26740547 -7571.47309788
v -71.47499718 1701.486668 -7573.10824348
v -72.39574914 1705.30472135 -7579.70896842
v -72.41665028 1704.39543951 -7587.53779702
v -72.33837129 1702.83422602 -7595.065913
v -71.10394004 1696.07658226 -7597.26526857
v -70.56902256 1690.09331502 -7597.12438222
v -54.38098718 1686.84536959 -7569.69341085
v -54.15663257 1692.99859761 -7569.6767969
v -44.26863872 1692.72363662 -7569.6767969
v -44.29082354 1686.93458654 -7569.69174946
v -35.43770169 1692.38537647 -7569.67613234
v -35.82057291 1695.87613488 -7566.6085314
v -44.3132446 1695.91634065 -7566.63378462
v -44.41699227 1689.84352419 -7566.03966953
v -36.24827586 1690.24475124 -7566.03767586
v -54.08507509 1695.63091288 -7566.37892652
v -54.12288093 1689.39577806 -7566.04199549
v -54.05178715 1682.97456693 -7566.03136255
v -44.95309868 1683.43643492 -7566.030698
v -65.03163887 1695.14387474 -7566.28256558
v -64.58169333 1688.90516792 -7566.04432144
v -64.09735854 1682.45562999 -7566.03235939
v -63.79400229 1675.82059724 -7566.03036572
v -54.20957528 1676.34717659 -7566.03003344
v -73.0211426 1675.2607069 -7566.03136255
v -72.7807036 1668.39739839 -7566.03036572
v -63.79111432 1668.92605448 -7566.03003344
v -63.92589537 1662.07387732 -7566.03003344
v -54.82841044 1662.41836771 -7566.03003344
v -54.53687379 1669.40752695 -7566.03003344
v -46.4465519 1662.69997427 -7566.030698
v -46.04756644 1669.77477845 -7566.03003344
v -45.56762557 1676.77041714 -7566.03036572
v -38.5044239 1670.07075609 -7566.03202711
v -37.91811738 1677.13957925 -7566.03335623
v -37.1551331 1683.88069212 -7566.03335623
v -31.00584831 1677.56406584 -7566.05262842
v -30.23295667 1684.40968049 -7566.04432144
v -31.59281161 1670.30684041 -7566.04199549
v -32.25660666 1663.1655804 -7566.03834042
v -39.04728883 1662.94802064 -7566.03136255
v -39.63087612 1656.11345427 -7566.03136255
v -33.10501653 1656.23756053 -7566.03435307
v -46.88032933 1655.95786457 -7566.030698
v -47.32181796 1649.30696548 -7566.03103027
v -40.19197875 1649.37092922 -7566.03136255
v -55.14492708 1655.77752007 -7566.030698
v -55.43776656 1649.25130873 -7566.030698
v -55.77470409 1648.39510848 -7571.16175233
v -47.61052829 1648.39502541 -7571.20594546
v -64.10819427 1655.55763435 -7566.03003344
v -64.2190509 1649.21633635 -7566.030698
v -64.40873588 1648.39519155 -7571.05475845
v -64.59174316 1648.39519155 -7577.55081546
v -56.02903975 1648.39519155 -7577.75483485
v -56.14164506 1648.39519155 -7584.59978494
v -47.8377527 1648.39519155 -7584.92608305
v -47.77010664 1648.39510848 -7577.88110092
v -64.70741231 1648.39519155 -7584.36286992
v -64.71096095 1648.39519155 -7591.70823239
v -56.08322786 1648.39519155 -7591.87603335
v -72.43600424 1648.39519155 -7584.12229983
v -72.45145262 1648.39519155 -7591.33807344
v -72.51714005 1648.39519155 -7599.15527227
v -64.76198462 1648.39519155 -7599.6849252
v -79.45578897 1648.39519155 -7590.74096784
v -79.49737059 1648.39519155 -7598.8761578
v -79.63468494 1648.39519155 -7610.54148124
v -72.56376037 1648.39519155 -7610.90632373
v -85.9679083 1648.39519155 -7590.35386265
v -85.98892495 1648.39519155 -7598.67114157
v -86.11782589 1648.39519155 -7610.1457368
v -86.24372594 1648.39519155 -7626.10211294
v -79.59418842 1648.39527462 -7626.28287279
v -92.29991806 1648.39519155 -7598.46180572
v -92.44131062 1648.39519155 -7609.83405897
v -92.55215426 1648.39519155 -7625.8638688
v -92.22377682 1648.39544076 -7646.186725
v -86.01854452 1648.3956069 -7646.49906738
v -95.55920252 1652.07318925 -7609.60744461
v -95.55285807 1652.12510786 -7625.71799826
v -95.28099663 1651.99261156 -7645.91824346
v -95.54585944 1652.14105726 -7668.29591381
v -92.57200535 1648.39593918 -7668.57901563
v -94.98601064 1658.44455851 -7625.44951673
v -94.56001581 1658.04374681 -7645.696281
v -94.99694729 1658.33316193 -7668.03872976
v -94.9317453 1659.1123565 -7689.46242672
v -95.50332252 1652.71515253 -7689.44149313
v -93.92918128 1664.41785738 -7645.56635986
v -94.33098204 1664.81360182 -7667.73270068
v -94.19166363 1665.8668436 -7689.45245835
v -94.25604011 1665.60035573 -7707.85939308
v -94.91815041 1659.2396194 -7707.34436042
v -94.91907456 1672.47521095 -7667.37018415
v -95.20067334 1672.7947804 -7689.3720468
v -94.90749412 1672.01583505 -7708.23453621
v -94.8359944 1671.39945726 -7719.39346627
v -94.21781244 1665.34906964 -7719.07979477
v -95.2756542 1679.89168115 -7689.27601813
v -95.09540316 1680.2475521 -7666.86179708
v -89.21386525 1683.19943683 -7688.89123889
v -94.63218009 1671.92346145 -7645.52814776
v -94.22426073 1665.20735259 -7625.26144674
v -94.94544403 1672.39430098 -7625.10793378
v -94.25937069 1664.9951093 -7608.96946867
v -94.99471998 1658.42943981 -7609.349596
v -95.02065333 1658.13595427 -7598.4096379
v -94.35794337 1664.54354196 -7598.27871992
v -95.57531546 1651.8861161 -7598.47310321
v -94.92301519 1659.21519689 -7718.67773702
v -95.46826447 1653.07218646 -7718.32751481
v -95.47951264 1652.95588876 -7706.79842581
v -93.42303191 1648.39535769 -7717.71778261
v -93.21995484 1648.39552383 -7706.29967484
v -93.0582673 1648.39568997 -7689.57606618
v -86.80120984 1648.3956069 -7705.11509973
v -86.65831943 1648.39568997 -7689.56410413
v -86.24759387 1648.39585611 -7668.84683261
v -80.11478934 1648.39577304 -7689.20889774
v -79.60845695 1648.39585611 -7669.04420641
v -79.40822373 1648.39568997 -7646.82403637
v -72.23823975 1648.39585611 -7669.28377966
v -72.10204424 1648.39568997 -7647.167613
v -72.35414157 1648.39544076 -7626.61947155
v -63.58895751 1648.39544076 -7647.5560473
v -64.00522019 1648.39535769 -7626.99993115
v -64.63731634 1648.39527462 -7611.05717845
v -54.73407042 1648.39527462 -7627.62428364
v -55.4671843 1648.39519155 -7612.10219632
v -56.01177194 1648.39519155 -7600.45813874
v -46.3493927 1648.39519155 -7613.36618613
v -46.99627138 1648.39519155 -7601.40878933
v -47.58918714 1648.39519155 -7592.45353448
v -39.74642748 1648.39519155 -7602.06603745
v -40.36550244 1648.39519155 -7592.88483279
v -40.57978744 1648.39519155 -7585.22579882
v -33.91768561 1648.39519155 -7593.24269741
v -34.05004433 1648.39519155 -7585.46935943
v -34.03713737 1648.39510848 -7578.14991473
v -40.50456385 1648.39510848 -7578.03760439
v -34.07626064 1648.39502541 -7571.01887231
v -40.36553359 1648.39502541 -7571.23119867
v -33.96113111 1649.46504728 -7566.03136255
v -27.93390698 1648.39502541 -7585.62453378
v -27.90241315 1648.39502541 -7593.76935984
v -22.065045 1648.39510848 -7594.40334842
v -22.11890537 1648.39510848 -7585.93820528
v -21.96162572 1653.57359566 -7594.82168784
v -21.95289301 1653.47499183 -7586.29540535
v -22.4862062 1659.4235359 -7595.26195769
v -22.48433713 1659.44721079 -7586.76690943
v -23.34685328 1665.78950563 -7595.37792311
v -23.23399519 1666.24871539 -7586.63864969
v -22.25870662 1674.65629117 -7595.74309787
v -22.27187318 1674.509673 -7586.6399788
v -21.64942871 1684.57291262 -7596.59040966
v -22.35729228 1683.23656902 -7586.72703594
v -21.44472659 1697.18896972 -7598.16707413
v -21.44578833 1695.6759367 -7586.4043929
v -21.45062454 1706.80072507 -7599.36527268
v -21.45437566 1705.94801375 -7615.20036694
v -21.59630818 1713.79744366 -7616.90063925
v -21.57421681 1714.80748915 -7599.93579595
v -21.44542749 1697.86499162 -7612.89235609
v -21.44469284 1697.52822672 -7627.12619722
v -21.45292194 1705.49943693 -7629.52990445
v -21.46413117 1687.19542566 -7609.60412181
v -21.44728099 1687.77691413 -7623.6635164
v -22.29202539 1674.28380626 -7606.87677471
v -22.34778858 1673.64724251 -7619.84097728
v -23.17624872 1664.88703551 -7605.68787998
v -22.97643993 1664.01463665 -7618.20317344
v -22.98598776 1664.16108868 -7632.82112924
v -23.34117598 1665.76799056 -7649.97204886
v -22.42863365 1658.71295698 -7617.54060885
v -22.41868085 1658.69634302 -7632.23000467
v -22.51986244 1659.681966 -7649.81687451
v -22.71102419 1661.41488473 -7667.93705235
v -22.87953643 1667.95596556 -7667.44926658
v -21.95111739 1653.45056932 -7631.62326298
v -22.01381431 1654.14270675 -7649.6896116
v -22.13148265 1655.45030819 -7668.38961652
v -22.20768101 1656.3140678 -7685.06338331
v -22.80598852 1662.59622011 -7684.58755959
v -21.5268878 1648.64705913 -7649.53211129
v -21.60734867 1649.55825158 -7668.70561398
v -21.66175159 1650.1745463 -7685.7020238
v -21.68012299 1650.37848261 -7699.06496132
v -22.24808148 1656.72509708 -7698.68184348
v -26.21354735 1648.39535769 -7669.07610521
v -25.85575282 1648.39535769 -7686.09876508
v -25.85864728 1648.39535769 -7699.65043715
v -25.99391863 1648.39519155 -7710.21923946
v -21.67948958 1650.358712 -7709.70420681
v -31.96691897 1648.39535769 -7686.5347153
v -32.24915894 1648.39527462 -7699.97872893
v -32.55331376 1648.39519155 -7710.56015785
v -32.69734897 1648.39519155 -7718.97778507
v -26.09643194 1648.39519155 -7718.82825946
v -38.83402274 1648.39535769 -7700.66056571
v -39.47753319 1648.39527462 -7711.15128243
v -39.88280211 1648.39519155 -7719.40642515
v -39.98670942 1648.39519155 -7726.82355991
v -32.66502704 1648.39519155 -7726.43711928
v -47.18549266 1648.39535769 -7711.7789577
v -47.7541196 1648.39527462 -7719.8450336
v -48.02119155 1648.39519155 -7727.25585506
v -48.3099499 1648.39510848 -7734.09382729
v -40.08249537 1648.39510848 -7733.72964936
v -56.82270581 1648.39535769 -7720.4198765
v -57.07889692 1648.39519155 -7727.78019153
v -57.09448921 1648.39510848 -7734.58128078
v -57.20694039 1648.72497859 -7740.23401335
v -48.5932581 1648.36919071 -7740.15426636
v -65.83965734 1648.39519155 -7728.51552524
v -65.83975404 1648.39519155 -7735.30365561
v -65.78402979 1649.34825117 -7740.23368107
v -65.81071726 1655.47473071 -7740.23368107
v -57.30285305 1654.98628039 -7740.23368107
v -73.71330339 1648.39519155 -7736.28088853
v -73.87028581 1650.18667448 -7740.23334879
v -74.02387794 1656.11810618 -7740.23334879
v -74.14427332 1662.01381787 -7740.23334879
v -65.92631535 1661.52594903 -7740.23401335
v -81.63999079 1651.09952833 -7740.23301651
v -81.88861086 1656.82220566 -7740.23102284
v -82.05775132 1662.50617247 -7740.23069056
v -82.28317156 1668.57043274 -7740.230026
v -74.34533853 1668.2502818 -7740.23334879
v -88.98869682 1657.51002346 -7740.22005763
v -89.19621033 1663.07478513 -7740.21939307
v -89.56883801 1668.90005364 -7740.21906079
v -82.61066639 1675.09282287 -7740.22936144
v -83.02189037 1681.52383624 -7740.22869688
v -74.79585322 1681.36492375 -7740.23334879
v -74.57618686 1674.87127576 -7740.23334879
v -66.46183184 1681.2996309 -7740.23467791
v -66.27668487 1674.63510837 -7740.23467791
v -66.08291552 1667.87547094 -7740.23434563
v -57.84233954 1674.3524219 -7740.23467791
v -57.60919932 1667.4921039 -7740.23434563
v -57.43588785 1661.11874096 -7740.23401335
v -49.17619186 1667.22943724 -7740.23201968
v -48.94316035 1660.90151348 -7740.23135512
v -48.76359009 1654.71879569 -7740.2316874
v -40.68091841 1660.93424297 -7740.21806395
v -40.43525899 1654.6967822 -7740.22171902
v -40.22535853 1648.22107729 -7740.0087281
v -32.70832197 1661.2602088 -7740.1678898
v -33.28448879 1667.28019288 -7740.17686134
v -41.00858587 1667.15459137 -7740.22171902
v -41.51799833 1673.71170467 -7740.22670321
v -33.99187472 1673.4779463 -7740.19580125
v -49.48100929 1674.04747273 -7740.23334879
v -49.88102793 1680.94135092 -7740.23401335
v -42.11374496 1680.54618797 -7740.23102284
v -58.07819477 1681.15567096 -7740.23501019
v -58.27458001 1687.65372165 -7740.23268423
v -50.19336967 1687.54905372 -7740.23368107
v -66.61896288 1687.66626518 -7740.23334879
v -66.79104843 1693.94733759 -7740.20543734
v -58.39247436 1694.01229816 -7740.18815883
v -74.98241368 1687.5777128 -7740.23035828
v -75.21526477 1693.72172006 -7740.19912404
v -75.58031752 1694.78841914 -7736.7224875
v -66.9607574 1694.65077251 -7736.67331018
v -67.03029654 1688.18021793 -7736.60486068
v -57.98655509 1688.20995691 -7736.58193342
v -58.37938998 1694.6068286 -7736.65204432
v -76.37334061 1688.2754159 -7736.62645883
v -77.69123233 1681.96917335 -7736.40682232
v -67.17209082 1681.74064837 -7736.41247107
v -67.54738257 1685.45594441 -7734.10047287
v -78.62796224 1685.57157754 -7733.80208621
v -68.37202799 1692.41478317 -7734.16925465
v -69.5122568 1699.680814 -7733.1797274
v -70.22807431 1704.74931679 -7727.64561848
v -49.66457274 1688.20322826 -7736.56432263
v -50.13048779 1694.5837352 -7736.62978162
v -50.31009764 1693.99393974 -7740.2140766
v -42.56720473 1694.47557834 -7736.61482906
v -42.73409452 1693.91435889 -7740.20078544
v -42.60800108 1687.30665609 -7740.23102284
v -35.79328709 1693.77745989 -7740.20543734
v -35.60819463 1686.92071388 -7740.22271586
v -34.81644096 1680.01761494 -7740.22138674
v -28.04746856 1679.25553275 -7740.16190878
v -35.92600404 1694.28393635 -7736.64074683
v -35.80285828 1686.92445202 -7736.560003
v -42.36715452 1688.07588228 -7736.55701249
v -81.19255358 1647.92767481 -7737.21226693
v -73.63124213 1648.39519155 -7729.43859667
v -80.86584142 1648.39519155 -7730.57731725
v -73.48722768 1648.39519155 -7721.93905669
v -80.57309183 1648.39519155 -7723.13692295
v -87.28229032 1648.39527462 -7724.58333401
v -80.40819182 1648.39535769 -7714.85885297
v -87.00211152 1648.39535769 -7716.00588053
v -93.6616239 1648.39527462 -7726.49992004
v -80.36525253 1648.39568997 -7704.34387987
v -73.38318407 1648.39535769 -7713.51943579
v -73.5210864 1648.39568997 -7703.80924275
v -72.83951441 1648.39577304 -7688.84040019
v -65.27500737 1648.3956069 -7703.11477937
v -64.25676588 1648.39568997 -7688.94805862
v -63.67814298 1648.39568997 -7669.53564724
v -54.84707226 1648.39552383 -7688.16687039
v -54.10157223 1648.39535769 -7669.86493586
v -53.89655958 1648.39535769 -7647.99332664
v -44.59161533 1648.39535769 -7669.87922387
v -44.70433584 1648.39519155 -7648.45951426
v -45.53482859 1648.39519155 -7628.60218112
v -38.19147407 1648.39519155 -7648.82568586
v -38.51104353 1648.39519155 -7629.30495148
v -39.02740789 1648.39519155 -7614.30321328
v -32.86386235 1648.39519155 -7629.92431978
v -33.1143489 1648.39519155 -7614.9318854
v -33.53601371 1648.39519155 -7602.81499461
v -27.50287345 1648.39519155 -7615.39973441
v -27.75075628 1648.39502541 -7603.34265387
v -21.97262727 1648.39519155 -7616.09685603
v -22.02826585 1648.39519155 -7604.06237047
v -21.94309077 1653.34897497 -7616.71389838
v -21.95519819 1653.49783602 -7604.71895403
v -22.45734205 1659.06268077 -7605.33001535
v -21.81611082 1648.39527462 -7631.10889488
v -27.28784472 1648.39519155 -7630.62576103
v -26.86205757 1648.39527462 -7649.32410455
v -32.50682583 1648.39527462 -7649.07157241
v -32.08533494 1648.39535769 -7669.33461837
v -38.01190057 1648.39535769 -7669.58681823
v -38.19186736 1648.39535769 -7686.85071275
v -45.30505497 1648.39535769 -7687.24213757
v -46.20622712 1648.39535769 -7701.65673854
v -55.71608246 1648.39544076 -7702.34987281
v -56.37281788 1648.39535769 -7712.29199668
v -65.45942034 1648.39535769 -7712.67179173
v -65.73212481 1648.39527462 -7721.03658657
v -26.1076853 1648.39519155 -7726.17960295
v -21.65993703 1650.12138163 -7726.17328965
v -21.66981974 1650.23975607 -7718.5092715
v -22.30440798 1656.69934545 -7718.3866605
v -22.27485072 1656.8482065 -7709.60684903
v -23.03634363 1663.46504697 -7719.04922509
v -22.93326701 1663.39036723 -7709.82548869
v -22.88942174 1663.13318319 -7698.64795101
v -22.70716663 1669.93709681 -7710.55484139
v -22.7213508 1669.7732832 -7698.98654345
v -22.75984585 1669.3015299 -7683.98812804
v -22.14031142 1676.02835477 -7699.37165496
v -22.14446231 1675.95010303 -7683.21757273
v -21.58054309 1682.35353723 -7699.32413904
v -21.5229939 1683.00945623 -7681.75022809
v -21.44330142 1689.97444217 -7698.67918525
v -21.44473178 1689.30921935 -7680.37193426
v -21.44402569 1698.56477146 -7697.62154078
v -21.45165772 1697.31324212 -7679.09099821
v -21.45367476 1696.65283735 -7666.35706508
v -21.46157418 1705.24773548 -7678.45069632
v -21.88427477 1696.52225165 -7657.45929451
v -27.16475607 1696.78666277 -7654.1524526
v -32.35971703 1706.04379321 -7654.06306952
v -33.07825248 1697.171442 -7654.0554271
v -33.70447663 1687.96548254 -7654.06273724
v -38.81366804 1697.54068718 -7654.28935161
v -33.98065251 1681.27628829 -7652.57811408
v -34.19574094 1694.15202154 -7653.16957094
v -42.35737435 1697.96600447 -7660.3717211
v -42.38842688 1698.39182018 -7670.72852932
v -42.36468449 1698.52182439 -7683.60467792
v -42.35311703 1705.72380841 -7681.23885051
v -42.30748316 1712.6671962 -7679.74193303
v -38.47566229 1717.56823031 -7678.5068515
v -39.77247635 1717.78122123 -7697.24307485
v -40.96590876 1716.91928916 -7713.26989416
v -31.90289812 1717.86744766 -7678.00876508
v -32.91348876 1718.27307741 -7696.802805
v -34.23620631 1718.73104112 -7713.71747415
v -25.8935288 1718.20811684 -7696.52900699
v -27.15044211 1718.7198267 -7713.83476869
v -21.48367074 1713.6004852 -7696.45623786
v -21.72947163 1715.12415116 -7713.91750619
v -21.44865423 1706.2381765 -7696.81343793
v -21.45050513 1707.67021649 -7714.28268095
v -21.4440179 1699.4586854 -7714.30627277
v -21.44818177 1698.83940017 -7724.99403102
v -22.10113363 1698.52988216 -7732.71852397
v -21.44362072 1689.73960389 -7713.45464136
v -21.61469515 1681.97523744 -7712.38935447
v -22.14646117 1676.02328751 -7711.50250147
v -22.70238233 1670.13629815 -7719.98691679
v -28.27475268 1698.27776537 -7735.29667775
v -21.53054806 1712.75657928 -7678.05162909
v -25.279329 1717.78745146 -7677.73895443
v -31.62735825 1716.55469589 -7665.47253803
v -31.79782264 1714.10397116 -7655.67894293
v -21.69179429 1713.1221694 -7632.07549487
v -28.08556384 1715.94512982 -7633.67741256
v -28.02755258 1716.96082405 -7617.7977929
v -35.61354225 1715.97985299 -7634.3964646
v -35.93830097 1716.93166656 -7617.98918568
v -35.47969866 1718.15977023 -7599.22571544
v -27.83856363 1718.12022901 -7599.51413373
v -42.20795388 1712.98676565 -7617.944328
v -42.18429976 1714.00520119 -7599.32706058
v -42.03105029 1712.69951034 -7634.64467711
v -42.45932693 1704.4919666 -7634.75898113
v -42.3938355 1689.14025541 -7618.1496765
v -47.2454327 1685.10779895 -7587.99767133
g Group18194
f 1 67 68 69
f 1 69 70 71
f 2 72 19 73
f 2 74 75 72
f 2 76 77 74
f 2 78 79 76
f 2 73 80 37
f 2 37 23 78
f 50 36 3
f 82 83 36 50
f 3 81 82 50
f 3 36 84 85
f 3 85 86 81
f 4 45 87 88
f 4 89 90 91
f 5 15 92 93
f 5 93 94 20
f 5 20 95 96
f 6 97 98 35
f 6 99 100 97
f 7 102 103 98
f 7 98 97 104
f 7 105 106 102
f 7 104 107 105
f 8 108 109 51
f 8 110 111 112
f 8 113 114 110
f 8 51 115 113
f 8 112 116 108
f 9 117 118 119
f 9 120 58 121
f 9 122 123 120
f 9 121 124 117
f 10 129 130 131
f 10 132 133 129
f 10 131 134 132
f 11 135 136 137
f 11 138 139 135
f 11 140 141 138
f 12 142 143 144
f 12 144 145 146
f 12 147 148 142
f 13 149 150 151
f 13 151 152 153
f 13 153 154 155
f 13 155 156 157
f 6 158 159 160
f 6 161 162 158
f 6 35 83 82
f 6 82 163 161
f 14 164 165 166
f 14 167 168 164
f 14 169 61 170
f 14 170 171 167
f 15 172 173 174
f 15 174 175 92
f 15 107 176 172
f 15 5 105 107
f 12 146 177 178
f 12 62 32 147
f 12 178 179 62
f 16 40 181 182
f 16 45 183 40
f 16 182 87 45
f 184 185 3
f 3 186 187 184
f 17 188 189 190
f 17 58 120 191
f 17 191 192 188
f 193 194 121 58
f 17 190 193 58
f 18 195 196 197
f 18 197 198 199
f 18 200 122 195
f 18 201 202 200
f 4 88 203 89
f 19 204 205 73
f 19 206 207 204
f 19 72 33 206
f 21 208 209 210
f 21 211 212 208
f 21 210 213 211
f 22 214 53 46
f 22 52 215 214
f 22 216 217 52
f 23 218 219 78
f 13 157 220 221
f 13 221 222 149
f 24 223 224 225
f 24 225 226 227
f 24 227 228 223
f 25 229 230 231
f 25 232 233 229
f 25 231 234 232
f 26 235 236 237
f 26 238 239 235
f 26 237 51 238
f 27 44 240 241
f 27 241 242 243
f 27 243 244 44
f 28 245 246 247
f 28 248 249 245
f 28 250 251 248
f 29 252 253 254
f 29 197 196 252
f 29 254 198 197
f 30 255 256 257
f 30 257 258 259
f 30 259 260 255
f 31 247 246 261
f 31 54 262 247
f 31 261 263 264
f 31 265 266 54
f 31 264 267 265
f 32 268 165 164
f 32 164 168 269
f 32 62 179 268
f 33 72 75 66
f 33 270 271 272
f 33 66 273 270
f 33 274 275 206
f 4 276 275 45
f 4 91 277 276
f 34 278 279 280
f 34 280 281 49
f 34 49 136 278
f 35 282 267 83
f 35 283 284 282
f 35 98 103 283
f 9 285 195 122
f 9 119 286 285
f 6 160 287 99
f 36 83 267 264
f 36 264 263 84
f 37 80 288 23
f 38 289 290 291
f 38 292 293 289
f 38 291 294 292
f 39 295 296 297
f 39 297 249 248
f 39 298 299 295
f 40 183 300 181
f 41 301 302 303
f 41 304 305 301
f 41 303 306 304
f 42 56 307 308
f 42 124 309 56
f 42 308 117 124
f 43 310 311 312
f 43 312 313 314
f 43 314 315 310
f 44 244 316 240
f 20 94 317 95
f 45 275 274 183
f 46 53 318 319
f 46 320 321 22
f 46 241 240 320
f 47 322 323 324
f 47 324 325 326
f 47 326 327 322
f 23 288 328 218
f 48 329 330 331
f 48 331 332 333
f 48 333 334 329
f 18 199 335 336
f 18 336 337 201
f 49 338 137 136
f 49 339 340 338
f 49 281 341 339
f 3 185 342 186
f 51 237 343 115
f 52 344 345 346
f 52 346 347 215
f 52 217 348 344
f 53 293 292 318
f 54 266 349 262
f 1 101 350 67
f 55 351 232 234
f 55 346 345 352
f 55 352 353 354
f 55 355 347 346
f 55 234 356 355
f 56 309 357 307
f 55 354 358 351
f 57 359 360 361
f 57 362 363 364
f 57 364 365 359
f 59 366 367 368
f 59 362 369 366
f 60 370 335 371
f 60 372 373 370
f 60 371 296 372
f 61 169 63 180
f 64 374 375 376
f 64 376 201 337
f 64 337 377 378
f 64 378 379 380
f 64 380 381 374
f 65 382 379 378
f 65 383 342 382
f 65 378 377 383
f 66 75 384 385
f 66 385 386 273
f 386 385 387 388
f 386 388 389 390
f 386 390 77 273
f 390 389 391 392
f 390 392 74 77
f 392 391 393 384
f 392 384 75 74
f 393 391 394 395
f 393 395 396 387
f 393 387 385 384
f 396 395 397 398
f 396 398 399 400
f 396 400 388 387
f 400 399 401 402
f 400 402 389 388
f 402 401 403 394
f 402 394 391 389
f 403 401 404 405
f 403 405 406 397
f 403 397 395 394
f 406 405 352 345
f 406 345 344 407
f 406 407 398 397
f 407 344 348 408
f 407 408 399 398
f 408 348 353 404
f 408 404 401 399
f 405 404 353 352
f 383 377 409 410
f 383 410 186 342
f 410 409 370 373
f 410 373 187 186
f 409 377 337 336
f 409 336 335 370
f 382 342 185 411
f 382 411 412 379
f 412 411 413 299
f 412 299 298 414
f 412 414 380 379
f 414 298 415 416
f 414 416 381 380
f 416 415 148 417
f 416 417 418 381
f 418 417 419 420
f 418 420 421 422
f 418 422 374 381
f 422 421 423 424
f 422 424 375 374
f 424 423 425 426
f 424 426 427 375
f 427 426 428 429
f 427 429 430 431
f 427 431 376 375
f 431 430 432 202
f 431 202 201 376
f 432 430 433 434
f 432 434 435 436
f 432 436 200 202
f 436 435 437 123
f 436 123 122 200
f 437 435 438 439
f 437 439 116 191
f 437 191 120 123
f 439 438 440 441
f 439 441 108 116
f 441 440 442 443
f 441 443 109 108
f 443 442 444 445
f 443 445 446 109
f 446 445 447 448
f 446 448 239 238
f 446 238 51 109
f 448 447 449 450
f 448 450 451 239
f 451 450 452 453
f 451 453 454 455
f 451 455 235 239
f 455 454 456 457
f 455 457 236 235
f 457 456 458 459
f 457 459 460 236
f 460 459 461 462
f 460 462 463 343
f 460 343 237 236
f 463 462 464 193
f 463 193 190 465
f 463 465 115 343
f 465 190 189 466
f 465 466 113 115
f 466 189 467 468
f 466 468 114 113
f 468 467 469 470
f 468 470 471 114
f 471 472 110 114
f 471 470 473 474
f 471 474 475 472
f 475 476 477 472
f 475 474 478 479
f 475 479 480 476
f 480 481 482 476
f 480 479 483 484
f 480 484 485 481
f 485 486 487 481
f 485 484 488 489
f 485 489 490 486
f 490 491 492 486
f 490 489 100 99
f 490 99 287 491
f 492 493 494 495
f 492 495 487 486
f 492 491 496 493
f 496 497 498 493
f 496 491 287 173
f 496 173 172 497
f 498 483 479 478
f 498 478 494 493
f 498 497 499 483
f 499 488 484 483
f 499 497 172 176
f 499 176 500 488
f 500 100 489 488
f 500 176 107 104
f 500 104 97 100
f 495 494 473 501
f 495 501 502 487
f 502 501 469 503
f 502 503 504 482
f 502 482 481 487
f 504 503 505 506
f 504 506 111 477
f 504 477 476 482
f 506 192 112 111
f 506 505 188 192
f 505 503 469 467
f 505 467 189 188
f 501 473 470 469
f 494 478 474 473
f 477 111 110 472
f 464 462 461 507
f 464 507 508 509
f 464 509 194 193
f 509 508 510 357
f 509 357 309 194
f 510 508 511 512
f 510 512 513 514
f 510 514 307 357
f 514 513 515 516
f 514 516 308 307
f 516 515 517 118
f 516 118 117 308
f 517 515 518 519
f 517 519 520 521
f 517 521 119 118
f 521 520 522 523
f 521 523 286 119
f 523 332 331 286
f 523 522 524 332
f 524 525 333 332
f 524 522 85 84
f 524 84 263 525
f 525 526 334 333
f 525 263 261 526
f 526 527 253 334
f 526 261 246 527
f 527 528 254 253
f 527 246 245 528
f 528 529 198 254
f 528 245 249 529
f 529 530 199 198
f 529 249 297 530
f 530 371 335 199
f 530 297 296 371
f 522 520 86 85
f 520 519 531 86
f 531 532 533 534
f 531 534 81 86
f 531 519 518 532
f 534 533 535 163
f 534 163 82 81
f 535 536 127 126
f 535 126 161 163
f 535 533 537 536
f 537 538 539 536
f 537 533 532 540
f 537 540 541 538
f 541 542 543 538
f 541 540 544 545
f 541 545 546 542
f 546 547 548 542
f 546 545 512 511
f 546 511 549 547
f 549 550 551 547
f 549 511 508 507
f 549 507 461 550
f 551 552 553 554
f 551 554 548 547
f 551 550 458 552
f 554 553 555 556
f 554 556 557 548
f 557 556 558 559
f 557 559 560 543
f 557 543 542 548
f 560 559 561 562
f 560 562 128 539
f 560 539 538 543
f 562 561 158 162
f 562 162 125 128
f 561 563 159 158
f 561 559 558 563
f 563 564 175 159
f 563 558 565 564
f 565 566 567 564
f 565 558 556 555
f 565 555 568 566
f 568 569 570 566
f 568 555 553 571
f 568 571 572 569
f 572 573 574 569
f 572 571 575 576
f 572 576 577 573
f 577 578 579 573
f 577 576 454 453
f 577 453 452 578
f 579 580 581 582
f 579 582 574 573
f 579 578 583 580
f 583 584 585 580
f 583 578 452 586
f 583 586 587 584
f 587 588 589 584
f 587 586 449 590
f 587 590 591 588
f 591 592 593 588
f 591 590 594 595
f 591 595 596 592
f 596 597 598 592
f 596 595 599 600
f 596 600 601 597
f 601 602 603 597
f 601 600 604 605
f 601 605 606 602
f 606 607 608 602
f 606 605 609 610
f 606 610 611 607
f 611 612 613 607
f 611 610 614 615
f 611 615 616 612
f 616 617 618 612
f 616 615 619 620
f 616 620 621 617
f 621 622 623 617
f 621 620 624 361
f 621 361 360 622
f 624 620 619 625
f 624 625 425 626
f 624 626 57 361
f 626 425 423 369
f 626 369 362 57
f 625 619 627 428
f 625 428 426 425
f 627 619 615 614
f 627 614 628 629
f 627 629 429 428
f 629 628 630 433
f 629 433 430 429
f 630 628 609 631
f 630 631 632 633
f 630 633 434 433
f 633 632 440 438
f 633 438 435 434
f 632 631 604 634
f 632 634 442 440
f 634 604 600 599
f 634 599 444 442
f 631 609 605 604
f 628 614 610 609
f 623 347 355 635
f 623 635 618 617
f 623 622 215 347
f 635 355 356 636
f 635 636 637 618
f 637 636 638 639
f 637 639 640 613
f 637 613 612 618
f 640 639 641 642
f 640 642 643 608
f 640 608 607 613
f 643 642 644 645
f 643 645 646 603
f 643 603 602 608
f 646 645 647 648
f 646 648 649 598
f 646 598 597 603
f 649 648 650 651
f 649 651 652 593
f 649 593 592 598
f 652 651 653 654
f 652 654 655 589
f 652 589 588 593
f 655 654 656 657
f 655 657 658 585
f 655 585 584 589
f 658 657 659 660
f 658 660 661 581
f 658 581 580 585
f 661 660 662 663
f 661 663 664 665
f 661 665 582 581
f 665 664 666 667
f 665 667 574 582
f 667 666 668 570
f 667 570 569 574
f 668 666 94 93
f 668 93 92 567
f 668 567 566 570
f 666 664 317 94
f 664 663 669 317
f 669 670 671 672
f 669 672 95 317
f 669 663 662 670
f 672 671 673 674
f 672 674 96 95
f 674 673 675 676
f 674 676 106 96
f 676 675 677 678
f 676 678 102 106
f 678 677 679 680
f 678 680 103 102
f 680 679 681 682
f 680 682 283 103
f 682 681 683 684
f 682 684 284 283
f 684 683 685 260
f 684 260 259 284
f 685 686 687 688
f 685 688 255 260
f 685 683 689 686
f 689 690 691 686
f 689 683 681 692
f 689 692 693 690
f 693 155 154 690
f 693 692 694 695
f 693 695 156 155
f 695 694 696 697
f 695 697 698 156
f 698 699 157 156
f 698 697 700 701
f 698 701 702 699
f 702 703 704 699
f 702 701 705 706
f 702 706 707 703
f 707 708 709 703
f 707 706 710 711
f 707 711 712 708
f 712 713 714 708
f 712 711 715 716
f 712 716 717 713
f 717 718 719 713
f 717 716 720 721
f 717 721 722 718
f 722 723 724 718
f 722 721 725 726
f 722 726 727 723
f 727 728 729 723
f 727 726 730 731
f 727 731 732 728
f 732 733 734 728
f 732 731 735 736
f 732 736 737 733
f 737 738 739 733
f 737 736 740 741
f 737 741 742 738
f 742 743 744 738
f 742 741 745 746
f 742 746 747 743
f 747 748 749 743
f 747 746 750 751
f 747 751 752 748
f 752 753 754 748
f 752 751 755 756
f 752 756 757 753
f 757 321 758 753
f 757 756 358 216
f 757 216 22 321
f 758 759 760 761
f 758 761 754 753
f 758 321 320 759
f 761 760 762 763
f 761 763 764 754
f 764 763 765 766
f 764 766 767 749
f 764 749 748 754
f 767 766 768 769
f 767 769 770 744
f 767 744 743 749
f 770 769 771 772
f 770 772 773 739
f 770 739 738 744
f 773 772 219 218
f 773 218 328 734
f 773 734 733 739
f 772 771 774 219
f 774 775 271 79
f 774 79 78 219
f 774 771 776 775
f 776 777 778 775
f 776 771 769 768
f 776 768 779 777
f 779 780 781 777
f 779 768 766 765
f 779 765 782 780
f 782 783 784 780
f 782 765 763 762
f 782 762 785 783
f 785 786 787 783
f 785 762 760 788
f 785 788 789 786
f 789 790 791 786
f 789 788 316 244
f 789 244 243 790
f 791 792 793 794
f 791 794 787 786
f 791 790 795 792
f 795 796 797 792
f 795 790 243 242
f 795 242 319 796
f 797 798 67 350
f 797 350 793 792
f 797 796 799 798
f 799 294 800 798
f 799 796 319 318
f 799 318 292 294
f 800 294 291 801
f 800 801 340 68
f 800 68 67 798
f 801 291 290 802
f 801 802 338 340
f 802 290 227 226
f 802 226 137 338
f 794 793 803 804
f 794 804 805 787
f 805 804 806 807
f 805 807 808 784
f 805 784 783 787
f 808 807 809 810
f 808 810 811 781
f 808 781 780 784
f 811 810 300 812
f 811 812 272 778
f 811 778 777 781
f 812 300 183 274
f 812 274 33 272
f 810 809 181 300
f 809 813 182 181
f 809 807 806 813
f 813 814 87 182
f 813 806 815 814
f 815 1 71 814
f 815 806 804 803
f 815 803 101 1
f 814 71 88 87
f 803 793 350 101
f 788 760 759 316
f 778 272 271 775
f 759 320 240 316
f 756 755 351 358
f 755 751 750 233
f 755 233 232 351
f 750 746 745 816
f 750 816 229 233
f 816 745 817 818
f 816 818 230 229
f 818 817 819 820
f 818 820 821 230
f 821 820 822 823
f 821 823 638 824
f 821 824 231 230
f 824 638 636 356
f 824 356 234 231
f 823 822 825 641
f 823 641 639 638
f 825 822 826 827
f 825 827 828 644
f 825 644 642 641
f 828 827 829 830
f 828 830 831 647
f 828 647 645 644
f 831 830 832 833
f 831 833 834 650
f 831 650 648 647
f 834 833 835 836
f 834 836 837 653
f 834 653 651 650
f 837 836 838 839
f 837 839 840 656
f 837 656 654 653
f 840 839 841 842
f 840 842 843 659
f 840 659 657 656
f 843 842 844 845
f 843 845 670 662
f 843 662 660 659
f 845 844 846 847
f 845 847 671 670
f 847 846 848 849
f 847 849 673 671
f 849 848 700 850
f 849 850 675 673
f 850 700 697 696
f 850 696 677 675
f 848 705 701 700
f 848 846 851 705
f 851 710 706 705
f 851 846 844 852
f 851 852 853 710
f 853 715 711 710
f 853 852 841 854
f 853 854 855 715
f 855 720 716 715
f 855 854 838 856
f 855 856 857 720
f 857 725 721 720
f 857 856 835 858
f 857 858 859 725
f 859 730 726 725
f 859 858 832 860
f 859 860 861 730
f 861 735 731 730
f 861 860 829 862
f 861 862 863 735
f 863 740 736 735
f 863 862 826 819
f 863 819 817 740
f 862 829 827 826
f 860 832 830 829
f 858 835 833 832
f 856 838 836 835
f 854 841 839 838
f 852 844 842 841
f 826 822 820 819
f 817 745 741 740
f 734 328 729 728
f 729 328 288 864
f 729 864 724 723
f 864 288 80 865
f 864 865 866 724
f 866 865 205 867
f 866 867 868 719
f 866 719 718 724
f 868 867 869 870
f 868 870 871 714
f 868 714 713 719
f 871 870 872 873
f 871 873 874 709
f 871 709 708 714
f 874 873 875 876
f 874 876 220 704
f 874 704 703 709
f 876 875 877 878
f 876 878 221 220
f 878 877 879 880
f 878 880 222 221
f 880 879 881 882
f 880 882 883 222
f 883 882 884 133
f 883 133 132 885
f 883 885 149 222
f 885 132 134 886
f 885 886 150 149
f 886 134 887 888
f 886 888 889 150
f 889 888 890 177
f 889 177 146 891
f 889 891 151 150
f 891 146 145 892
f 891 892 152 151
f 892 145 211 213
f 892 213 325 152
f 890 888 887 305
f 890 305 304 893
f 890 893 178 177
f 893 894 179 178
f 893 304 306 894
f 894 895 268 179
f 894 306 896 895
f 896 138 141 895
f 896 306 303 897
f 896 897 139 138
f 897 303 302 898
f 897 898 899 139
f 899 900 135 139
f 899 898 901 902
f 899 902 903 900
f 903 279 278 900
f 903 902 904 905
f 903 905 313 279
f 905 904 906 907
f 905 907 314 313
f 907 906 908 909
f 907 909 315 314
f 909 908 881 910
f 909 910 911 315
f 911 912 310 315
f 911 910 913 90
f 911 90 89 912
f 913 910 881 879
f 913 879 877 914
f 913 914 91 90
f 914 877 875 915
f 914 915 277 91
f 915 875 873 872
f 915 872 916 277
f 916 207 276 277
f 916 872 870 869
f 916 869 204 207
f 912 917 311 310
f 912 89 203 917
f 917 341 281 311
f 917 203 70 341
f 908 906 918 884
f 908 884 882 881
f 918 906 904 919
f 918 919 130 129
f 918 129 133 884
f 919 904 902 901
f 919 901 920 130
f 920 901 898 302
f 920 302 301 921
f 920 921 131 130
f 921 301 305 887
f 921 887 134 131
f 900 278 136 135
f 895 141 165 268
f 869 867 205 204
f 865 80 73 205
f 704 220 157 699
f 696 694 679 677
f 694 692 681 679
f 691 323 322 922
f 691 922 687 686
f 691 690 154 323
f 922 322 327 923
f 922 923 924 687
f 924 923 925 926
f 924 926 927 928
f 924 928 688 687
f 928 927 349 256
f 928 256 255 688
f 927 926 929 930
f 927 930 262 349
f 930 929 250 28
f 930 28 247 262
f 929 931 932 250
f 929 926 925 931
f 932 212 144 143
f 932 143 251 250
f 932 931 208 212
f 931 925 209 208
f 925 923 327 209
f 622 360 214 215
f 599 595 594 444
f 594 590 449 447
f 594 447 445 444
f 586 452 450 449
f 576 575 456 454
f 575 571 553 552
f 575 552 458 456
f 567 92 175 564
f 550 461 459 458
f 545 544 513 512
f 544 540 532 518
f 544 518 515 513
f 539 128 127 536
f 423 421 366 369
f 421 420 367 366
f 420 419 269 367
f 419 417 148 147
f 419 147 32 269
f 415 298 39 933
f 415 933 142 148
f 933 39 248 251
f 933 251 143 142
f 413 184 187 934
f 413 934 295 299
f 413 411 185 184
f 934 187 373 372
f 934 372 296 295
f 367 269 168 368
f 365 293 53 359
f 365 364 223 228
f 365 228 289 293
f 364 363 224 223
f 363 166 140 224
f 360 359 53 214
f 358 354 217 216
f 354 353 348 217
f 349 266 257 256
f 341 70 69 339
f 340 339 69 68
f 334 253 252 329
f 331 330 285 286
f 330 329 252 196
f 330 196 195 285
f 327 326 210 209
f 326 325 213 210
f 325 324 153 152
f 324 323 154 153
f 46 319 242 241
f 313 312 280 279
f 312 311 281 280
f 309 124 121 194
f 290 289 228 227
f 287 160 174 173
f 284 259 258 282
f 282 258 265 267
f 276 207 206 275
f 273 77 76 270
f 271 270 76 79
f 266 265 258 257
f 63 368 168 167
f 63 167 171 180
f 226 225 11 137
f 225 224 140 11
f 212 211 145 144
f 203 88 71 70
f 192 191 116 112
f 175 174 160 159
f 166 165 141 140
f 162 161 126 125
f 106 105 5 96
f 125 126 127 128
f 61 180 171 170
f 363 59 368 166
f 363 362 59
f 368 63 169
f 368 169 14
f 368 14 166

 